<svg height="512" viewBox="0 0 64 64" width="512" xmlns="http://www.w3.org/2000/svg"><g id="_32_Close" data-name="32 Close"><path d="m48.8193 30.4268-13.8793-19.8275a3 3 0 1 0 -5.88 0l-13.8793 19.8275a1 1 0 0 0 1.6386 1.1464l13.3931-19.1332a3.2359 3.2359 0 0 0 3.5753 0l13.393 19.1328a1 1 0 0 0 1.6386-1.146zm-16.8193-19.4268a1 1 0 0 1 0-2 1 1 0 0 1 0 2z" fill="#67676b"/><rect fill="#e52828" height="27" rx="3" width="60" x="2" y="30"/><rect fill="#ff3c38" height="21" rx="3" width="54" x="5" y="33"/><g fill="#eee"><path d="m17.9519 45.3c-.1545 3.03-4.2366 4.0518-6.5591 2.6513-3.79-2.42-2.4-9.736 2.5045-9.5067 1.8239-.1232 4.7756 1.6185 3.7882 3.5615-.598.5667-1.2841.1722-1.5743-.54a2.4408 2.4408 0 0 0 -4.1447-.52c-.8145.9185-.9328 3.3358-.4032 4.5312 1.1366 2.5317 4.3314 1.6312 4.9279-.7932a.8665.8665 0 0 1 1.4607.6159z"/><path d="m21.6731 39.645v7.1162h4.0146a.8264.8264 0 1 1 0 1.627h-4.7817c-.8655-.0055-1.2073-.3523-1.2139-1.2139v-7.5293a1.0059 1.0059 0 1 1 1.981 0z"/><path d="m31.6033 38.4448c6.4261-.3817 6.442 10.4435.04 10.11-6.3671.3373-6.4133-10.429-.04-10.11zm2.8139 5.0283c.1813-4.601-5.7578-4.5982-5.5615 0-.192 4.6392 5.7381 4.6869 5.5615 0z"/><path d="m45.5476 45.4536c.05 3.5474-5.7482 4.1242-7.3525 1.504-.5382-.7533-.6916-2.0988.47-2.1505 1.1073.0836.9021 1.7507 1.9141 2.0907 1.0106.4915 3.0115.1262 3.0141-1.23-.0612-1.2256-1.2687-1.3023-2.3207-1.5938a4.72 4.72 0 0 1 -2.8907-1.4775 2.5644 2.5644 0 0 1 1.2969-3.8144c1.8132-.7451 5.2509-.3652 5.4419 2.0507a.889.889 0 0 1 -1.3907.75c-.3337-.3286-.6194-1.1551-1.0234-1.4208-.8452-.7329-3.6052-.1576-2.7476 1.3437.55.6076 1.0869.6076 1.9541.86 1.7101.3851 3.7192 1.0111 3.6345 3.0879z"/><path d="m53.6707 40.1392h-4.4615v2.4h4.1079a.7581.7581 0 1 1 0 1.4941h-4.1079v2.78h4.6148a.7974.7974 0 1 1 0 1.5742h-5.3819c-.8654-.0055-1.2073-.3523-1.2138-1.2139v-7.3479a1.0556 1.0556 0 0 1 1.2138-1.2139h5.2286a.7768.7768 0 1 1 0 1.5274z"/></g></g></svg>