<svg width="188" height="180" viewBox="0 0 188 180" fill="none" xmlns="http://www.w3.org/2000/svg">
<path d="M6.59326 168.461V180L64.2856 168.461L125.769 180L181.319 170.11V156.923L125.275 168.461L64.2856 156.923L6.59326 168.461Z" fill="#2F80ED"/>
<path d="M2.47253 170.11C1.97802 170.11 1.31868 169.945 0.824176 169.615C0.32967 169.121 0 168.461 0 167.637V34.1207C0 32.9668 0.824176 31.9778 1.97802 31.6481L37.5824 24.8899C38.9011 24.5602 40.2198 25.5492 40.5494 26.8679C40.8791 28.1866 39.8901 29.5053 38.5714 29.8349L4.94506 36.0987V164.505L62.967 153.461C63.2967 153.461 63.6264 153.461 63.956 153.461L124.451 164.835L182.967 153.791V25.5492L124.945 36.5932C124.615 36.5932 124.286 36.5932 123.956 36.5932L93.956 30.824C92.6374 30.4943 91.8132 29.3404 91.978 27.8569C92.3077 26.5382 93.4615 25.7141 94.9451 25.8789L124.615 31.4833L185.11 20.1097C185.769 19.9448 186.593 20.1097 187.088 20.6042C187.582 21.0987 187.912 21.758 187.912 22.5822V156.099C187.912 157.253 187.088 158.242 185.934 158.571L124.945 170.11C124.615 170.11 124.286 170.11 123.956 170.11L63.4615 158.736L2.96703 170.11C2.8022 170.11 2.63736 170.11 2.47253 170.11Z" fill="black"/>
<path d="M109.615 135.494H103.022C101.703 135.494 100.55 134.34 100.55 133.022C100.55 131.703 101.703 130.549 103.022 130.549H109.615C110.934 130.549 112.088 131.703 112.088 133.022C112.088 134.34 110.934 135.494 109.615 135.494ZM93.132 135.494H86.5385C85.2199 135.494 84.066 134.34 84.066 133.022C84.066 131.703 85.2199 130.549 86.5385 130.549H93.132C94.4506 130.549 95.6045 131.703 95.6045 133.022C95.6045 134.34 94.4506 135.494 93.132 135.494ZM76.6484 135.494H70.055C68.7363 135.494 67.5825 134.34 67.5825 133.022C67.5825 131.703 68.7363 130.549 70.055 130.549H76.6484C77.9671 130.549 79.121 131.703 79.121 133.022C79.121 134.34 77.9671 135.494 76.6484 135.494ZM60.1649 135.494H53.5715C52.2528 135.494 51.099 134.34 51.099 133.022C51.099 131.703 52.2528 130.549 53.5715 130.549H60.1649C61.4836 130.549 62.6374 131.703 62.6374 133.022C62.6374 134.34 61.4836 135.494 60.1649 135.494ZM43.8462 134.505C43.5166 134.505 43.3517 134.505 43.0221 134.34C40.7144 133.516 38.4067 132.197 36.5935 130.549C35.6045 129.725 35.4396 128.076 36.2638 127.087C37.088 126.098 38.7363 125.934 39.7254 126.758C41.2089 128.076 42.8572 128.901 44.6704 129.56C45.9891 130.054 46.6484 131.373 46.1539 132.692C45.8243 133.846 44.8352 134.505 43.8462 134.505ZM32.8023 122.967C31.8133 122.967 30.8243 122.307 30.4946 121.153C30.0001 119.34 29.6704 117.527 29.6704 115.549C29.6704 114.89 29.6704 114.23 29.8352 113.736C30.0001 112.417 31.1539 111.428 32.4726 111.428C33.7913 111.593 34.7803 112.747 34.7803 114.065C34.7803 114.56 34.7803 115.054 34.7803 115.549C34.7803 117.032 34.9451 118.351 35.4396 119.67C35.7693 120.989 35.11 122.307 33.7913 122.802C33.2968 122.967 33.1319 122.967 32.8023 122.967ZM35.7693 107.472C35.2748 107.472 34.6155 107.307 34.2858 106.978C33.1319 106.153 32.9671 104.505 33.7913 103.516C35.2748 101.538 37.2528 99.8896 39.3957 98.571C40.5495 97.9116 42.033 98.2413 42.6924 99.3951C43.3517 100.549 43.0221 102.032 41.8682 102.692C40.2199 103.681 38.7363 104.835 37.5825 106.318C37.2528 107.142 36.5935 107.472 35.7693 107.472ZM89.8353 100.879H83.2418C81.9232 100.879 80.7693 99.7248 80.7693 98.4061C80.7693 97.0874 81.9232 95.9336 83.2418 95.9336H89.8353C91.1539 95.9336 92.3078 97.0874 92.3078 98.4061C92.3078 99.7248 91.1539 100.879 89.8353 100.879ZM73.3517 100.879H66.7583C65.4396 100.879 64.2858 99.7248 64.2858 98.4061C64.2858 97.0874 65.4396 95.9336 66.7583 95.9336H73.3517C74.6704 95.9336 75.8243 97.0874 75.8243 98.4061C75.8243 99.7248 74.6704 100.879 73.3517 100.879ZM56.8682 100.879H50.2748C48.9561 100.879 47.8023 99.7248 47.8023 98.4061C47.8023 97.0874 48.9561 95.9336 50.2748 95.9336H56.8682C58.1869 95.9336 59.3407 97.0874 59.3407 98.4061C59.3407 99.7248 58.1869 100.879 56.8682 100.879Z" fill="black"/>
<path d="M88.1873 72.8569H81.5938C80.2752 72.8569 79.1213 71.7031 79.1213 70.3844C79.1213 69.0657 80.2752 67.9119 81.5938 67.9119H88.1873C89.5059 67.9119 90.6598 69.0657 90.6598 70.3844C90.6598 71.7031 89.5059 72.8569 88.1873 72.8569ZM71.7037 72.8569H65.1103C63.7917 72.8569 62.6378 71.7031 62.6378 70.3844C62.6378 69.0657 63.7917 67.9119 65.1103 67.9119H71.7037C73.0224 67.9119 74.1763 69.0657 74.1763 70.3844C74.1763 71.7031 73.0224 72.8569 71.7037 72.8569ZM55.2202 72.8569H48.6268C47.3081 72.8569 46.1543 71.7031 46.1543 70.3844C46.1543 69.0657 47.3081 67.9119 48.6268 67.9119H55.2202C56.5389 67.9119 57.6928 69.0657 57.6928 70.3844C57.6928 71.7031 56.5389 72.8569 55.2202 72.8569ZM38.9015 71.8679C38.5719 71.8679 38.2422 71.8679 37.9125 71.7031C35.44 70.5493 33.462 68.7361 31.9785 66.5932C31.3191 65.4394 31.6488 63.9558 32.6378 63.1317C33.7917 62.4723 35.2752 62.802 36.0993 63.791C37.0884 65.2745 38.407 66.4284 39.8906 67.0877C41.2092 67.5822 41.7037 69.0657 41.0444 70.3844C40.7147 71.2086 39.8906 71.8679 38.9015 71.8679ZM32.6378 58.0218C32.473 58.0218 32.1433 58.0218 31.9785 57.8569C30.6598 57.5273 29.8356 56.0438 30.3301 54.7251C31.1543 52.0877 32.6378 49.78 34.6158 48.1317C35.6048 47.3075 37.2532 47.3075 38.0774 48.4613C38.9015 49.4503 38.9015 51.0987 37.7477 51.9229C36.429 53.0767 35.44 54.5602 34.9455 56.2086C34.6158 57.3624 33.6268 58.0218 32.6378 58.0218ZM51.9235 49.78H45.3301C44.0114 49.78 42.8576 48.6262 42.8576 47.3075C42.8576 45.9888 44.0114 44.835 45.3301 44.835H51.9235C53.2422 44.835 54.396 45.9888 54.396 47.3075C54.396 48.6262 53.2422 49.78 51.9235 49.78Z" fill="black"/>
<path d="M126.264 50.7695C109.781 50.7695 96.2642 64.1212 96.2642 80.7695C96.2642 100.385 126.264 136.484 126.264 136.484C126.264 136.484 156.099 100.385 156.099 80.7695C156.099 64.1212 142.748 50.7695 126.264 50.7695ZM126.264 90.9893C120 90.9893 115.715 86.7036 115.715 80.4399C115.715 74.1761 120 69.8904 126.264 69.8904C132.528 69.8904 136.814 74.1761 136.814 80.4399C136.814 86.5388 132.363 90.9893 126.264 90.9893Z" fill="#FF9900"/>
<path d="M126.264 138.956C125.605 138.956 124.781 138.627 124.286 138.132C123.132 136.484 93.7915 101.044 93.7915 80.7694C93.7915 62.9672 108.297 48.2969 126.264 48.2969C144.231 48.2969 158.572 62.8024 158.572 80.7694C158.572 101.044 129.231 136.484 128.077 138.132C127.583 138.627 126.923 138.956 126.264 138.956ZM126.264 53.2419C111.099 53.2419 98.7366 65.6046 98.7366 80.7694C98.7366 96.5936 119.671 124.286 126.264 132.528C132.693 124.286 153.792 96.5936 153.792 80.7694C153.627 65.6046 141.429 53.2419 126.264 53.2419Z" fill="black"/>
<path d="M126.263 92.4727C119.505 92.4727 114.065 87.0332 114.065 80.275C114.065 73.5167 119.505 68.0771 126.263 68.0771C133.021 68.0771 138.461 73.5167 138.461 80.275C138.461 87.0332 132.857 92.4727 126.263 92.4727ZM126.263 73.187C122.307 73.187 119.01 76.4837 119.01 80.4398C119.01 84.3958 122.307 87.6925 126.263 87.6925C130.219 87.6925 133.516 84.3958 133.516 80.4398C133.516 76.4837 130.219 73.187 126.263 73.187Z" fill="black"/>
<path d="M80.77 17.8023C80.77 27.8573 65.4403 46.4837 65.4403 46.4837C65.4403 46.4837 49.9458 28.0221 49.9458 17.8023C49.9458 9.2309 56.8689 2.47266 65.2755 2.47266C73.8469 2.47266 80.77 9.39573 80.77 17.8023Z" fill="#FF9900"/>
<path d="M65.4402 48.956C64.7808 48.956 63.9567 48.6264 63.4622 48.1319C61.8138 46.1538 47.4731 28.5165 47.4731 17.8022C47.4731 7.91209 55.5501 0 65.2753 0C75.1655 0 83.0775 8.07692 83.0775 17.8022C83.0775 28.5165 68.7369 46.1538 67.0885 48.1319C66.7589 48.6264 66.0995 48.956 65.4402 48.956ZM65.4402 4.94506C58.3523 4.94506 52.583 10.7143 52.583 17.8022C52.583 24.3956 60.66 36.2637 65.4402 42.5275C70.2204 36.2637 78.2973 24.3956 78.2973 17.8022C78.2973 10.7143 72.5281 4.94506 65.4402 4.94506Z" fill="black"/>
<path d="M65.1101 21.7584C67.386 21.7584 69.231 19.9134 69.231 17.6375C69.231 15.3616 67.386 13.5166 65.1101 13.5166C62.8342 13.5166 60.9893 15.3616 60.9893 17.6375C60.9893 19.9134 62.8342 21.7584 65.1101 21.7584Z" fill="black"/>
</svg>
