<svg width="219" height="70" viewBox="0 0 219 70" fill="none" xmlns="http://www.w3.org/2000/svg">
<rect width="219" height="70" rx="10" fill="black"/>
<path d="M75.728 16.27C76.764 16.27 77.6693 16.4707 78.444 16.872C79.228 17.264 79.83 17.8333 80.25 18.58C80.6793 19.3173 80.894 20.1807 80.894 21.17C80.894 22.1593 80.6793 23.018 80.25 23.746C79.83 24.474 79.228 25.034 78.444 25.426C77.6693 25.8087 76.764 26 75.728 26H72.55V16.27H75.728ZM75.728 24.698C76.8667 24.698 77.7393 24.39 78.346 23.774C78.9527 23.158 79.256 22.29 79.256 21.17C79.256 20.0407 78.9527 19.1587 78.346 18.524C77.7393 17.8893 76.8667 17.572 75.728 17.572H74.146V24.698H75.728ZM85.8218 26.126C85.0938 26.126 84.4358 25.9627 83.8478 25.636C83.2598 25.3 82.7978 24.8333 82.4618 24.236C82.1258 23.6293 81.9578 22.9293 81.9578 22.136C81.9578 21.352 82.1304 20.6567 82.4758 20.05C82.8211 19.4433 83.2924 18.9767 83.8898 18.65C84.4871 18.3233 85.1544 18.16 85.8918 18.16C86.6291 18.16 87.2964 18.3233 87.8938 18.65C88.4911 18.9767 88.9624 19.4433 89.3078 20.05C89.6531 20.6567 89.8258 21.352 89.8258 22.136C89.8258 22.92 89.6484 23.6153 89.2938 24.222C88.9391 24.8287 88.4538 25.3 87.8378 25.636C87.2311 25.9627 86.5591 26.126 85.8218 26.126ZM85.8218 24.74C86.2324 24.74 86.6151 24.642 86.9698 24.446C87.3338 24.25 87.6278 23.956 87.8518 23.564C88.0758 23.172 88.1878 22.696 88.1878 22.136C88.1878 21.576 88.0804 21.1047 87.8658 20.722C87.6511 20.33 87.3664 20.036 87.0118 19.84C86.6571 19.644 86.2744 19.546 85.8638 19.546C85.4531 19.546 85.0704 19.644 84.7158 19.84C84.3704 20.036 84.0951 20.33 83.8898 20.722C83.6844 21.1047 83.5818 21.576 83.5818 22.136C83.5818 22.9667 83.7918 23.6107 84.2118 24.068C84.6411 24.516 85.1778 24.74 85.8218 24.74ZM101.764 18.286L99.3695 26H97.6895L96.1355 20.302L94.5815 26H92.9015L90.4935 18.286H92.1175L93.7275 24.488L95.3655 18.286H97.0315L98.5995 24.46L100.196 18.286H101.764ZM106.848 18.16C107.455 18.16 107.996 18.286 108.472 18.538C108.958 18.79 109.336 19.1633 109.606 19.658C109.877 20.1527 110.012 20.75 110.012 21.45V26H108.43V21.688C108.43 20.9973 108.258 20.47 107.912 20.106C107.567 19.7327 107.096 19.546 106.498 19.546C105.901 19.546 105.425 19.7327 105.07 20.106C104.725 20.47 104.552 20.9973 104.552 21.688V26H102.956V18.286H104.552V19.168C104.814 18.8507 105.145 18.6033 105.546 18.426C105.957 18.2487 106.391 18.16 106.848 18.16ZM113.644 15.64V26H112.048V15.64H113.644ZM119.085 26.126C118.357 26.126 117.699 25.9627 117.111 25.636C116.523 25.3 116.061 24.8333 115.725 24.236C115.389 23.6293 115.221 22.9293 115.221 22.136C115.221 21.352 115.394 20.6567 115.739 20.05C116.085 19.4433 116.556 18.9767 117.153 18.65C117.751 18.3233 118.418 18.16 119.155 18.16C119.893 18.16 120.56 18.3233 121.157 18.65C121.755 18.9767 122.226 19.4433 122.571 20.05C122.917 20.6567 123.089 21.352 123.089 22.136C123.089 22.92 122.912 23.6153 122.557 24.222C122.203 24.8287 121.717 25.3 121.101 25.636C120.495 25.9627 119.823 26.126 119.085 26.126ZM119.085 24.74C119.496 24.74 119.879 24.642 120.233 24.446C120.597 24.25 120.891 23.956 121.115 23.564C121.339 23.172 121.451 22.696 121.451 22.136C121.451 21.576 121.344 21.1047 121.129 20.722C120.915 20.33 120.63 20.036 120.275 19.84C119.921 19.644 119.538 19.546 119.127 19.546C118.717 19.546 118.334 19.644 117.979 19.84C117.634 20.036 117.359 20.33 117.153 20.722C116.948 21.1047 116.845 21.576 116.845 22.136C116.845 22.9667 117.055 23.6107 117.475 24.068C117.905 24.516 118.441 24.74 119.085 24.74ZM124.135 22.108C124.135 21.3333 124.294 20.6473 124.611 20.05C124.938 19.4527 125.377 18.9907 125.927 18.664C126.487 18.328 127.103 18.16 127.775 18.16C128.382 18.16 128.909 18.2813 129.357 18.524C129.815 18.7573 130.179 19.0513 130.449 19.406V18.286H132.059V26H130.449V24.852C130.179 25.216 129.81 25.5193 129.343 25.762C128.877 26.0047 128.345 26.126 127.747 26.126C127.085 26.126 126.478 25.958 125.927 25.622C125.377 25.2767 124.938 24.8007 124.611 24.194C124.294 23.578 124.135 22.8827 124.135 22.108ZM130.449 22.136C130.449 21.604 130.337 21.142 130.113 20.75C129.899 20.358 129.614 20.0593 129.259 19.854C128.905 19.6487 128.522 19.546 128.111 19.546C127.701 19.546 127.318 19.6487 126.963 19.854C126.609 20.05 126.319 20.344 126.095 20.736C125.881 21.1187 125.773 21.576 125.773 22.108C125.773 22.64 125.881 23.1067 126.095 23.508C126.319 23.9093 126.609 24.2173 126.963 24.432C127.327 24.6373 127.71 24.74 128.111 24.74C128.522 24.74 128.905 24.6373 129.259 24.432C129.614 24.2267 129.899 23.928 130.113 23.536C130.337 23.1347 130.449 22.668 130.449 22.136ZM133.623 22.108C133.623 21.3333 133.782 20.6473 134.099 20.05C134.426 19.4527 134.865 18.9907 135.415 18.664C135.975 18.328 136.596 18.16 137.277 18.16C137.781 18.16 138.276 18.272 138.761 18.496C139.256 18.7107 139.648 19 139.937 19.364V15.64H141.547V26H139.937V24.838C139.676 25.2113 139.312 25.5193 138.845 25.762C138.388 26.0047 137.861 26.126 137.263 26.126C136.591 26.126 135.975 25.958 135.415 25.622C134.865 25.2767 134.426 24.8007 134.099 24.194C133.782 23.578 133.623 22.8827 133.623 22.108ZM139.937 22.136C139.937 21.604 139.825 21.142 139.601 20.75C139.387 20.358 139.102 20.0593 138.747 19.854C138.393 19.6487 138.01 19.546 137.599 19.546C137.189 19.546 136.806 19.6487 136.451 19.854C136.097 20.05 135.807 20.344 135.583 20.736C135.369 21.1187 135.261 21.576 135.261 22.108C135.261 22.64 135.369 23.1067 135.583 23.508C135.807 23.9093 136.097 24.2173 136.451 24.432C136.815 24.6373 137.198 24.74 137.599 24.74C138.01 24.74 138.393 24.6373 138.747 24.432C139.102 24.2267 139.387 23.928 139.601 23.536C139.825 23.1347 139.937 22.668 139.937 22.136ZM150.626 26.126C149.898 26.126 149.24 25.9627 148.652 25.636C148.064 25.3 147.602 24.8333 147.266 24.236C146.93 23.6293 146.762 22.9293 146.762 22.136C146.762 21.352 146.935 20.6567 147.28 20.05C147.626 19.4433 148.097 18.9767 148.694 18.65C149.292 18.3233 149.959 18.16 150.696 18.16C151.434 18.16 152.101 18.3233 152.698 18.65C153.296 18.9767 153.767 19.4433 154.112 20.05C154.458 20.6567 154.63 21.352 154.63 22.136C154.63 22.92 154.453 23.6153 154.098 24.222C153.744 24.8287 153.258 25.3 152.642 25.636C152.036 25.9627 151.364 26.126 150.626 26.126ZM150.626 24.74C151.037 24.74 151.42 24.642 151.774 24.446C152.138 24.25 152.432 23.956 152.656 23.564C152.88 23.172 152.992 22.696 152.992 22.136C152.992 21.576 152.885 21.1047 152.67 20.722C152.456 20.33 152.171 20.036 151.816 19.84C151.462 19.644 151.079 19.546 150.668 19.546C150.258 19.546 149.875 19.644 149.52 19.84C149.175 20.036 148.9 20.33 148.694 20.722C148.489 21.1047 148.386 21.576 148.386 22.136C148.386 22.9667 148.596 23.6107 149.016 24.068C149.446 24.516 149.982 24.74 150.626 24.74ZM160.1 18.16C160.707 18.16 161.248 18.286 161.724 18.538C162.21 18.79 162.588 19.1633 162.858 19.658C163.129 20.1527 163.264 20.75 163.264 21.45V26H161.682V21.688C161.682 20.9973 161.51 20.47 161.164 20.106C160.819 19.7327 160.348 19.546 159.75 19.546C159.153 19.546 158.677 19.7327 158.322 20.106C157.977 20.47 157.804 20.9973 157.804 21.688V26H156.208V18.286H157.804V19.168C158.066 18.8507 158.397 18.6033 158.798 18.426C159.209 18.2487 159.643 18.16 160.1 18.16ZM170.799 19.588V23.858C170.799 24.1473 170.864 24.3573 170.995 24.488C171.135 24.6093 171.368 24.67 171.695 24.67H172.675V26H171.415C170.696 26 170.145 25.832 169.763 25.496C169.38 25.16 169.189 24.614 169.189 23.858V19.588H168.279V18.286H169.189V16.368H170.799V18.286H172.675V19.588H170.799ZM178.136 18.16C178.724 18.16 179.246 18.286 179.704 18.538C180.17 18.79 180.534 19.1633 180.796 19.658C181.066 20.1527 181.202 20.75 181.202 21.45V26H179.62V21.688C179.62 20.9973 179.447 20.47 179.102 20.106C178.756 19.7327 178.285 19.546 177.688 19.546C177.09 19.546 176.614 19.7327 176.26 20.106C175.914 20.47 175.742 20.9973 175.742 21.688V26H174.146V15.64H175.742V19.182C176.012 18.8553 176.353 18.6033 176.764 18.426C177.184 18.2487 177.641 18.16 178.136 18.16ZM190.308 21.954C190.308 22.2433 190.289 22.5047 190.252 22.738H184.358C184.404 23.354 184.633 23.8487 185.044 24.222C185.454 24.5953 185.958 24.782 186.556 24.782C187.414 24.782 188.021 24.4227 188.376 23.704H190.097C189.864 24.4133 189.44 24.9967 188.824 25.454C188.217 25.902 187.461 26.126 186.556 26.126C185.818 26.126 185.156 25.9627 184.568 25.636C183.989 25.3 183.532 24.8333 183.196 24.236C182.869 23.6293 182.706 22.9293 182.706 22.136C182.706 21.3427 182.864 20.6473 183.182 20.05C183.508 19.4433 183.961 18.9767 184.54 18.65C185.128 18.3233 185.8 18.16 186.556 18.16C187.284 18.16 187.932 18.3187 188.502 18.636C189.071 18.9533 189.514 19.4013 189.832 19.98C190.149 20.5493 190.308 21.2073 190.308 21.954ZM188.642 21.45C188.632 20.862 188.422 20.3907 188.012 20.036C187.601 19.6813 187.092 19.504 186.486 19.504C185.935 19.504 185.464 19.6813 185.072 20.036C184.68 20.3813 184.446 20.8527 184.372 21.45H188.642Z" fill="white"/>
<path d="M84.344 48.308H76.778L75.478 52H72.384L78.858 33.904H82.29L88.764 52H85.644L84.344 48.308ZM83.512 45.89L80.574 37.492L77.61 45.89H83.512ZM94.5429 39.78C95.0456 39.1213 95.7302 38.5667 96.5969 38.116C97.4636 37.6653 98.4429 37.44 99.5349 37.44C100.783 37.44 101.918 37.752 102.941 38.376C103.981 38.9827 104.796 39.8407 105.385 40.95C105.974 42.0593 106.269 43.3333 106.269 44.772C106.269 46.2107 105.974 47.502 105.385 48.646C104.796 49.7727 103.981 50.6567 102.941 51.298C101.918 51.922 100.783 52.234 99.5349 52.234C98.4429 52.234 97.4722 52.0173 96.6229 51.584C95.7736 51.1333 95.0802 50.5787 94.5429 49.92V58.812H91.5789V37.674H94.5429V39.78ZM103.253 44.772C103.253 43.784 103.045 42.9347 102.629 42.224C102.23 41.496 101.693 40.95 101.017 40.586C100.358 40.2047 99.6476 40.014 98.8849 40.014C98.1396 40.014 97.4289 40.2047 96.7529 40.586C96.0942 40.9673 95.5569 41.522 95.1409 42.25C94.7422 42.978 94.5429 43.836 94.5429 44.824C94.5429 45.812 94.7422 46.6787 95.1409 47.424C95.5569 48.152 96.0942 48.7067 96.7529 49.088C97.4289 49.4693 98.1396 49.66 98.8849 49.66C99.6476 49.66 100.358 49.4693 101.017 49.088C101.693 48.6893 102.23 48.1173 102.629 47.372C103.045 46.6267 103.253 45.76 103.253 44.772ZM112.164 39.78C112.667 39.1213 113.351 38.5667 114.218 38.116C115.085 37.6653 116.064 37.44 117.156 37.44C118.404 37.44 119.539 37.752 120.562 38.376C121.602 38.9827 122.417 39.8407 123.006 40.95C123.595 42.0593 123.89 43.3333 123.89 44.772C123.89 46.2107 123.595 47.502 123.006 48.646C122.417 49.7727 121.602 50.6567 120.562 51.298C119.539 51.922 118.404 52.234 117.156 52.234C116.064 52.234 115.093 52.0173 114.244 51.584C113.395 51.1333 112.701 50.5787 112.164 49.92V58.812H109.2V37.674H112.164V39.78ZM120.874 44.772C120.874 43.784 120.666 42.9347 120.25 42.224C119.851 41.496 119.314 40.95 118.638 40.586C117.979 40.2047 117.269 40.014 116.506 40.014C115.761 40.014 115.05 40.2047 114.374 40.586C113.715 40.9673 113.178 41.522 112.762 42.25C112.363 42.978 112.164 43.836 112.164 44.824C112.164 45.812 112.363 46.6787 112.762 47.424C113.178 48.152 113.715 48.7067 114.374 49.088C115.05 49.4693 115.761 49.66 116.506 49.66C117.269 49.66 117.979 49.4693 118.638 49.088C119.314 48.6893 119.851 48.1173 120.25 47.372C120.666 46.6267 120.874 45.76 120.874 44.772ZM139.529 52.182C138.316 52.182 137.224 51.974 136.253 51.558C135.282 51.1247 134.52 50.518 133.965 49.738C133.41 48.958 133.133 48.048 133.133 47.008H136.305C136.374 47.788 136.678 48.4293 137.215 48.932C137.77 49.4347 138.541 49.686 139.529 49.686C140.552 49.686 141.349 49.4433 141.921 48.958C142.493 48.4553 142.779 47.814 142.779 47.034C142.779 46.4273 142.597 45.9333 142.233 45.552C141.886 45.1707 141.444 44.876 140.907 44.668C140.387 44.46 139.659 44.2347 138.723 43.992C137.544 43.68 136.582 43.368 135.837 43.056C135.109 42.7267 134.485 42.224 133.965 41.548C133.445 40.872 133.185 39.9707 133.185 38.844C133.185 37.804 133.445 36.894 133.965 36.114C134.485 35.334 135.213 34.736 136.149 34.32C137.085 33.904 138.168 33.696 139.399 33.696C141.15 33.696 142.58 34.138 143.689 35.022C144.816 35.8887 145.44 37.0847 145.561 38.61H142.285C142.233 37.9513 141.921 37.388 141.349 36.92C140.777 36.452 140.023 36.218 139.087 36.218C138.238 36.218 137.544 36.4347 137.007 36.868C136.47 37.3013 136.201 37.9253 136.201 38.74C136.201 39.2947 136.366 39.754 136.695 40.118C137.042 40.4647 137.475 40.742 137.995 40.95C138.515 41.158 139.226 41.3833 140.127 41.626C141.323 41.9553 142.294 42.2847 143.039 42.614C143.802 42.9433 144.443 43.4547 144.963 44.148C145.5 44.824 145.769 45.734 145.769 46.878C145.769 47.7967 145.518 48.6633 145.015 49.478C144.53 50.2927 143.81 50.9513 142.857 51.454C141.921 51.9393 140.812 52.182 139.529 52.182ZM152.724 40.092V48.022C152.724 48.5593 152.846 48.9493 153.088 49.192C153.348 49.4173 153.782 49.53 154.388 49.53H156.208V52H153.868C152.534 52 151.511 51.688 150.8 51.064C150.09 50.44 149.734 49.426 149.734 48.022V40.092H148.044V37.674H149.734V34.112H152.724V37.674H156.208V40.092H152.724ZM165.154 52.234C163.802 52.234 162.58 51.9307 161.488 51.324C160.396 50.7 159.538 49.8333 158.914 48.724C158.29 47.5973 157.978 46.2973 157.978 44.824C157.978 43.368 158.299 42.0767 158.94 40.95C159.582 39.8233 160.457 38.9567 161.566 38.35C162.676 37.7433 163.915 37.44 165.284 37.44C166.654 37.44 167.893 37.7433 169.002 38.35C170.112 38.9567 170.987 39.8233 171.628 40.95C172.27 42.0767 172.59 43.368 172.59 44.824C172.59 46.28 172.261 47.5713 171.602 48.698C170.944 49.8247 170.042 50.7 168.898 51.324C167.772 51.9307 166.524 52.234 165.154 52.234ZM165.154 49.66C165.917 49.66 166.628 49.478 167.286 49.114C167.962 48.75 168.508 48.204 168.924 47.476C169.34 46.748 169.548 45.864 169.548 44.824C169.548 43.784 169.349 42.9087 168.95 42.198C168.552 41.47 168.023 40.924 167.364 40.56C166.706 40.196 165.995 40.014 165.232 40.014C164.47 40.014 163.759 40.196 163.1 40.56C162.459 40.924 161.948 41.47 161.566 42.198C161.185 42.9087 160.994 43.784 160.994 44.824C160.994 46.3667 161.384 47.5627 162.164 48.412C162.962 49.244 163.958 49.66 165.154 49.66ZM178.484 39.754C178.918 39.026 179.49 38.4627 180.2 38.064C180.928 37.648 181.786 37.44 182.774 37.44V40.508H182.02C180.859 40.508 179.975 40.8027 179.368 41.392C178.779 41.9813 178.484 43.004 178.484 44.46V52H175.52V37.674H178.484V39.754ZM198.629 44.486C198.629 45.0233 198.594 45.5087 198.525 45.942H187.579C187.665 47.086 188.09 48.0047 188.853 48.698C189.615 49.3913 190.551 49.738 191.661 49.738C193.255 49.738 194.382 49.0707 195.041 47.736H198.239C197.805 49.0533 197.017 50.1367 195.873 50.986C194.746 51.818 193.342 52.234 191.661 52.234C190.291 52.234 189.061 51.9307 187.969 51.324C186.894 50.7 186.045 49.8333 185.421 48.724C184.814 47.5973 184.511 46.2973 184.511 44.824C184.511 43.3507 184.805 42.0593 185.395 40.95C186.001 39.8233 186.842 38.9567 187.917 38.35C189.009 37.7433 190.257 37.44 191.661 37.44C193.013 37.44 194.217 37.7347 195.275 38.324C196.332 38.9133 197.155 39.7453 197.745 40.82C198.334 41.8773 198.629 43.0993 198.629 44.486ZM195.535 43.55C195.517 42.458 195.127 41.5827 194.365 40.924C193.602 40.2653 192.657 39.936 191.531 39.936C190.508 39.936 189.633 40.2653 188.905 40.924C188.177 41.5653 187.743 42.4407 187.605 43.55H195.535Z" fill="white"/>
<path d="M33.8717 53.0001C27.9185 52.9658 22.9941 40.8133 22.9941 34.6243C22.9941 24.5146 30.5781 22.3014 33.5009 22.3014C34.8181 22.3014 36.2246 22.8186 37.4652 23.2764C38.3327 23.5957 39.2298 23.9253 39.7288 23.9253C40.0275 23.9253 40.7313 23.6449 41.3527 23.3989C42.678 22.8713 44.327 22.2156 46.2473 22.2156C46.2508 22.2156 46.2554 22.2156 46.2587 22.2156C47.6927 22.2156 52.0403 22.5303 54.6541 26.4556L55.2664 27.3757L54.3852 28.0406C53.1264 28.9904 50.8295 30.7231 50.8295 34.1552C50.8295 38.2201 53.4308 39.7834 54.6805 40.5353C55.2321 40.8671 55.8031 41.2093 55.8031 41.9578C55.8031 42.4464 51.903 52.9395 46.2393 52.9395C44.8534 52.9395 43.8738 52.5229 43.0098 52.1556C42.1355 51.7836 41.3812 51.4632 40.135 51.4632C39.5033 51.4632 38.7045 51.7619 37.8587 52.0789C36.703 52.5103 35.3949 53.0001 33.9106 53.0001H33.8717Z" fill="white"/>
<path d="M46.8471 13C46.9946 18.3184 43.1911 22.0081 39.3921 21.7767C38.766 17.5324 43.1907 13 46.8471 13Z" fill="white"/>
</svg>
