<svg width="200" height="60" viewBox="0 0 200 60" fill="none" xmlns="http://www.w3.org/2000/svg">
<rect width="200" height="60" rx="10" fill="#EBEDF4"/>
<path d="M40.8548 45C36.3899 44.9743 32.6966 35.8599 32.6966 31.2182C32.6966 23.6359 38.3846 21.976 40.5767 21.976C41.5646 21.976 42.6194 22.3639 43.5499 22.7072C44.2005 22.9467 44.8734 23.1939 45.2476 23.1939C45.4716 23.1939 45.9995 22.9836 46.4655 22.7991C47.4595 22.4034 48.6963 21.9116 50.1365 21.9116C50.1391 21.9116 50.1425 21.9116 50.1451 21.9116C51.2205 21.9116 54.4812 22.1476 56.4416 25.0916L56.9008 25.7817L56.2399 26.2804C55.2958 26.9928 53.5731 28.2922 53.5731 30.8663C53.5731 33.915 55.5241 35.0875 56.4613 35.6514C56.8751 35.9003 57.3033 36.1569 57.3033 36.7183C57.3033 37.0848 54.3782 44.9545 50.1305 44.9545C49.0911 44.9545 48.3564 44.6421 47.7083 44.3666C47.0526 44.0877 46.4869 43.8474 45.5522 43.8474C45.0785 43.8474 44.4793 44.0714 43.8451 44.3091C42.9783 44.6326 41.9972 45 40.884 45H40.8548Z" fill="black"/>
<path d="M50.5864 15C50.6971 18.9888 47.8444 21.7561 44.9951 21.5825C44.5256 18.3993 47.8441 15 50.5864 15Z" fill="black"/>
<path d="M75.94 18.03C76.7 18.03 77.3567 18.1733 77.91 18.46C78.47 18.74 78.8967 19.1433 79.19 19.67C79.49 20.1967 79.64 20.8167 79.64 21.53C79.64 22.2433 79.49 22.8633 79.19 23.39C78.8967 23.91 78.47 24.31 77.91 24.59C77.3567 24.8633 76.7 25 75.94 25H73.77V18.03H75.94ZM75.94 24.25C76.84 24.25 77.5267 24.0133 78 23.54C78.4733 23.06 78.71 22.39 78.71 21.53C78.71 20.6633 78.47 19.9867 77.99 19.5C77.5167 19.0133 76.8333 18.77 75.94 18.77H74.68V24.25H75.94ZM83.2303 25.09C82.717 25.09 82.2503 24.9733 81.8303 24.74C81.417 24.5067 81.0903 24.1767 80.8503 23.75C80.617 23.3167 80.5003 22.8167 80.5003 22.25C80.5003 21.69 80.6203 21.1967 80.8603 20.77C81.107 20.3367 81.4403 20.0067 81.8603 19.78C82.2803 19.5467 82.7503 19.43 83.2703 19.43C83.7903 19.43 84.2603 19.5467 84.6803 19.78C85.1003 20.0067 85.4303 20.3333 85.6703 20.76C85.917 21.1867 86.0403 21.6833 86.0403 22.25C86.0403 22.8167 85.9136 23.3167 85.6603 23.75C85.4136 24.1767 85.077 24.5067 84.6503 24.74C84.2236 24.9733 83.7503 25.09 83.2303 25.09ZM83.2303 24.29C83.557 24.29 83.8636 24.2133 84.1503 24.06C84.437 23.9067 84.667 23.6767 84.8403 23.37C85.0203 23.0633 85.1103 22.69 85.1103 22.25C85.1103 21.81 85.0236 21.4367 84.8503 21.13C84.677 20.8233 84.4503 20.5967 84.1703 20.45C83.8903 20.2967 83.587 20.22 83.2603 20.22C82.927 20.22 82.6203 20.2967 82.3403 20.45C82.067 20.5967 81.847 20.8233 81.6803 21.13C81.5136 21.4367 81.4303 21.81 81.4303 22.25C81.4303 22.6967 81.5103 23.0733 81.6703 23.38C81.837 23.6867 82.057 23.9167 82.3303 24.07C82.6036 24.2167 82.9036 24.29 83.2303 24.29ZM94.5368 19.52L92.8268 25H91.8868L90.5668 20.65L89.2468 25H88.3068L86.5868 19.52H87.5168L88.7768 24.12L90.1368 19.52H91.0668L92.3968 24.13L93.6368 19.52H94.5368ZM98.1099 19.42C98.7766 19.42 99.3166 19.6233 99.7299 20.03C100.143 20.43 100.35 21.01 100.35 21.77V25H99.4499V21.9C99.4499 21.3533 99.3133 20.9367 99.0399 20.65C98.7666 20.3567 98.3933 20.21 97.9199 20.21C97.4399 20.21 97.0566 20.36 96.7699 20.66C96.4899 20.96 96.3499 21.3967 96.3499 21.97V25H95.4399V19.52H96.3499V20.3C96.5299 20.02 96.7733 19.8033 97.0799 19.65C97.3933 19.4967 97.7366 19.42 98.1099 19.42ZM102.746 17.6V25H101.836V17.6H102.746ZM106.687 25.09C106.174 25.09 105.707 24.9733 105.287 24.74C104.874 24.5067 104.547 24.1767 104.307 23.75C104.074 23.3167 103.957 22.8167 103.957 22.25C103.957 21.69 104.077 21.1967 104.317 20.77C104.564 20.3367 104.897 20.0067 105.317 19.78C105.737 19.5467 106.207 19.43 106.727 19.43C107.247 19.43 107.717 19.5467 108.137 19.78C108.557 20.0067 108.887 20.3333 109.127 20.76C109.374 21.1867 109.497 21.6833 109.497 22.25C109.497 22.8167 109.371 23.3167 109.117 23.75C108.871 24.1767 108.534 24.5067 108.107 24.74C107.681 24.9733 107.207 25.09 106.687 25.09ZM106.687 24.29C107.014 24.29 107.321 24.2133 107.607 24.06C107.894 23.9067 108.124 23.6767 108.297 23.37C108.477 23.0633 108.567 22.69 108.567 22.25C108.567 21.81 108.481 21.4367 108.307 21.13C108.134 20.8233 107.907 20.5967 107.627 20.45C107.347 20.2967 107.044 20.22 106.717 20.22C106.384 20.22 106.077 20.2967 105.797 20.45C105.524 20.5967 105.304 20.8233 105.137 21.13C104.971 21.4367 104.887 21.81 104.887 22.25C104.887 22.6967 104.967 23.0733 105.127 23.38C105.294 23.6867 105.514 23.9167 105.787 24.07C106.061 24.2167 106.361 24.29 106.687 24.29ZM110.354 22.24C110.354 21.68 110.467 21.19 110.694 20.77C110.92 20.3433 111.23 20.0133 111.624 19.78C112.024 19.5467 112.467 19.43 112.954 19.43C113.434 19.43 113.85 19.5333 114.204 19.74C114.557 19.9467 114.82 20.2067 114.994 20.52V19.52H115.914V25H114.994V23.98C114.814 24.3 114.544 24.5667 114.184 24.78C113.83 24.9867 113.417 25.09 112.944 25.09C112.457 25.09 112.017 24.97 111.624 24.73C111.23 24.49 110.92 24.1533 110.694 23.72C110.467 23.2867 110.354 22.7933 110.354 22.24ZM114.994 22.25C114.994 21.8367 114.91 21.4767 114.744 21.17C114.577 20.8633 114.35 20.63 114.064 20.47C113.784 20.3033 113.474 20.22 113.134 20.22C112.794 20.22 112.484 20.3 112.204 20.46C111.924 20.62 111.7 20.8533 111.534 21.16C111.367 21.4667 111.284 21.8267 111.284 22.24C111.284 22.66 111.367 23.0267 111.534 23.34C111.7 23.6467 111.924 23.8833 112.204 24.05C112.484 24.21 112.794 24.29 113.134 24.29C113.474 24.29 113.784 24.21 114.064 24.05C114.35 23.8833 114.577 23.6467 114.744 23.34C114.91 23.0267 114.994 22.6633 114.994 22.25ZM117.112 22.24C117.112 21.68 117.225 21.19 117.452 20.77C117.678 20.3433 117.988 20.0133 118.382 19.78C118.782 19.5467 119.228 19.43 119.722 19.43C120.148 19.43 120.545 19.53 120.912 19.73C121.278 19.9233 121.558 20.18 121.752 20.5V17.6H122.672V25H121.752V23.97C121.572 24.2967 121.305 24.5667 120.952 24.78C120.598 24.9867 120.185 25.09 119.712 25.09C119.225 25.09 118.782 24.97 118.382 24.73C117.988 24.49 117.678 24.1533 117.452 23.72C117.225 23.2867 117.112 22.7933 117.112 22.24ZM121.752 22.25C121.752 21.8367 121.668 21.4767 121.502 21.17C121.335 20.8633 121.108 20.63 120.822 20.47C120.542 20.3033 120.232 20.22 119.892 20.22C119.552 20.22 119.242 20.3 118.962 20.46C118.682 20.62 118.458 20.8533 118.292 21.16C118.125 21.4667 118.042 21.8267 118.042 22.24C118.042 22.66 118.125 23.0267 118.292 23.34C118.458 23.6467 118.682 23.8833 118.962 24.05C119.242 24.21 119.552 24.29 119.892 24.29C120.232 24.29 120.542 24.21 120.822 24.05C121.108 23.8833 121.335 23.6467 121.502 23.34C121.668 23.0267 121.752 22.6633 121.752 22.25ZM129.265 25.09C128.752 25.09 128.285 24.9733 127.865 24.74C127.452 24.5067 127.125 24.1767 126.885 23.75C126.652 23.3167 126.535 22.8167 126.535 22.25C126.535 21.69 126.655 21.1967 126.895 20.77C127.142 20.3367 127.475 20.0067 127.895 19.78C128.315 19.5467 128.785 19.43 129.305 19.43C129.825 19.43 130.295 19.5467 130.715 19.78C131.135 20.0067 131.465 20.3333 131.705 20.76C131.952 21.1867 132.075 21.6833 132.075 22.25C132.075 22.8167 131.949 23.3167 131.695 23.75C131.449 24.1767 131.112 24.5067 130.685 24.74C130.259 24.9733 129.785 25.09 129.265 25.09ZM129.265 24.29C129.592 24.29 129.899 24.2133 130.185 24.06C130.472 23.9067 130.702 23.6767 130.875 23.37C131.055 23.0633 131.145 22.69 131.145 22.25C131.145 21.81 131.059 21.4367 130.885 21.13C130.712 20.8233 130.485 20.5967 130.205 20.45C129.925 20.2967 129.622 20.22 129.295 20.22C128.962 20.22 128.655 20.2967 128.375 20.45C128.102 20.5967 127.882 20.8233 127.715 21.13C127.549 21.4367 127.465 21.81 127.465 22.25C127.465 22.6967 127.545 23.0733 127.705 23.38C127.872 23.6867 128.092 23.9167 128.365 24.07C128.639 24.2167 128.939 24.29 129.265 24.29ZM135.942 19.42C136.609 19.42 137.149 19.6233 137.562 20.03C137.975 20.43 138.182 21.01 138.182 21.77V25H137.282V21.9C137.282 21.3533 137.145 20.9367 136.872 20.65C136.599 20.3567 136.225 20.21 135.752 20.21C135.272 20.21 134.889 20.36 134.602 20.66C134.322 20.96 134.182 21.3967 134.182 21.97V25H133.272V19.52H134.182V20.3C134.362 20.02 134.605 19.8033 134.912 19.65C135.225 19.4967 135.569 19.42 135.942 19.42ZM143.444 20.27V23.5C143.444 23.7667 143.501 23.9567 143.614 24.07C143.728 24.1767 143.924 24.23 144.204 24.23H144.874V25H144.054C143.548 25 143.168 24.8833 142.914 24.65C142.661 24.4167 142.534 24.0333 142.534 23.5V20.27H141.824V19.52H142.534V18.14H143.444V19.52H144.874V20.27H143.444ZM148.697 19.42C149.11 19.42 149.484 19.51 149.817 19.69C150.15 19.8633 150.41 20.1267 150.597 20.48C150.79 20.8333 150.887 21.2633 150.887 21.77V25H149.987V21.9C149.987 21.3533 149.85 20.9367 149.577 20.65C149.304 20.3567 148.93 20.21 148.457 20.21C147.977 20.21 147.594 20.36 147.307 20.66C147.027 20.96 146.887 21.3967 146.887 21.97V25H145.977V17.6H146.887V20.3C147.067 20.02 147.314 19.8033 147.627 19.65C147.947 19.4967 148.304 19.42 148.697 19.42ZM157.374 22.05C157.374 22.2233 157.364 22.4067 157.344 22.6H152.964C152.997 23.14 153.18 23.5633 153.514 23.87C153.854 24.17 154.264 24.32 154.744 24.32C155.137 24.32 155.464 24.23 155.724 24.05C155.99 23.8633 156.177 23.6167 156.284 23.31H157.264C157.117 23.8367 156.824 24.2667 156.384 24.6C155.944 24.9267 155.397 25.09 154.744 25.09C154.224 25.09 153.757 24.9733 153.344 24.74C152.937 24.5067 152.617 24.1767 152.384 23.75C152.15 23.3167 152.034 22.8167 152.034 22.25C152.034 21.6833 152.147 21.1867 152.374 20.76C152.6 20.3333 152.917 20.0067 153.324 19.78C153.737 19.5467 154.21 19.43 154.744 19.43C155.264 19.43 155.724 19.5433 156.124 19.77C156.524 19.9967 156.83 20.31 157.044 20.71C157.264 21.1033 157.374 21.55 157.374 22.05ZM156.434 21.86C156.434 21.5133 156.357 21.2167 156.204 20.97C156.05 20.7167 155.84 20.5267 155.574 20.4C155.314 20.2667 155.024 20.2 154.704 20.2C154.244 20.2 153.85 20.3467 153.524 20.64C153.204 20.9333 153.02 21.34 152.974 21.86H156.434Z" fill="black"/>
<path d="M82.88 40.16H77.06L76.06 43H73.68L78.66 29.08H81.3L86.28 43H83.88L82.88 40.16ZM82.24 38.3L79.98 31.84L77.7 38.3H82.24ZM90.7253 33.6C91.112 33.0933 91.6386 32.6667 92.3053 32.32C92.972 31.9733 93.7253 31.8 94.5653 31.8C95.5253 31.8 96.3986 32.04 97.1853 32.52C97.9853 32.9867 98.612 33.6467 99.0653 34.5C99.5186 35.3533 99.7453 36.3333 99.7453 37.44C99.7453 38.5467 99.5186 39.54 99.0653 40.42C98.612 41.2867 97.9853 41.9667 97.1853 42.46C96.3986 42.94 95.5253 43.18 94.5653 43.18C93.7253 43.18 92.9786 43.0133 92.3253 42.68C91.672 42.3333 91.1386 41.9067 90.7253 41.4V48.24H88.4453V31.98H90.7253V33.6ZM97.4253 37.44C97.4253 36.68 97.2653 36.0267 96.9453 35.48C96.6386 34.92 96.2253 34.5 95.7053 34.22C95.1986 33.9267 94.652 33.78 94.0653 33.78C93.492 33.78 92.9453 33.9267 92.4253 34.22C91.9186 34.5133 91.5053 34.94 91.1853 35.5C90.8786 36.06 90.7253 36.72 90.7253 37.48C90.7253 38.24 90.8786 38.9067 91.1853 39.48C91.5053 40.04 91.9186 40.4667 92.4253 40.76C92.9453 41.0533 93.492 41.2 94.0653 41.2C94.652 41.2 95.1986 41.0533 95.7053 40.76C96.2253 40.4533 96.6386 40.0133 96.9453 39.44C97.2653 38.8667 97.4253 38.2 97.4253 37.44ZM104.28 33.6C104.667 33.0933 105.193 32.6667 105.86 32.32C106.527 31.9733 107.28 31.8 108.12 31.8C109.08 31.8 109.953 32.04 110.74 32.52C111.54 32.9867 112.167 33.6467 112.62 34.5C113.073 35.3533 113.3 36.3333 113.3 37.44C113.3 38.5467 113.073 39.54 112.62 40.42C112.167 41.2867 111.54 41.9667 110.74 42.46C109.953 42.94 109.08 43.18 108.12 43.18C107.28 43.18 106.533 43.0133 105.88 42.68C105.227 42.3333 104.693 41.9067 104.28 41.4V48.24H102V31.98H104.28V33.6ZM110.98 37.44C110.98 36.68 110.82 36.0267 110.5 35.48C110.193 34.92 109.78 34.5 109.26 34.22C108.753 33.9267 108.207 33.78 107.62 33.78C107.047 33.78 106.5 33.9267 105.98 34.22C105.473 34.5133 105.06 34.94 104.74 35.5C104.433 36.06 104.28 36.72 104.28 37.48C104.28 38.24 104.433 38.9067 104.74 39.48C105.06 40.04 105.473 40.4667 105.98 40.76C106.5 41.0533 107.047 41.2 107.62 41.2C108.207 41.2 108.753 41.0533 109.26 40.76C109.78 40.4533 110.193 40.0133 110.5 39.44C110.82 38.8667 110.98 38.2 110.98 37.44ZM125.33 43.14C124.397 43.14 123.557 42.98 122.81 42.66C122.063 42.3267 121.477 41.86 121.05 41.26C120.623 40.66 120.41 39.96 120.41 39.16H122.85C122.903 39.76 123.137 40.2533 123.55 40.64C123.977 41.0267 124.57 41.22 125.33 41.22C126.117 41.22 126.73 41.0333 127.17 40.66C127.61 40.2733 127.83 39.78 127.83 39.18C127.83 38.7133 127.69 38.3333 127.41 38.04C127.143 37.7467 126.803 37.52 126.39 37.36C125.99 37.2 125.43 37.0267 124.71 36.84C123.803 36.6 123.063 36.36 122.49 36.12C121.93 35.8667 121.45 35.48 121.05 34.96C120.65 34.44 120.45 33.7467 120.45 32.88C120.45 32.08 120.65 31.38 121.05 30.78C121.45 30.18 122.01 29.72 122.73 29.4C123.45 29.08 124.283 28.92 125.23 28.92C126.577 28.92 127.677 29.26 128.53 29.94C129.397 30.6067 129.877 31.5267 129.97 32.7H127.45C127.41 32.1933 127.17 31.76 126.73 31.4C126.29 31.04 125.71 30.86 124.99 30.86C124.337 30.86 123.803 31.0267 123.39 31.36C122.977 31.6933 122.77 32.1733 122.77 32.8C122.77 33.2267 122.897 33.58 123.15 33.86C123.417 34.1267 123.75 34.34 124.15 34.5C124.55 34.66 125.097 34.8333 125.79 35.02C126.71 35.2733 127.457 35.5267 128.03 35.78C128.617 36.0333 129.11 36.4267 129.51 36.96C129.923 37.48 130.13 38.18 130.13 39.06C130.13 39.7667 129.937 40.4333 129.55 41.06C129.177 41.6867 128.623 42.1933 127.89 42.58C127.17 42.9533 126.317 43.14 125.33 43.14ZM135.48 33.84V39.94C135.48 40.3533 135.574 40.6533 135.76 40.84C135.96 41.0133 136.294 41.1 136.76 41.1H138.16V43H136.36C135.334 43 134.547 42.76 134 42.28C133.454 41.8 133.18 41.02 133.18 39.94V33.84H131.88V31.98H133.18V29.24H135.48V31.98H138.16V33.84H135.48ZM145.042 43.18C144.002 43.18 143.062 42.9467 142.222 42.48C141.382 42 140.722 41.3333 140.242 40.48C139.762 39.6133 139.522 38.6133 139.522 37.48C139.522 36.36 139.768 35.3667 140.262 34.5C140.755 33.6333 141.428 32.9667 142.282 32.5C143.135 32.0333 144.088 31.8 145.142 31.8C146.195 31.8 147.148 32.0333 148.002 32.5C148.855 32.9667 149.528 33.6333 150.022 34.5C150.515 35.3667 150.762 36.36 150.762 37.48C150.762 38.6 150.508 39.5933 150.002 40.46C149.495 41.3267 148.802 42 147.922 42.48C147.055 42.9467 146.095 43.18 145.042 43.18ZM145.042 41.2C145.628 41.2 146.175 41.06 146.682 40.78C147.202 40.5 147.622 40.08 147.942 39.52C148.262 38.96 148.422 38.28 148.422 37.48C148.422 36.68 148.268 36.0067 147.962 35.46C147.655 34.9 147.248 34.48 146.742 34.2C146.235 33.92 145.688 33.78 145.102 33.78C144.515 33.78 143.968 33.92 143.462 34.2C142.968 34.48 142.575 34.9 142.282 35.46C141.988 36.0067 141.842 36.68 141.842 37.48C141.842 38.6667 142.142 39.5867 142.742 40.24C143.355 40.88 144.122 41.2 145.042 41.2ZM155.296 33.58C155.629 33.02 156.069 32.5867 156.616 32.28C157.176 31.96 157.836 31.8 158.596 31.8V34.16H158.016C157.122 34.16 156.442 34.3867 155.976 34.84C155.522 35.2933 155.296 36.08 155.296 37.2V43H153.016V31.98H155.296V33.58ZM170.791 37.22C170.791 37.6333 170.765 38.0067 170.711 38.34H162.291C162.358 39.22 162.685 39.9267 163.271 40.46C163.858 40.9933 164.578 41.26 165.431 41.26C166.658 41.26 167.525 40.7467 168.031 39.72H170.491C170.158 40.7333 169.551 41.5667 168.671 42.22C167.805 42.86 166.725 43.18 165.431 43.18C164.378 43.18 163.431 42.9467 162.591 42.48C161.765 42 161.111 41.3333 160.631 40.48C160.165 39.6133 159.931 38.6133 159.931 37.48C159.931 36.3467 160.158 35.3533 160.611 34.5C161.078 33.6333 161.725 32.9667 162.551 32.5C163.391 32.0333 164.351 31.8 165.431 31.8C166.471 31.8 167.398 32.0267 168.211 32.48C169.025 32.9333 169.658 33.5733 170.111 34.4C170.565 35.2133 170.791 36.1533 170.791 37.22ZM168.411 36.5C168.398 35.66 168.098 34.9867 167.511 34.48C166.925 33.9733 166.198 33.72 165.331 33.72C164.545 33.72 163.871 33.9733 163.311 34.48C162.751 34.9733 162.418 35.6467 162.311 36.5H168.411Z" fill="black"/>
</svg>
