<svg width="54" height="54" viewBox="0 0 54 54" fill="none" xmlns="http://www.w3.org/2000/svg">
<rect width="54" height="54.0001" rx="27" fill="#3463FF"/>
<path fill-rule="evenodd" clip-rule="evenodd" d="M29.5455 26.0798H32.8669C33.3705 26.0798 33.7662 25.6634 33.7662 25.1613C33.7662 24.647 33.3705 24.2429 32.8669 24.2429H29.5455C29.0419 24.2429 28.6462 24.647 28.6462 25.1613C28.6462 25.6634 29.0419 26.0798 29.5455 26.0798ZM36.8119 19.713C37.5433 19.713 38.0229 19.9702 38.5026 20.5335C38.9822 21.0968 39.0661 21.905 38.9582 22.6386L37.8191 30.672C37.6033 32.2163 36.3083 33.3539 34.7855 33.3539H21.7037C20.1089 33.3539 18.7899 32.1061 18.658 30.4896L17.5549 17.1401L15.7443 16.8217C15.2647 16.736 14.9289 16.2584 15.0129 15.7685C15.0968 15.2677 15.5645 14.9358 16.0561 15.0105L18.9158 15.4501C19.3235 15.5248 19.6233 15.8665 19.6593 16.2829L19.8871 19.026C19.9231 19.4191 20.2348 19.713 20.6185 19.713H36.8119ZM21.5115 35.2896C20.5043 35.2896 19.689 36.1223 19.689 37.151C19.689 38.1674 20.5043 39.0001 21.5115 39.0001C22.5068 39.0001 23.3221 38.1674 23.3221 37.151C23.3221 36.1223 22.5068 35.2896 21.5115 35.2896ZM35.001 35.2896C33.9938 35.2896 33.1784 36.1223 33.1784 37.151C33.1784 38.1674 33.9938 39.0001 35.001 39.0001C35.9962 39.0001 36.8116 38.1674 36.8116 37.151C36.8116 36.1223 35.9962 35.2896 35.001 35.2896Z" fill="white"/>
</svg>
