<svg width="26" height="25" viewBox="0 0 26 25" fill="none" xmlns="http://www.w3.org/2000/svg">
<g clip-path="url(#clip0_1304:130)">
<path d="M12.5723 13.8728C16.4017 13.8728 19.5087 10.7659 19.5087 6.93642C19.5087 3.10694 16.4017 0 12.5723 0C8.74277 0 5.63584 3.10694 5.63584 6.93642C5.63584 10.7659 8.74277 13.8728 12.5723 13.8728ZM19.5087 15.9682H17.052C16.474 15.9682 15.9682 16.2572 15.6792 16.6908L13.9451 19.1474C13.2948 20.0867 11.8497 20.0867 11.1994 19.1474L9.53757 16.6908C9.24856 16.2572 8.67052 15.9682 8.16474 15.9682H5.63584C2.5289 15.9682 0 18.4971 0 21.6763V24.2052C0 24.6387 0.361272 25.0723 0.867052 25.0723H24.3497C24.7832 25.0723 25.2168 24.711 25.2168 24.2052V21.6763C25.1445 18.4971 22.6156 15.9682 19.5087 15.9682ZM22.2543 21.4595C22.2543 21.6763 22.1098 21.8208 21.8931 21.8208H20.5925V23.1214C20.5925 23.3382 20.448 23.4827 20.2312 23.4827H19.1474C18.9306 23.4827 18.7861 23.3382 18.7861 23.1214V21.8208H17.4855C17.2688 21.8208 17.1243 21.6763 17.1243 21.4595V20.3757C17.1243 20.159 17.2688 20.0145 17.4855 20.0145H18.7861V18.7139C18.7861 18.4971 18.9306 18.3526 19.1474 18.3526H20.2312C20.448 18.3526 20.5925 18.4971 20.5925 18.7139V20.0145H21.8931C22.1098 20.0145 22.2543 20.159 22.2543 20.3757V21.4595Z" fill="#D22020"/>
<path d="M13.4394 15.896H11.9943C11.4885 15.896 11.1273 16.3295 11.1273 16.763C11.1273 17.2688 11.5608 17.6301 11.9943 17.6301H13.4394C13.9452 17.6301 14.3064 17.1966 14.3064 16.763C14.3064 16.2573 13.8729 15.896 13.4394 15.896Z" fill="#D22020"/>
</g>
<defs>
<clipPath id="clip0_1304:130">
<rect width="25.1445" height="25" fill="white"/>
</clipPath>
</defs>
</svg>
