<svg width="26" height="15" viewBox="0 0 26 15" fill="none" xmlns="http://www.w3.org/2000/svg">
<path d="M19.1534 14.6484L25.2135 8.61567C25.669 8.16176 25.669 7.35857 25.2135 6.90306L19.1534 0.870284C18.6801 0.400282 17.9156 0.401892 17.4456 0.875113C16.9756 1.34834 16.9756 2.11128 17.4488 2.5829L21.4358 6.55377L1.20677 6.55377C0.538788 6.55377 -0.000427246 7.0946 -0.000427246 7.76097C-0.000427246 8.42735 0.538788 8.96817 1.20677 8.96817H21.4358L17.4488 12.9374C17.2122 13.174 17.0947 13.4831 17.0947 13.7937C17.0947 14.1012 17.2122 14.4102 17.4456 14.6452C17.9156 15.1168 18.6801 15.1184 19.1534 14.6484Z" fill="black"/>
</svg>
