<svg width="18" height="25" viewBox="0 0 18 25" fill="none" xmlns="http://www.w3.org/2000/svg">
<path d="M15.7068 9.35864C15.7068 9.29319 15.7068 9.22775 15.7068 9.1623C15.7068 8.76963 15.5759 8.44241 15.445 8.11518L16.1649 7.39529C16.4921 7.06806 16.623 6.67539 16.5576 6.21728L16.3613 5.10471C16.2304 4.6466 16.3613 4.25393 16.6885 3.9267L17.2775 3.3377C17.801 2.81414 17.801 2.0288 17.2775 1.50524L16.1649 0.39267C15.6414 -0.13089 14.856 -0.13089 14.3325 0.39267L13.7435 0.981675C13.4162 1.3089 13.0236 1.43979 12.5654 1.37435L11.4529 1.17801C11.0602 1.11257 10.6021 1.24346 10.2749 1.57068L4.45026 7.39529C3.9267 7.91885 3.9267 8.70419 4.45026 9.22775L8.50785 13.2853C9.03141 13.8089 9.81675 13.8089 10.3403 13.2853L12.6963 10.9293C13.0236 11.1257 13.3508 11.1911 13.7435 11.1911C14.0052 11.1911 14.267 11.1257 14.5288 11.0602C15.2487 11.911 15.7068 12.9581 15.7068 14.1361V14.7906C15.7068 17.4738 13.3508 19.699 10.4058 19.699H0.981675C0.458115 19.6335 0 20.0262 0 20.6152C0 21.2042 0.458115 21.5969 0.981675 21.5969H4.45026C3.73037 22.3168 3.27225 23.3639 3.27225 24.5419V24.7382C3.27225 24.9346 3.40314 25.0654 3.59948 25.0654H13.4162C13.6126 25.0654 13.7435 24.9346 13.7435 24.7382V24.5419C13.7435 23.2984 13.1544 22.1204 12.3037 21.3351C15.3796 20.5497 17.6702 17.8665 17.6702 14.7251V14.0707C17.6702 12.2382 16.8848 10.5366 15.7068 9.35864Z" fill="#D22020"/>
<path d="M4.31935 14.3323C4.84291 14.8559 5.62825 14.8559 6.15181 14.3323L6.47904 14.0051C6.60993 13.8742 6.60993 13.6779 6.47904 13.547L3.92668 10.9947C3.79579 10.8638 3.59946 10.8638 3.46857 10.9947L3.14134 11.3219C2.61778 11.8454 2.61778 12.6308 3.14134 13.1543L4.31935 14.3323ZM10.4712 16.3611H3.27223C2.74867 16.3611 2.29056 16.8193 2.29056 17.3428C2.29056 17.8664 2.74867 18.3245 3.27223 18.3245H10.4712C10.9947 18.3245 11.4529 17.8664 11.4529 17.3428C11.4529 16.8193 10.9947 16.3611 10.4712 16.3611Z" fill="#D22020"/>
</svg>
