<?xml version="1.0" encoding="UTF-8"?>
<!DOCTYPE svg PUBLIC "-//W3C//DTD SVG 1.1//EN" "http://www.w3.org/Graphics/SVG/1.1/DTD/svg11.dtd">
<!-- Creator: CorelDRAW -->
<svg xmlns="http://www.w3.org/2000/svg" xml:space="preserve" width="2048px" height="2048px" style="shape-rendering:geometricPrecision; text-rendering:geometricPrecision; image-rendering:optimizeQuality; fill-rule:evenodd; clip-rule:evenodd"
viewBox="0 0 2048 2048"
 xmlns:xlink="http://www.w3.org/1999/xlink">
 <defs>
  <style type="text/css">
   <![CDATA[
    .fil2 {fill:none}
    .fil4 {fill:#37474F}
    .fil1 {fill:#D32F2F}
    .fil0 {fill:#EF5350}
    .fil3 {fill:#FFAB00}
    .fil5 {fill:#FFD3B3}
    .fil6 {fill:#0277BD;fill-rule:nonzero}
   ]]>
  </style>
   <clipPath id="id0">
    <path d="M1024 0c565.539,0 1024,458.461 1024,1024 0,565.539 -458.461,1024 -1024,1024 -565.539,0 -1024,-458.461 -1024,-1024 0,-565.539 458.461,-1024 1024,-1024z"/>
   </clipPath>
 </defs>
 <g id="Layer_x0020_1">
  <metadata id="CorelCorpID_0Corel-Layer"/>
  <path class="fil0" d="M1024 0c565.539,0 1024,458.461 1024,1024 0,565.539 -458.461,1024 -1024,1024 -565.539,0 -1024,-458.461 -1024,-1024 0,-565.539 458.461,-1024 1024,-1024z"/>
  <g style="clip-path:url(#id0)">
   <g id="_341219848">
    <g>
     <path id="_3332913361" class="fil1" d="M1600.64 2182.19l0 0zm-1135.88 -1135.88l0 0z"/>
     <polygon id="_333291216" class="fil1" points="1522.41,877.811 2658.3,2013.69 2662.21,2018.32 2666.01,2023.05 2669.71,2027.86 2673.29,2032.77 2676.75,2037.77 2680.09,2042.85 2683.32,2048.01 2686.42,2053.26 2689.4,2058.59 2692.25,2063.99 2694.98,2069.48 2697.57,2075.03 2700.03,2080.66 2702.36,2086.36 2704.56,2092.13 2706.61,2097.97 2708.53,2103.87 2710.3,2109.83 2711.93,2115.85 2713.41,2121.93 2714.75,2128.07 2715.94,2134.26 2716.97,2140.51 2717.85,2146.8 2718.58,2153.15 2719.14,2159.54 2719.55,2165.97 2719.8,2172.45 2719.88,2178.97 1584,1043.08 1583.92,1036.57 1583.67,1030.09 1583.26,1023.65 1582.7,1017.26 1581.97,1010.92 1581.09,1004.62 1580.06,998.38 1578.87,992.187 1577.53,986.05 1576.05,979.97 1574.42,973.947 1572.64,967.985 1570.73,962.085 1568.68,956.251 1566.48,950.482 1564.15,944.782 1561.69,939.152 1559.1,933.595 1556.37,928.112 1553.52,922.705 1550.54,917.377 1547.44,912.129 1544.21,906.964 1540.87,901.883 1537.41,896.888 1533.83,891.981 1530.13,887.164 1526.33,882.441 "/>
     <polygon id="_333292032" class="fil1" points="1187.63,798.322 2323.52,1934.2 2324.44,1935.22 2325.38,1936.3 1189.5,800.414 1188.56,799.336 "/>
     <polygon id="_333291744" class="fil1" points="1510.03,1221.66 2645.91,2357.54 2641.58,2361.78 2637.14,2365.91 2632.61,2369.93 2627.98,2373.84 2623.25,2377.65 2618.44,2381.34 2613.53,2384.92 2608.53,2388.38 2603.45,2391.73 2598.29,2394.95 2593.04,2398.05 2587.71,2401.03 2582.31,2403.88 2576.82,2406.61 2571.27,2409.2 2565.64,2411.67 2559.94,2414 2554.17,2416.19 2548.33,2418.24 2542.43,2420.16 2536.47,2421.93 2530.45,2423.56 2524.37,2425.05 2518.23,2426.38 2512.04,2427.57 2505.79,2428.6 2499.5,2429.48 2493.16,2430.21 2486.77,2430.78 2480.33,2431.19 2473.85,2431.43 2467.34,2431.51 1331.45,1295.63 1337.97,1295.55 1344.45,1295.3 1350.88,1294.89 1357.27,1294.33 1363.62,1293.6 1369.91,1292.72 1376.16,1291.69 1382.35,1290.5 1388.49,1289.16 1394.57,1287.68 1400.59,1286.05 1406.55,1284.28 1412.45,1282.36 1418.29,1280.31 1424.05,1278.11 1429.76,1275.78 1435.38,1273.32 1440.94,1270.73 1446.42,1268 1451.83,1265.15 1457.16,1262.17 1462.41,1259.07 1467.57,1255.84 1472.65,1252.5 1477.65,1249.04 1482.56,1245.46 1487.37,1241.76 1492.09,1237.96 1496.72,1234.05 1501.26,1230.02 1505.69,1225.89 "/>
     <polygon id="_333292800" class="fil1" points="1107.28,1159.5 2243.16,2295.38 2241.71,2295.36 2240.27,2295.34 2238.82,2295.32 2237.38,2295.29 2235.93,2295.27 2234.49,2295.25 2233.04,2295.22 2231.6,2295.2 2230.15,2295.18 2228.7,2295.15 2227.26,2295.13 2225.81,2295.1 2224.37,2295.07 2222.92,2295.05 2221.48,2295.02 2220.03,2294.99 1084.15,1159.11 1085.6,1159.14 1087.04,1159.16 1088.49,1159.19 1089.93,1159.22 1091.38,1159.24 1092.82,1159.27 1094.27,1159.29 1095.71,1159.32 1097.16,1159.34 1098.61,1159.37 1100.05,1159.39 1101.5,1159.41 1102.94,1159.43 1104.39,1159.45 1105.83,1159.48 "/>
     <polygon id="_333292968" class="fil1" points="1331.45,1295.63 2467.34,2431.51 2460.82,2431.43 2454.34,2431.19 2447.9,2430.78 2441.51,2430.21 2435.17,2429.48 2428.87,2428.6 2422.63,2427.57 2416.44,2426.38 2410.3,2425.05 2404.22,2423.56 2398.2,2421.93 2392.23,2420.16 2386.34,2418.24 2380.5,2416.19 2374.73,2414 2369.03,2411.67 2363.4,2409.2 2357.84,2406.61 2352.36,2403.88 2346.95,2401.03 2341.63,2398.05 2336.38,2394.95 2331.21,2391.73 2326.13,2388.38 2321.14,2384.92 2316.23,2381.34 2311.41,2377.65 2306.69,2373.84 2302.06,2369.93 2297.53,2365.91 2293.09,2361.78 2288.75,2357.54 1152.87,1221.66 1157.21,1225.89 1161.64,1230.02 1166.18,1234.05 1170.81,1237.96 1175.53,1241.76 1180.35,1245.46 1185.26,1249.04 1190.25,1252.5 1195.33,1255.84 1200.5,1259.07 1205.75,1262.17 1211.07,1265.15 1216.48,1268 1221.96,1270.73 1227.52,1273.32 1233.15,1275.78 1238.85,1278.11 1244.62,1280.31 1250.45,1282.36 1256.35,1284.28 1262.31,1286.05 1268.34,1287.68 1274.42,1289.16 1280.56,1290.5 1286.75,1291.69 1292.99,1292.72 1299.29,1293.6 1305.63,1294.33 1312.02,1294.89 1318.46,1295.3 1324.94,1295.55 "/>
     <polygon id="_333292632" class="fil1" points="1084.15,1159.11 2220.03,2294.99 2189.14,2294.4 1053.26,1158.51 "/>
     <polygon id="_333292320" class="fil1" points="1053.26,1158.51 2189.14,2294.4 2186.79,2294.35 2184.44,2294.31 2182.09,2294.27 2179.75,2294.22 2177.4,2294.18 2175.05,2294.14 2172.7,2294.09 2170.35,2294.05 2168,2294.01 2165.66,2293.97 2163.31,2293.93 2160.96,2293.88 2158.61,2293.84 2156.26,2293.8 2153.91,2293.77 2151.57,2293.73 2149.22,2293.69 2146.87,2293.65 2144.52,2293.61 2142.17,2293.57 2139.82,2293.54 2137.48,2293.5 2135.13,2293.47 2132.78,2293.43 2130.43,2293.4 2128.08,2293.37 2125.73,2293.34 2123.39,2293.31 2121.04,2293.28 2118.69,2293.25 2116.34,2293.22 2113.99,2293.19 978.112,1157.31 980.46,1157.34 982.809,1157.37 985.157,1157.39 987.505,1157.42 989.853,1157.46 992.202,1157.49 994.55,1157.52 996.898,1157.55 999.246,1157.59 1001.6,1157.62 1003.94,1157.66 1006.29,1157.69 1008.64,1157.73 1010.99,1157.77 1013.34,1157.8 1015.69,1157.84 1018.03,1157.88 1020.38,1157.92 1022.73,1157.96 1025.08,1158 1027.43,1158.04 1029.78,1158.08 1032.12,1158.13 1034.47,1158.17 1036.82,1158.21 1039.17,1158.25 1041.52,1158.3 1043.86,1158.34 1046.21,1158.38 1048.56,1158.43 1050.91,1158.47 "/>
     <polygon id="_333292416" class="fil1" points="605.432,790.257 1741.31,1926.14 1742.84,1927.65 1744.35,1929.2 1745.84,1930.79 1747.31,1932.42 1748.75,1934.08 1750.16,1935.78 1751.56,1937.51 1752.92,1939.27 1754.25,1941.06 1755.55,1942.88 1756.82,1944.72 1758.06,1946.59 622.179,810.709 620.943,808.842 619.673,806.998 618.37,805.181 617.037,803.39 615.675,801.628 614.284,799.896 612.866,798.198 611.424,796.534 609.958,794.906 608.47,793.315 606.961,791.766 "/>
     <polygon id="_333292272" class="fil1" points="928.68,1157.37 2064.56,2293.25 2064.44,2293.25 2064.31,2293.26 2064.17,2293.26 2064.02,2293.27 2063.87,2293.27 2063.73,2293.27 2063.58,2293.27 2063.44,2293.26 927.555,1157.38 927.698,1157.38 927.845,1157.39 927.993,1157.39 928.14,1157.38 928.286,1157.38 928.425,1157.38 928.557,1157.37 "/>
     <polygon id="_333292440" class="fil1" points="602.109,1094.73 1737.99,2230.62 1736.88,2232.51 1735.72,2234.36 1734.51,2236.17 1733.25,2237.94 1731.94,2239.67 1730.59,2241.36 1729.2,2243.01 1727.76,2244.62 1726.29,2246.18 1724.78,2247.7 1723.24,2249.18 1721.66,2250.61 1720.05,2251.99 1718.41,2253.34 1716.75,2254.63 1715.05,2255.88 579.172,1120 580.864,1118.75 582.531,1117.45 584.169,1116.11 585.778,1114.73 587.356,1113.29 588.899,1111.82 590.409,1110.3 591.882,1108.74 593.314,1107.13 594.708,1105.48 596.058,1103.79 597.364,1102.06 598.624,1100.29 599.836,1098.48 600.998,1096.62 "/>
     <polygon id="_333292656" class="fil1" points="927.555,1157.38 2063.44,2293.26 1736.55,2234.92 600.665,1099.04 "/>
     <polygon id="_333292728" class="fil1" points="579.172,1120 1715.05,2255.88 1713.57,2256.92 1712.06,2257.93 1710.53,2258.9 1708.98,2259.84 1707.41,2260.74 1705.83,2261.61 1704.22,2262.44 1702.61,2263.24 1700.98,2264 1699.34,2264.72 1697.68,2265.4 1696.02,2266.05 1694.36,2266.66 1692.69,2267.22 1691.01,2267.75 1689.33,2268.24 1687.65,2268.68 1685.97,2269.09 1684.29,2269.45 1682.62,2269.77 1680.95,2270.05 1679.28,2270.29 1677.63,2270.48 1675.98,2270.63 1674.35,2270.73 1672.72,2270.79 1671.11,2270.81 1669.52,2270.77 1667.94,2270.69 1666.38,2270.57 1664.85,2270.4 1663.33,2270.18 527.446,1134.29 528.964,1134.51 530.503,1134.69 532.062,1134.81 533.64,1134.89 535.233,1134.92 536.843,1134.91 538.466,1134.85 540.101,1134.75 541.747,1134.6 543.403,1134.41 545.066,1134.17 546.736,1133.89 548.41,1133.57 550.088,1133.21 551.768,1132.8 553.448,1132.35 555.127,1131.87 556.804,1131.34 558.476,1130.77 560.143,1130.17 561.802,1129.52 563.455,1128.84 565.095,1128.12 566.725,1127.36 568.342,1126.56 569.945,1125.73 571.531,1124.86 573.1,1123.96 574.65,1123.02 576.18,1122.04 577.687,1121.04 "/>
     <polygon id="_333293520" class="fil1" points="527.446,1134.29 1663.33,2270.18 1663.31,2270.28 527.433,1134.4 "/>
     <polygon id="_333293256" class="fil1" points="527.433,1134.4 1663.31,2270.28 1652.87,2268.61 516.989,1132.73 "/>
     <polygon id="_333293664" class="fil1" points="516.989,1132.73 1652.87,2268.61 1651.23,2268.32 1649.61,2267.97 1648.01,2267.58 1646.42,2267.14 1644.86,2266.65 1643.31,2266.12 1641.79,2265.53 1640.28,2264.9 1638.79,2264.23 1637.33,2263.51 1635.88,2262.74 1634.46,2261.94 1633.06,2261.09 1631.68,2260.19 1630.32,2259.26 1628.99,2258.29 1627.68,2257.28 1626.4,2256.22 1625.14,2255.13 489.258,1119.25 490.518,1120.34 491.802,1121.39 493.111,1122.41 494.443,1123.38 495.799,1124.31 497.177,1125.2 498.578,1126.05 500.001,1126.86 501.446,1127.63 502.911,1128.34 504.397,1129.02 505.904,1129.65 507.431,1130.23 508.978,1130.77 510.544,1131.26 512.128,1131.7 513.73,1132.09 515.351,1132.43 "/>
     <polygon id="_333293712" class="fil1" points="622.179,810.709 1758.06,1946.59 1759.48,1948.82 1760.83,1951.01 1762.11,1953.18 1763.32,1955.32 1764.46,1957.45 1765.53,1959.56 1766.54,1961.65 1767.47,1963.74 1768.33,1965.82 1769.13,1967.89 1769.86,1969.96 1770.51,1972.04 1771.1,1974.12 1771.62,1976.21 1772.07,1978.31 1772.46,1980.43 636.576,844.547 636.193,842.429 635.742,840.328 635.222,838.237 634.633,836.156 633.975,834.08 633.249,832.007 632.452,829.933 631.588,827.855 630.655,825.771 629.651,823.675 628.58,821.566 627.439,819.441 626.228,817.296 624.948,815.128 623.598,812.933 "/>
     <polygon id="_333293352" class="fil1" points="978.112,1157.31 2113.99,2293.19 2112.46,2293.17 2110.93,2293.16 2109.39,2293.14 2107.85,2293.12 2106.31,2293.1 2104.77,2293.08 2103.22,2293.06 2101.68,2293.04 2100.13,2293.02 2098.58,2293 2097.03,2292.98 2095.48,2292.96 2093.93,2292.95 2092.38,2292.94 2090.82,2292.93 2089.27,2292.92 2087.72,2292.91 2086.17,2292.91 2084.61,2292.91 2083.06,2292.91 2081.51,2292.91 2079.96,2292.92 2078.41,2292.93 2076.87,2292.95 2075.32,2292.97 2073.78,2293 2072.24,2293.02 2070.7,2293.06 2069.16,2293.1 2067.62,2293.14 2066.09,2293.19 2064.56,2293.25 928.68,1157.37 930.21,1157.31 931.743,1157.26 933.278,1157.22 934.816,1157.18 936.356,1157.14 937.898,1157.11 939.441,1157.09 940.986,1157.07 942.533,1157.05 944.082,1157.04 945.631,1157.03 947.181,1157.02 948.733,1157.02 950.285,1157.02 951.837,1157.03 953.389,1157.03 954.941,1157.04 956.494,1157.05 958.046,1157.07 959.597,1157.08 961.148,1157.1 962.698,1157.12 964.247,1157.13 965.794,1157.15 967.341,1157.17 968.886,1157.19 970.429,1157.21 971.97,1157.23 973.509,1157.25 975.046,1157.27 976.58,1157.29 "/>
     <polygon id="_333293400" class="fil1" points="1189.5,800.414 2325.38,1936.3 2326.23,1937.33 2327.07,1938.38 2327.88,1939.46 2328.67,1940.55 2329.43,1941.66 2330.18,1942.78 2330.9,1943.92 2331.6,1945.07 2332.29,1946.24 2332.95,1947.42 2333.59,1948.61 2334.21,1949.8 2334.82,1951.01 2335.4,1952.22 2335.97,1953.44 2336.52,1954.66 1200.64,818.779 1200.09,817.555 1199.52,816.337 1198.94,815.125 1198.33,813.92 1197.71,812.723 1197.07,811.535 1196.41,810.358 1195.72,809.192 1195.02,808.039 1194.3,806.899 1193.55,805.775 1192.78,804.667 1192,803.574 1191.19,802.502 1190.35,801.447 "/>
     <polygon id="_333293376" class="fil1" points="1200.64,818.779 2336.52,1954.66 2336.8,1955.36 2337.08,1956.05 2337.36,1956.73 2337.64,1957.41 2337.91,1958.09 2338.19,1958.77 2338.46,1959.47 2338.74,1960.17 1202.86,824.288 1202.58,823.583 1202.31,822.89 1202.03,822.205 1201.76,821.525 1201.48,820.846 1201.2,820.164 1200.92,819.475 "/>
     <polygon id="_333293112" class="fil1" points="1202.86,824.288 2338.74,1960.17 2338.79,1960.31 2338.84,1960.45 2338.89,1960.6 2338.93,1960.74 2338.97,1960.89 2339.01,1961.05 2339.05,1961.2 2339.09,1961.36 1203.21,825.478 1203.17,825.321 1203.13,825.166 1203.09,825.012 1203.05,824.862 1203,824.715 1202.96,824.57 1202.91,824.427 "/>
     <polygon id="_333293592" class="fil1" points="1584,1043.08 2719.88,2178.97 2719.8,2185.49 2719.55,2191.96 2719.14,2198.4 2718.58,2204.79 2717.85,2211.13 2716.97,2217.43 2715.94,2223.67 2714.75,2229.86 2713.41,2236 2711.93,2242.08 2710.3,2248.1 2708.53,2254.06 2706.61,2259.96 2704.56,2265.8 2702.36,2271.57 2700.03,2277.27 2697.57,2282.9 2694.98,2288.45 2692.25,2293.94 2689.4,2299.34 2686.42,2304.67 2683.32,2309.92 2680.09,2315.09 2676.75,2320.17 2673.29,2325.16 2669.71,2330.07 2666.01,2334.89 2662.21,2339.61 2658.3,2344.24 2654.27,2348.77 2650.14,2353.21 2645.91,2357.54 1510.03,1221.66 1514.26,1217.33 1518.39,1212.89 1522.41,1208.36 1526.33,1203.73 1530.13,1199 1533.83,1194.19 1537.41,1189.28 1540.87,1184.28 1544.21,1179.2 1547.44,1174.04 1550.54,1168.79 1553.52,1163.46 1556.37,1158.06 1559.1,1152.57 1561.69,1147.01 1564.15,1141.39 1566.48,1135.69 1568.68,1129.92 1570.73,1124.08 1572.64,1118.18 1574.42,1112.22 1576.05,1106.2 1577.53,1100.12 1578.87,1093.98 1580.06,1087.79 1581.09,1081.54 1581.97,1075.25 1582.7,1068.9 1583.26,1062.51 1583.67,1056.08 1583.92,1049.6 "/>
    </g>
    <path id="_341219584" class="fil1" d="M464.755 1046.3l0 0zm866.699 -255.767c69.7359,0 132.873,28.2697 178.576,73.9701 45.7004,45.7028 73.9701,108.84 73.9701,178.578 0,69.7359 -28.2697,132.874 -73.9701,178.577 -45.7028,45.7004 -108.84,73.9701 -178.576,73.9701 -69.7406,0 -132.876,-28.2697 -178.58,-73.9701 -18.1866,-18.1878 -33.613,-39.137 -45.5953,-62.1638 -7.70906,-0.111024 -15.4193,-0.238583 -23.1284,-0.388583l-30.8929 -0.594095c-25.0465,-0.468898 -50.0965,-0.920079 -75.1453,-1.20473 -16.3228,-0.184252 -33.1276,-0.570473 -49.4315,0.056693 -0.312992,0.011811 -0.750001,0.0307087 -1.12559,0.011811l-326.889 -58.3418c0.516142,-1.41969 0.996851,-2.85355 1.44331,-4.30276 -5.7815,10.1882 -13.8461,18.7299 -22.937,25.2626 -15.7028,11.2807 -35.6516,16.9075 -51.7252,14.2973l-0.0129921 0.103937 -10.4445 -1.67126c-17.5642,-2.8441 -32.2146,-14.4012 -41.6894,-30.8209 -8.90552,-15.4394 -13.1315,-35.178 -10.5449,-55.6028l25.8319 -208.955 0.00590552 -0.114567c1.69961,-13.4705 6.14528,-25.787 12.502,-36.1122 6.85867,-11.1402 15.8504,-19.9051 26.0162,-25.3441 5.03386,-2.69173 10.5543,-4.61339 16.4539,-5.6504 5.72126,-1.00512 11.4366,-1.1126 17.0055,-0.21378l10.4469 1.6689c17.1532,2.77914 36.1595,19.0914 49.1622,39.1276 7.75276,11.9445 12.5386,22.4988 14.3965,33.8374 43.2237,1.49173 86.3115,-1.82244 128.762,-11.7638 41.5146,-9.72284 78.2339,-25.0004 116.979,-42.1772 22.3276,-9.89765 44.928,-19.7504 68.2961,-26.9433 78.6544,-24.2103 148.488,-6.47126 222.508,24.6284 6.95315,3.14528 11.3539,6.20315 16.3748,12.1228 4.62874,5.4567 8.26418,11.8311 11.1437,18.365 0.748819,1.87559 1.49291,3.60945 2.21693,5.50985 0.13937,0.364961 0.262205,0.768898 0.349607,1.18937 37.5898,-22.2012 81.4312,-34.9418 128.249,-34.9418z"/>
   </g>
  </g>
  <path class="fil2" d="M1024 0c565.539,0 1024,458.461 1024,1024 0,565.539 -458.461,1024 -1024,1024 -565.539,0 -1024,-458.461 -1024,-1024 0,-565.539 458.461,-1024 1024,-1024z"/>
  <path class="fil3" d="M1331.45 790.536c69.7359,0 132.873,28.2697 178.577,73.9701 45.7004,45.7028 73.969,108.84 73.969,178.578 0,69.7359 -28.2685,132.874 -73.969,178.578 -45.704,45.7004 -108.841,73.969 -178.577,73.969 -69.7394,0 -132.876,-28.2685 -178.58,-73.969 -45.7004,-45.704 -73.969,-108.842 -73.969,-178.578 0,-69.7382 28.2685,-132.875 73.969,-178.578 45.704,-45.7004 108.841,-73.9701 178.58,-73.9701z"/>
  <path class="fil4" d="M1402.29 1000.26c-13.1374,4.43268 -27.3721,-2.70355 -31.8059,-15.8847 -3.25158,-9.64725 -15.398,-20.9327 -39.0331,-20.9327 -18.3579,0 -29.2134,11.8961 -30.3933,23.6811 -1.52362,14.6162 11.7862,26.3386 35.5465,31.3193 56.902,11.8937 78.8233,51.6874 75.2575,85.7528 -3.19252,30.9898 -25.474,55.8532 -55.2402,64.9335l0 15.3496c0,13.8756 -11.2937,25.1776 -25.1705,25.1776 -13.8768,0 -25.1103,-11.302 -25.1103,-25.1776l0 -14.5476c-34.4977,-7.97953 -54.6248,-31.3666 -61.5709,-52.239 -4.41851,-13.135 2.69764,-27.4335 15.8398,-31.7847 13.1988,-4.43386 27.4382,2.68465 31.8685,15.8209 3.42402,10.4327 16.8768,20.9303 38.9729,20.9303 18.352,0 29.2099,-11.8476 30.391,-23.6351 1.5248,-14.6575 -11.785,-26.3835 -35.5453,-31.363 -56.902,-11.8984 -78.8292,-51.6225 -75.2587,-85.6902 3.18898,-30.991 25.4764,-55.8508 55.2367,-64.9961l0 -15.3555c0,-13.8744 11.2996,-25.1079 25.1764,-25.1079 13.8768,0 25.1705,11.2335 25.1705,25.1079l0 14.615c34.4327,7.9689 54.5646,31.3701 61.5083,52.1729 4.41496,13.2012 -2.70236,27.4406 -15.8398,31.8532z"/>
  <path class="fil5" d="M1196.79 1063.28c-0.148819,-0.00944883 -0.297638,-0.0177165 -0.444095,-0.0295276 -21.4453,-1.57087 -42.4737,-4.57678 -63.4158,-9.46772 -15.1618,-3.54095 -29.863,-8.07875 -44.8193,-12.3154 -34.8992,-9.88229 -66.0367,-16.9524 -102.28,-21.1878l-1.10079 -0.12874 -36.6473 -1.59921 14.1201 -32.0622c1.39725,-6.42875 4.14685,-12.5717 7.54489,-18.1725 12.2421,-20.1803 33.5445,-35.2453 57.0934,-38.4827 9.00827,-1.24016 18.1394,-0.565748 26.8618,2.01496 16.7244,4.95 23.387,11.2228 35.2311,22.5626 1.28858,0.648426 2.88307,0.491339 4.03937,-0.505512 27.691,-49.4552 61.4894,-106.348 109.813,-125.136 0.869292,-1.2685 0.581103,-3.13937 0.0696851,-4.47756 -0.724016,-1.9004 -1.46811,-3.63425 -2.21693,-5.50867 -2.87835,-6.53504 -6.51497,-12.9095 -11.1437,-18.3662 -5.02087,-5.91969 -9.42166,-8.97757 -16.3748,-12.1228 -74.0197,-31.0984 -143.855,-48.8374 -222.508,-24.6284 -23.3693,7.19292 -45.9685,17.0457 -68.2961,26.9433 -38.7449,17.1768 -75.4642,32.4544 -116.98,42.1772 -44.1331,10.3358 -88.9583,13.5083 -133.908,11.5642 1.54843,9.46536 1.69134,19.4032 0.297638,30.2386l-26.3658 205.158c-0.859843,6.68741 -2.45669,13.1315 -4.69489,19.2933l326.889 58.3418c0.376772,0.0200788 0.812599,0 1.12559,-0.011811 16.3039,-0.627166 33.1087,-0.240945 49.4315,-0.056693 25.0488,0.284646 50.0989,0.735827 75.1453,1.20473 10.298,0.193701 20.5961,0.393307 30.8929,0.592914 21.1583,0.413386 42.3166,0.656693 63.4784,0.840946 6.613,0.0578741 13.226,0.102756 19.8378,0.185433 4.13032,0.0507874 9.22205,-0.0637796 13.2142,0.809056l7.42796 1.62402c19.7055,0.892914 36.2764,-6.45237 46.0028,-24.1677 3.31299,-6.03071 5.413,-12.7689 6.2504,-19.5921 0.83504,-6.81142 0.432284,-13.8461 -1.31929,-20.4874 -5.42363,-20.5606 -20.3327,-32.3575 -41.4012,-34.9394l-0.851575 -0.105118z"/>
  <path class="fil6" d="M610.388 1071.52c-3.46536,20.7189 -15.8788,37.4563 -31.2166,48.4784 -15.7028,11.2807 -35.6516,16.9087 -51.7252,14.2973l-0.0141732 0.103937 -10.4433 -1.67126c-17.5642,-2.8441 -32.2146,-14.4 -41.6882,-30.8209 -8.9067,-15.4394 -13.1327,-35.178 -10.5532,-55.6052l0.00708662 0.00236221 25.8307 -208.955 0.00708662 -0.114567c1.69961,-13.4705 6.1441,-25.7882 12.5008,-36.1122 6.85867,-11.1402 15.8516,-19.9063 26.0173,-25.3441 5.03386,-2.69173 10.5543,-4.61221 16.4528,-5.6504 5.72245,-1.0063 11.4378,-1.1126 17.0067,-0.21378l10.4469 1.6689c17.1532,2.77914 36.1595,19.0902 49.1634,39.1276 12.4205,19.1362 17.2252,34.7055 14.5736,55.6512l-26.3658 205.158z"/>
 </g>
</svg>
