<svg width="184" height="184" viewBox="0 0 184 184" fill="none" xmlns="http://www.w3.org/2000/svg">
<g clip-path="url(#clip0_1306_10753)">
<path d="M163.705 14.3971C150.11 9.61043 135.176 16.5033 130.389 30.0974L119.859 59.3919L168.874 77.0069L179.405 47.7124C184.383 34.1182 177.299 19.1838 163.705 14.3971Z" fill="#2F80ED"/>
<path d="M109.328 94.2022C104.541 107.796 111.434 122.731 125.028 127.517C138.622 132.304 153.557 125.411 158.344 111.817L168.874 82.5227L119.859 64.9077L109.328 94.2022Z" fill="#DFF0F7"/>
<path d="M30.2519 75.4384C18.381 82.9056 14.7431 98.6059 22.2103 110.477L38.2936 136.133L81.3737 109.137L65.2905 83.48C57.8232 71.6091 42.1229 67.9712 30.2519 75.4384Z" fill="#FF9900"/>
<path d="M54.5682 161.79C62.0354 173.661 77.7357 177.299 89.6067 169.832C101.478 162.365 105.116 146.664 97.6483 134.793L81.3736 109.137L38.2935 136.134L54.5682 161.79Z" fill="#FBE7CF"/>
<path d="M8.8074 106.073C0.191378 92.0959 4.21219 73.9065 18.1893 65.099C31.9749 56.2915 50.3558 60.5038 58.9718 74.2894L96.6909 134.219C105.307 148.004 101.286 166.385 87.5004 175.001C73.7148 183.809 55.3339 179.596 46.7179 165.811L8.8074 106.073Z" stroke="black" stroke-width="4.5" stroke-miterlimit="10" stroke-linecap="round" stroke-linejoin="round"/>
<path d="M77.9272 104.35L27.7628 135.942" stroke="black" stroke-width="4.5" stroke-miterlimit="10" stroke-linecap="round" stroke-linejoin="round"/>
<path d="M88.6493 144.749L83.2882 168.682" stroke="black" stroke-width="4.5" stroke-miterlimit="10" stroke-linecap="round" stroke-linejoin="round" stroke-dasharray="0.24 0.24"/>
<path d="M77.7356 130.006L68.7366 170.023" stroke="black" stroke-width="4.5" stroke-miterlimit="10" stroke-linecap="round" stroke-linejoin="round" stroke-dasharray="0.24 0.24"/>
<path d="M64.3328 126.177L55.5253 164.47" stroke="black" stroke-width="4.5" stroke-miterlimit="10" stroke-linecap="round" stroke-linejoin="round" stroke-dasharray="1 1"/>
<path d="M110.477 57.4399L98.6058 90.7552C93.0532 106.264 101.286 123.113 116.604 128.474C132.113 134.027 148.962 125.794 154.323 110.476L166.194 77.1611L110.477 57.4399Z" stroke="black" stroke-width="4.5" stroke-miterlimit="10" stroke-linecap="round" stroke-linejoin="round"/>
<path d="M178.065 43.8459C183.426 28.5285 175.384 11.488 160.067 6.12687C144.749 0.765781 127.709 8.80741 122.348 24.1248L110.477 57.4401L166.385 77.1613L178.065 43.8459Z" stroke="black" stroke-width="4.5" stroke-miterlimit="10" stroke-linecap="round" stroke-linejoin="round"/>
</g>
<defs>
<clipPath id="clip0_1306_10753">
<rect width="184" height="184" fill="white"/>
</clipPath>
</defs>
</svg>
