<?xml version="1.0" encoding="utf-8"?>
<!-- Generator: Adobe Illustrator 24.0.0, SVG Export Plug-In . SVG Version: 6.00 Build 0)  -->
<svg version="1.1" id="Layer_1" xmlns="http://www.w3.org/2000/svg" xmlns:xlink="http://www.w3.org/1999/xlink" x="0px" y="0px"
	 viewBox="0 0 55 55" style="enable-background:new 0 0 55 55;" xml:space="preserve">
<style type="text/css">
	.st0{fill:#717171;}
</style>
<g>
	<path class="st0" d="M42.3,54h-4.7c-2.7-0.1-4.9-2.3-4.9-5v-7.5c0-0.8-0.7-1.5-1.5-1.5H24c-0.8,0-1.5,0.7-1.5,1.5V49
		c0,0.2,0,0.4-0.1,0.6c-0.3,2.5-2.4,4.5-5,4.5h-4.7C6.9,54,2.2,49.3,2.2,43.6V22.2c0-2.5,1.2-4.8,3.1-6.3l16-12.8
		c3.6-2.8,8.6-2.8,12.2,0L49.7,16c1.9,1.5,3.1,3.7,3.1,6.2v21.4C52.8,49.3,48.1,54,42.3,54z M31.1,36c3,0,5.5,2.5,5.5,5.5V49
		c0,0.5,0.4,1,1,1l4.7,0c3.6,0,6.5-2.9,6.5-6.4V22.2c0-1.2-0.6-2.3-1.6-3.1L31,6.2c-2.1-1.7-5.1-1.7-7.2,0l-16,12.9
		c-1,0.8-1.6,1.9-1.6,3.1v21.3c0,3.5,2.9,6.4,6.5,6.4h4.7c0.6,0,1-0.5,1-1c0-0.1,0-0.3,0-0.4v-7.1c0-3,2.5-5.5,5.5-5.5H31.1z"/>
</g>
</svg>
