<?xml version="1.0" encoding="utf-8"?>
<!-- Generator: Adobe Illustrator 24.0.0, SVG Export Plug-In . SVG Version: 6.00 Build 0)  -->
<svg version="1.1" id="Layer_1" xmlns="http://www.w3.org/2000/svg" xmlns:xlink="http://www.w3.org/1999/xlink" x="0px" y="0px"
	 viewBox="0 0 55 55" style="enable-background:new 0 0 55 55;" xml:space="preserve">
<style type="text/css">
	.st0{fill:#717171;}
</style>
<g>
	<g>
		<path class="st0" d="M27.5,29.4c-7.8,0-14.2-6.4-14.2-14.2C13.3,7.4,19.7,1,27.5,1s14.2,6.4,14.2,14.2
			C41.7,23,35.3,29.4,27.5,29.4z M27.5,5c-5.6,0-10.2,4.6-10.2,10.2c0,5.6,4.6,10.2,10.2,10.2s10.2-4.6,10.2-10.2
			C37.7,9.6,33.1,5,27.5,5z"/>
	</g>
	<g>
		<path class="st0" d="M27.5,54c-1.2,0-2.4,0-3.6-0.1c-0.7,0-1.5,0-2.3-0.2c-2.1-0.1-4.1-0.4-6.1-0.9C11.1,52,8.2,50.2,7,47.7
			c-0.5-1.1-0.8-2.2-0.8-3.4c0-1.2,0.3-2.3,0.8-3.3c1.7-3.4,6.1-4.7,8.6-5.2c2-0.4,4.1-0.7,6.2-0.9c3.8-0.3,7.7-0.3,11.5,0
			c2.1,0.1,4.2,0.4,6.2,0.9c4.5,0.9,7.4,2.7,8.6,5.2c1,2.1,1,4.6,0,6.7c-1.2,2.6-4.1,4.3-8.6,5.2c-2,0.4-4.1,0.8-6.2,0.9
			C31.3,53.9,29.4,54,27.5,54z M27.5,38.6c-1.8,0-3.6,0.1-5.4,0.2c-1.9,0.1-3.9,0.4-5.7,0.8c-3,0.6-5.2,1.8-5.8,3.1
			c-0.2,0.5-0.4,1-0.3,1.6c0,0,0,0,0,0c0,0.6,0.1,1.1,0.4,1.6c0.6,1.3,2.7,2.4,5.8,3c1.9,0.4,3.8,0.7,5.7,0.8c0.1,0,0.2,0,0.3,0
			c0.5,0.1,1.1,0.1,1.8,0.1c2.9,0.2,5.9,0.1,8.8-0.1c1.9-0.1,3.8-0.4,5.7-0.8c3.1-0.6,5.2-1.7,5.8-3c0.5-1,0.5-2.2,0-3.3
			c-0.6-1.3-2.6-2.4-5.8-3c-1.9-0.4-3.8-0.7-5.7-0.8C31.1,38.7,29.3,38.6,27.5,38.6z"/>
	</g>
</g>
</svg>
