<?xml version="1.0" encoding="utf-8"?>
<!-- Generator: Adobe Illustrator 24.0.0, SVG Export Plug-In . SVG Version: 6.00 Build 0)  -->
<svg version="1.1" id="Layer_1" xmlns="http://www.w3.org/2000/svg" xmlns:xlink="http://www.w3.org/1999/xlink" x="0px" y="0px"
	 viewBox="0 0 55 55" style="enable-background:new 0 0 55 55;" xml:space="preserve">
<style type="text/css">
	.st0{fill:#717171;}
</style>
<g>
	<g>
		<path class="st0" d="M46,25.2h-8c-4.4,0-8-3.6-8-8.1V9.1C30,4.6,33.6,1,38,1h8c4.4,0,8,3.6,8,8.1v8.1C54,21.6,50.4,25.2,46,25.2z
			 M38,5c-2.2,0-4,1.8-4,4.1v8.1c0,2.2,1.8,4.1,4,4.1h8c2.2,0,4-1.8,4-4.1V9.1C50,6.8,48.2,5,46,5H38z"/>
	</g>
	<g>
		<path class="st0" d="M17,25.2H9c-4.4,0-8-3.6-8-8.1V9.1C1,4.6,4.6,1,9,1h8c4.4,0,8,3.6,8,8.1v8.1C25,21.6,21.4,25.2,17,25.2z M9,5
			C6.8,5,5,6.8,5,9.1v8.1c0,2.2,1.8,4.1,4,4.1h8c2.2,0,4-1.8,4-4.1V9.1C21,6.8,19.2,5,17,5H9z"/>
	</g>
	<g>
		<path class="st0" d="M17,54H9c-4.4,0-8-3.6-8-8.1v-8.1c0-4.4,3.6-8.1,8-8.1h8c4.4,0,8,3.6,8,8.1v8.1C25,50.4,21.4,54,17,54z
			 M9,33.8c-2.2,0-4,1.8-4,4.1v8.1C5,48.2,6.8,50,9,50h8c2.2,0,4-1.8,4-4.1v-8.1c0-2.2-1.8-4.1-4-4.1H9z"/>
	</g>
	<g>
		<path class="st0" d="M46,54h-8c-4.4,0-8-3.6-8-8.1v-8.1c0-4.4,3.6-8.1,8-8.1h8c4.4,0,8,3.6,8,8.1v8.1C54,50.4,50.4,54,46,54z
			 M38,33.8c-2.2,0-4,1.8-4,4.1v8.1c0,2.2,1.8,4.1,4,4.1h8c2.2,0,4-1.8,4-4.1v-8.1c0-2.2-1.8-4.1-4-4.1H38z"/>
	</g>
</g>
</svg>
