<?xml version="1.0" encoding="utf-8"?>
<!-- Generator: Adobe Illustrator 24.0.0, SVG Export Plug-In . SVG Version: 6.00 Build 0)  -->
<svg version="1.1" id="Layer_1" xmlns="http://www.w3.org/2000/svg" xmlns:xlink="http://www.w3.org/1999/xlink" x="0px" y="0px"
	 viewBox="0 0 55 55" style="enable-background:new 0 0 55 55;" xml:space="preserve">
<style type="text/css">
	.st0{fill:#2F80ED;}
</style>
<path class="st0" d="M20.5,49v-7.5c0-1.9,1.6-3.5,3.5-3.5h7c0.9,0,1.8,0.4,2.5,1c0.7,0.6,1,1.5,1,2.4V49c0,0.8,0.3,1.6,0.9,2.1
	c0.6,0.6,1.3,0.9,2.1,0.9h4.8c2.2,0,4.4-0.9,6-2.4c1.6-1.6,2.5-3.7,2.5-5.9V22.3c0-1.8-0.8-3.5-2.2-4.7l-16.3-13
	c-2.8-2.3-6.9-2.2-9.7,0.2l-16,12.8c-1.5,1.1-2.3,2.8-2.4,4.7v21.3c0,4.6,3.8,8.4,8.5,8.4h4.7C19.1,52,20.4,50.7,20.5,49L20.5,49z"
	/>
</svg>
