<?xml version="1.0" encoding="utf-8"?>
<!-- Generator: Adobe Illustrator 24.0.0, SVG Export Plug-In . SVG Version: 6.00 Build 0)  -->
<svg version="1.1" id="Layer_1" xmlns="http://www.w3.org/2000/svg" xmlns:xlink="http://www.w3.org/1999/xlink" x="0px" y="0px"
	 viewBox="0 0 55 55" style="enable-background:new 0 0 55 55;" xml:space="preserve">
<style type="text/css">
	.st0{fill-rule:evenodd;clip-rule:evenodd;fill:#2F80ED;}
</style>
<path class="st0" d="M32.7,25.6h6.8c1,0,1.8-0.9,1.8-1.9c0-1.1-0.8-1.9-1.8-1.9h-6.8c-1,0-1.8,0.8-1.8,1.9
	C30.9,24.8,31.7,25.6,32.7,25.6z M47.5,12.6c1.5,0,2.5,0.5,3.5,1.7c1,1.2,1.2,2.8,0.9,4.3L49.6,35c-0.4,3.2-3.1,5.5-6.2,5.5H16.7
	c-3.3,0-5.9-2.5-6.2-5.8L8.2,7.4L4.5,6.7C3.5,6.5,2.9,5.6,3,4.6c0.2-1,1.1-1.7,2.1-1.5L11,3.9c0.8,0.2,1.4,0.9,1.5,1.7l0.5,5.6
	c0.1,0.8,0.7,1.4,1.5,1.4H47.5z M16.3,44.4c-2.1,0-3.7,1.7-3.7,3.8c0,2.1,1.7,3.8,3.7,3.8c2,0,3.7-1.7,3.7-3.8
	C20,46.1,18.3,44.4,16.3,44.4z M43.8,44.4c-2.1,0-3.7,1.7-3.7,3.8c0,2.1,1.7,3.8,3.7,3.8c2,0,3.7-1.7,3.7-3.8
	C47.5,46.1,45.9,44.4,43.8,44.4z"/>
</svg>
