<?xml version="1.0" encoding="utf-8"?>
<!-- Generator: Adobe Illustrator 24.0.0, SVG Export Plug-In . SVG Version: 6.00 Build 0)  -->
<svg version="1.1" id="Layer_1" xmlns="http://www.w3.org/2000/svg" xmlns:xlink="http://www.w3.org/1999/xlink" x="0px" y="0px"
	 viewBox="0 0 55 55" style="enable-background:new 0 0 55 55;" xml:space="preserve">
<style type="text/css">
	.st0{fill-rule:evenodd;clip-rule:evenodd;fill:#2F80ED;}
</style>
<path class="st0" d="M9.2,3h8.3c3.5,0,6.2,2.8,6.2,6.3v8.4c0,3.5-2.8,6.3-6.2,6.3H9.2c-3.4,0-6.2-2.8-6.2-6.3V9.3C3,5.8,5.8,3,9.2,3
	z M9.2,31.1h8.3c3.5,0,6.2,2.8,6.2,6.3v8.4c0,3.5-2.8,6.3-6.2,6.3H9.2C5.8,52,3,49.2,3,45.7v-8.4C3,33.9,5.8,31.1,9.2,31.1z M45.8,3
	h-8.3c-3.5,0-6.2,2.8-6.2,6.3v8.4c0,3.5,2.8,6.3,6.2,6.3h8.3c3.4,0,6.2-2.8,6.2-6.3V9.3C52,5.8,49.2,3,45.8,3z M37.5,31.1h8.3
	c3.4,0,6.2,2.8,6.2,6.3v8.4c0,3.5-2.8,6.3-6.2,6.3h-8.3c-3.5,0-6.2-2.8-6.2-6.3v-8.4C31.3,33.9,34,31.1,37.5,31.1z"/>
</svg>
