<?xml version="1.0" encoding="utf-8"?>
<!-- Generator: Adobe Illustrator 24.0.0, SVG Export Plug-In . SVG Version: 6.00 Build 0)  -->
<svg version="1.1" id="Layer_1" xmlns="http://www.w3.org/2000/svg" xmlns:xlink="http://www.w3.org/1999/xlink" x="0px" y="0px"
	 viewBox="0 0 55 55" style="enable-background:new 0 0 55 55;" xml:space="preserve">
<style type="text/css">
	.st0{fill:#717171;}
</style>
<g>
	<g>
		<path class="st0" d="M15.1,54c-2.2,0-4.1-1.8-4.1-4.1c0-2.2,1.8-4.1,4.1-4.1c2.2,0,4.1,1.8,4.1,4.1C19.2,52.2,17.4,54,15.1,54z
			 M15.1,49.9C15.1,49.9,15,49.9,15.1,49.9L15.1,49.9C15.2,49.9,15.1,49.9,15.1,49.9z"/>
	</g>
	<g>
		<path class="st0" d="M45.6,54c-2.2,0-4.1-1.8-4.1-4.1c0-2.2,1.8-4.1,4.1-4.1c2.2,0,4.1,1.8,4.1,4.1C49.6,52.2,47.8,54,45.6,54z
			 M45.6,49.9C45.5,49.9,45.5,49.9,45.6,49.9L45.6,49.9C45.6,49.9,45.6,49.9,45.6,49.9z"/>
	</g>
	<g>
		<path class="st0" d="M45.1,41.5H15.6c-3.6,0-6.6-2.8-6.9-6.3L6.2,5.7L2.1,5C1,4.8,0.3,3.7,0.5,2.7C0.7,1.6,1.7,0.8,2.8,1l5.6,1
			c0.9,0.2,1.6,0.9,1.7,1.8l0.6,7.6h38.2c1.6,0,3.2,0.7,4.3,1.9c1.1,1.2,1.5,2.9,1.3,4.5l-2.6,17.8C51.4,39,48.5,41.5,45.1,41.5z
			 M11.1,15.4l1.6,19.4c0.1,1.5,1.4,2.6,2.9,2.6h29.5c1.4,0,2.6-1.1,2.9-2.5l2.6-17.8c0.1-0.6-0.2-1.1-0.4-1.3
			c-0.2-0.2-0.6-0.6-1.2-0.6H11.1z"/>
	</g>
	<g>
		<path class="st0" d="M40.8,25.4h-7.5c-1.1,0-2-0.9-2-2s0.9-2,2-2h7.5c1.1,0,2,0.9,2,2S41.9,25.4,40.8,25.4z"/>
	</g>
</g>
</svg>
