<svg width="21" height="20" viewBox="0 0 21 20" fill="none" xmlns="http://www.w3.org/2000/svg">
<path fill-rule="evenodd" clip-rule="evenodd" d="M18.4034 7.14703L19.1239 7.8672C19.6942 8.42733 20.0044 9.1875 20.0044 9.98769C20.0144 10.7879 19.7042 11.549 19.1439 12.1182C19.1372 12.1255 19.1305 12.132 19.1239 12.1384C19.1205 12.1416 19.1172 12.1449 19.1139 12.1482L18.4034 12.8583C18.1233 13.1384 17.9632 13.5185 17.9632 13.9196V14.9488C17.9632 16.6092 16.6124 17.9605 14.9514 17.9605H13.9208C13.5205 17.9605 13.1403 18.1196 12.8601 18.3996L12.1397 19.1198C11.5494 19.7109 10.7789 20 10.0085 20C9.238 20 8.46754 19.7109 7.87719 19.1308L7.14676 18.3996C6.86659 18.1196 6.48636 17.9605 6.08613 17.9605H5.05552C3.39453 17.9605 2.04373 16.6092 2.04373 14.9488V13.9196C2.04373 13.5185 1.88363 13.1384 1.60347 12.8483L0.88304 12.1382C-0.287655 10.9689 -0.297661 9.05747 0.873034 7.8782L1.60347 7.14703C1.88363 6.86696 2.04373 6.48688 2.04373 6.07678V5.05655C2.04373 3.39616 3.39453 2.04685 5.05552 2.04685H6.08613C6.48636 2.04685 6.86659 1.88581 7.14676 1.60575L7.86718 0.885583C9.03788 -0.29369 10.949 -0.29369 12.1297 0.876581L12.8601 1.60575C13.1403 1.88581 13.5205 2.04685 13.9208 2.04685H14.9514C16.6124 2.04685 17.9632 3.39616 17.9632 5.05655V6.08778C17.9632 6.48688 18.1233 6.86696 18.4034 7.14703ZM7.4269 13.4486C7.66705 13.4486 7.88718 13.3586 8.04727 13.1885L13.1903 8.04833C13.5305 7.70825 13.5305 7.14712 13.1903 6.80704C12.8501 6.46796 12.2998 6.46796 11.9596 6.80704L6.81654 11.9482C6.47634 12.2883 6.47634 12.8484 6.81654 13.1885C6.97664 13.3586 7.19677 13.4486 7.4269 13.4486ZM11.6995 12.5685C11.6995 13.0586 12.0898 13.4487 12.5801 13.4487C13.0603 13.4487 13.4506 13.0586 13.4506 12.5685C13.4506 12.0894 13.0603 11.6983 12.5801 11.6983C12.0898 11.6983 11.6995 12.0894 11.6995 12.5685ZM7.43692 6.55673C7.9172 6.55673 8.30744 6.94682 8.30744 7.42693C8.30744 7.91804 7.9172 8.30713 7.43692 8.30713C6.95663 8.30713 6.5564 7.91804 6.5564 7.42693C6.5564 6.94682 6.95663 6.55673 7.43692 6.55673Z" fill="white"/>
</svg>
