<svg xmlns="http://www.w3.org/2000/svg" viewBox="0 0 48 48"><defs><style>.cls-1{fill:#f6ccaf;}.cls-2{fill:#edb996;}.cls-3{fill:#f16f39;}.cls-4{fill:#f8834b;}.cls-5{fill:#a87e6b;}.cls-6{fill:#be927c;}.cls-7{fill:#dad7e5;}.cls-8{fill:#edebf2;}</style></defs><title>delivery product</title><g id="delivery_product" data-name="delivery product"><path class="cls-1" d="M47,28.74c0,1.68.24,1-12.68,13.92A8,8,0,0,1,28.67,45H11V33.48C15.57,30.34,19,31,30.35,31a3,3,0,0,1,2.9,3.76l8.53-8A3,3,0,0,1,47,28.74Z"/><path class="cls-1" d="M21.6,37h8.75a3,3,0,0,0,2.9-2.24"/><path class="cls-2" d="M34.32,39.66A8,8,0,0,1,28.67,42H11v3H28.67a8,8,0,0,0,5.65-2.34C47.32,29.66,47,30.41,47,28.74a3,3,0,0,0-.42-1.5C46.27,27.77,47.26,26.72,34.32,39.66Z"/><path class="cls-2" d="M30.35,37H21.6a1,1,0,0,1,0-2h8.75a2,2,0,1,0,0-4,3,3,0,0,1,2.19,1A3,3,0,0,1,30.35,37Z"/><rect class="cls-3" x="1" y="30" width="10" height="17"/><path class="cls-4" d="M11,30c0,15.75-.1,15,0,15a7,7,0,0,1-7-7V30Z"/><rect class="cls-2" x="12" y="1" width="24" height="24"/><path class="cls-1" d="M36,1c0,23.28-.1,22,0,22C25.27,23,15,14.8,15,1Z"/><rect class="cls-5" x="20" y="1" width="8" height="6"/><path class="cls-6" d="M28,1V5H26a4,4,0,0,1-4-4Z"/><rect class="cls-7" x="16" y="17" width="6" height="4"/><path class="cls-8" d="M22,17v3H20a3,3,0,0,1-3-3Z"/><path d="M46.2,25.39a4.1,4.1,0,0,0-5.13.62L34.18,32.9A4,4,0,0,0,30.35,30c-11.74,0-14-.49-18.35,1.73V30a1,1,0,0,0-1-1H1a1,1,0,0,0-1,1V47a1,1,0,0,0,1,1H11a1,1,0,0,0,1-1V46H28.67A9,9,0,0,0,35,43.37l11.8-11.81A4,4,0,0,0,46.2,25.39ZM10,46H2V31h8ZM45.42,30.15,33.61,42a6.94,6.94,0,0,1-4.94,2H12V34a13.22,13.22,0,0,1,7.1-2c11.8,0,11.82-.25,12.67.59A2,2,0,0,1,30.35,36H21.6a1,1,0,0,0,0,2h8.75a4,4,0,0,0,3.45-2c.29-.11-.44.56,8.68-8.56A2,2,0,1,1,45.42,30.15Z"/><path d="M12,26H36a1,1,0,0,0,1-1V1a1,1,0,0,0-1-1H12a1,1,0,0,0-1,1V25A1,1,0,0,0,12,26ZM27,2V6H21V2ZM13,2h6V7a1,1,0,0,0,1,1h8a1,1,0,0,0,1-1V2h6V24H13Z"/><path d="M22,16H16a1,1,0,0,0-1,1v4a1,1,0,0,0,1,1h6a1,1,0,0,0,1-1V17A1,1,0,0,0,22,16Zm-1,4H17V18h4Z"/></g></svg>