<svg xmlns="http://www.w3.org/2000/svg" viewBox="0 0 48 48"><defs><style>.cls-1{fill:#f6ccaf;}.cls-2{fill:#ffdec7;}.cls-3{fill:#edb996;}.cls-4{fill:#fc6;}.cls-5{fill:#ffde76;}.cls-6{fill:#df8761;}.cls-7{fill:#f29b75;}.cls-8{fill:#9dcc6b;}.cls-9{fill:#b5e08c;}</style></defs><title>product packaging (packaging the product into a box)</title><g id="product_packaging_packaging_the_product_into_a_box_" data-name="product packaging (packaging the product into a box)"><polygon class="cls-1" points="17 23 11 29 1 29 7 23 17 23"/><path class="cls-2" d="M17,23l-4,4H10.66A2.34,2.34,0,0,1,9,23Z"/><polygon class="cls-3" points="17 23 17 47 7 47 7 29 11 29 17 23"/><path class="cls-1" d="M17,26V45a8,8,0,0,1-5.66-2.34C8.38,39.68,9,36.51,9,31h3Z"/><polygon class="cls-3" points="41 29 41 47 17 47 17 23 23 29 41 29"/><path class="cls-1" d="M41,31V45H39A19,19,0,0,1,20.12,28.12L23,31Z"/><polygon class="cls-1" points="47 29 23 29 17 23 41 23 47 29"/><path class="cls-2" d="M45,27H29.4a13,13,0,0,1-9.22-3.82C19.92,22.92,17.65,23,41,23Z"/><rect class="cls-4" x="17" y="5" width="22" height="18"/><path class="cls-5" d="M39,5V21H36A16,16,0,0,1,20,5Z"/><path class="cls-4" d="M17,5V23H9V12.6c1.55-1.85,1.48-1.77,3-3.6H9V5Z"/><rect class="cls-6" x="25" y="5" width="6" height="4"/><path class="cls-7" d="M31,5V8H29a3,3,0,0,1-3-3Z"/><path class="cls-8" d="M12,9,7,15,2,9H5V1H9V9Z"/><path class="cls-5" d="M17,5c0,16.82-.1,16,0,16a6,6,0,0,1-6-6V10.2L12,9H11V5Z"/><path class="cls-9" d="M12,9,8.67,13A2.67,2.67,0,0,1,6,10.33V1H9V9Z"/><path d="M47.71,28.29C40.52,21.11,41.89,22,40,22V5a1,1,0,0,0-1-1H10V1A1,1,0,0,0,9,0H5A1,1,0,0,0,4,1V8H2a1,1,0,0,0-.77,1.64C6.53,16,6.34,16,7,16a1,1,0,0,0,.77-.36C8.1,15.24,8,14.35,8,22c-.83,0-1.32-.1-1.71.29C-.17,28.76-.27,28.54.08,29.38S.83,30,6,30V47a1,1,0,0,0,1,1H41a1,1,0,0,0,1-1V30c5.27,0,5.59.2,5.92-.62A1,1,0,0,0,47.71,28.29ZM38,22H18V6h6V9a1,1,0,0,0,1,1h6a1,1,0,0,0,1-1V6h6ZM30,6V8H26V6ZM7,13.44,4.14,10H5A1,1,0,0,0,6,9V2H8V9a1,1,0,0,0,1,1h.86ZM10,13c2.93-3.51,3.26-3.63,2.91-4.38S11.92,8,10,8V6h6V22H10ZM7.41,24h7.18l-4,4H3.41ZM8,30c3.26,0,3.32.09,3.71-.29L16,25.41V46H8ZM40,46H18V25.41C22.61,30,22.43,30,23,30H40ZM23.41,28l-4-4H40.59l4,4Z"/></g></svg>