<svg width="201" height="60" viewBox="0 0 201 60" fill="none" xmlns="http://www.w3.org/2000/svg">
<rect x="0.5" width="200" height="60" rx="10" fill="#EBEDF4"/>
<path d="M70.9504 19.05C70.7571 18.6433 70.4771 18.33 70.1104 18.11C69.7437 17.8833 69.3171 17.77 68.8304 17.77C68.3437 17.77 67.9037 17.8833 67.5104 18.11C67.1237 18.33 66.8171 18.65 66.5904 19.07C66.3704 19.4833 66.2604 19.9633 66.2604 20.51C66.2604 21.0567 66.3704 21.5367 66.5904 21.95C66.8171 22.3633 67.1237 22.6833 67.5104 22.91C67.9037 23.13 68.3437 23.24 68.8304 23.24C69.5104 23.24 70.0704 23.0367 70.5104 22.63C70.9504 22.2233 71.2071 21.6733 71.2804 20.98H68.5004V20.24H72.2504V20.94C72.1971 21.5133 72.0171 22.04 71.7104 22.52C71.4037 22.9933 71.0004 23.37 70.5004 23.65C70.0004 23.9233 69.4437 24.06 68.8304 24.06C68.1837 24.06 67.5937 23.91 67.0604 23.61C66.5271 23.3033 66.1037 22.88 65.7904 22.34C65.4837 21.8 65.3304 21.19 65.3304 20.51C65.3304 19.83 65.4837 19.22 65.7904 18.68C66.1037 18.1333 66.5271 17.71 67.0604 17.41C67.5937 17.1033 68.1837 16.95 68.8304 16.95C69.5704 16.95 70.2237 17.1333 70.7904 17.5C71.3637 17.8667 71.7804 18.3833 72.0404 19.05H70.9504ZM78.4536 21.05C78.4536 21.2233 78.4436 21.4067 78.4236 21.6H74.0436C74.0769 22.14 74.2603 22.5633 74.5936 22.87C74.9336 23.17 75.3436 23.32 75.8236 23.32C76.2169 23.32 76.5436 23.23 76.8036 23.05C77.0703 22.8633 77.2569 22.6167 77.3636 22.31H78.3436C78.1969 22.8367 77.9036 23.2667 77.4636 23.6C77.0236 23.9267 76.4769 24.09 75.8236 24.09C75.3036 24.09 74.8369 23.9733 74.4236 23.74C74.0169 23.5067 73.6969 23.1767 73.4636 22.75C73.2303 22.3167 73.1136 21.8167 73.1136 21.25C73.1136 20.6833 73.2269 20.1867 73.4536 19.76C73.6803 19.3333 73.9969 19.0067 74.4036 18.78C74.8169 18.5467 75.2903 18.43 75.8236 18.43C76.3436 18.43 76.8036 18.5433 77.2036 18.77C77.6036 18.9967 77.9103 19.31 78.1236 19.71C78.3436 20.1033 78.4536 20.55 78.4536 21.05ZM77.5136 20.86C77.5136 20.5133 77.4369 20.2167 77.2836 19.97C77.1303 19.7167 76.9203 19.5267 76.6536 19.4C76.3936 19.2667 76.1036 19.2 75.7836 19.2C75.3236 19.2 74.9303 19.3467 74.6036 19.64C74.2836 19.9333 74.1003 20.34 74.0536 20.86H77.5136ZM80.7648 19.27V22.5C80.7648 22.7667 80.8214 22.9567 80.9348 23.07C81.0481 23.1767 81.2448 23.23 81.5248 23.23H82.1948V24H81.3748C80.8681 24 80.4881 23.8833 80.2348 23.65C79.9814 23.4167 79.8548 23.0333 79.8548 22.5V19.27H79.1448V18.52H79.8548V17.14H80.7648V18.52H82.1948V19.27H80.7648ZM86.4334 17.63C86.26 17.63 86.1134 17.57 85.9934 17.45C85.8734 17.33 85.8134 17.1833 85.8134 17.01C85.8134 16.8367 85.8734 16.69 85.9934 16.57C86.1134 16.45 86.26 16.39 86.4334 16.39C86.6 16.39 86.74 16.45 86.8534 16.57C86.9734 16.69 87.0334 16.8367 87.0334 17.01C87.0334 17.1833 86.9734 17.33 86.8534 17.45C86.74 17.57 86.6 17.63 86.4334 17.63ZM86.8734 18.52V24H85.9634V18.52H86.8734ZM89.5343 19.27V22.5C89.5343 22.7667 89.591 22.9567 89.7043 23.07C89.8176 23.1767 90.0143 23.23 90.2943 23.23H90.9643V24H90.1443C89.6376 24 89.2576 23.8833 89.0043 23.65C88.751 23.4167 88.6243 23.0333 88.6243 22.5V19.27H87.9143V18.52H88.6243V17.14H89.5343V18.52H90.9643V19.27H89.5343ZM97.1229 24.09C96.6096 24.09 96.1429 23.9733 95.7229 23.74C95.3096 23.5067 94.9829 23.1767 94.7429 22.75C94.5096 22.3167 94.3929 21.8167 94.3929 21.25C94.3929 20.69 94.5129 20.1967 94.7529 19.77C94.9996 19.3367 95.3329 19.0067 95.7529 18.78C96.1729 18.5467 96.6429 18.43 97.1629 18.43C97.6829 18.43 98.1529 18.5467 98.5729 18.78C98.9929 19.0067 99.3229 19.3333 99.5629 19.76C99.8096 20.1867 99.9329 20.6833 99.9329 21.25C99.9329 21.8167 99.8062 22.3167 99.5529 22.75C99.3062 23.1767 98.9696 23.5067 98.5429 23.74C98.1162 23.9733 97.6429 24.09 97.1229 24.09ZM97.1229 23.29C97.4496 23.29 97.7562 23.2133 98.0429 23.06C98.3296 22.9067 98.5596 22.6767 98.7329 22.37C98.9129 22.0633 99.0029 21.69 99.0029 21.25C99.0029 20.81 98.9162 20.4367 98.7429 20.13C98.5696 19.8233 98.3429 19.5967 98.0629 19.45C97.7829 19.2967 97.4796 19.22 97.1529 19.22C96.8196 19.22 96.5129 19.2967 96.2329 19.45C95.9596 19.5967 95.7396 19.8233 95.5729 20.13C95.4062 20.4367 95.3229 20.81 95.3229 21.25C95.3229 21.6967 95.4029 22.0733 95.5629 22.38C95.7296 22.6867 95.9496 22.9167 96.2229 23.07C96.4962 23.2167 96.7962 23.29 97.1229 23.29ZM103.799 18.42C104.466 18.42 105.006 18.6233 105.419 19.03C105.833 19.43 106.039 20.01 106.039 20.77V24H105.139V20.9C105.139 20.3533 105.003 19.9367 104.729 19.65C104.456 19.3567 104.083 19.21 103.609 19.21C103.129 19.21 102.746 19.36 102.459 19.66C102.179 19.96 102.039 20.3967 102.039 20.97V24H101.129V18.52H102.039V19.3C102.219 19.02 102.463 18.8033 102.769 18.65C103.083 18.4967 103.426 18.42 103.799 18.42Z" fill="black"/>
<path d="M76.4604 32.1C76.1004 31.4067 75.6004 30.8867 74.9604 30.54C74.3204 30.18 73.5804 30 72.7404 30C71.8204 30 71.0004 30.2067 70.2804 30.62C69.5604 31.0333 68.9937 31.62 68.5804 32.38C68.1804 33.14 67.9804 34.02 67.9804 35.02C67.9804 36.02 68.1804 36.9067 68.5804 37.68C68.9937 38.44 69.5604 39.0267 70.2804 39.44C71.0004 39.8533 71.8204 40.06 72.7404 40.06C73.9804 40.06 74.9871 39.7133 75.7604 39.02C76.5337 38.3267 77.0071 37.3867 77.1804 36.2H71.9604V34.38H79.6204V36.16C79.4737 37.24 79.0871 38.2333 78.4604 39.14C77.8471 40.0467 77.0404 40.7733 76.0404 41.32C75.0537 41.8533 73.9537 42.12 72.7404 42.12C71.4337 42.12 70.2404 41.82 69.1604 41.22C68.0804 40.6067 67.2204 39.76 66.5804 38.68C65.9537 37.6 65.6404 36.38 65.6404 35.02C65.6404 33.66 65.9537 32.44 66.5804 31.36C67.2204 30.28 68.0804 29.44 69.1604 28.84C70.2537 28.2267 71.4471 27.92 72.7404 27.92C74.2204 27.92 75.5337 28.2867 76.6804 29.02C77.8404 29.74 78.6804 30.7667 79.2004 32.1H76.4604ZM86.6491 42.18C85.6091 42.18 84.6691 41.9467 83.8291 41.48C82.9891 41 82.3291 40.3333 81.8491 39.48C81.3691 38.6133 81.1291 37.6133 81.1291 36.48C81.1291 35.36 81.3758 34.3667 81.8691 33.5C82.3625 32.6333 83.0358 31.9667 83.8891 31.5C84.7425 31.0333 85.6958 30.8 86.7491 30.8C87.8025 30.8 88.7558 31.0333 89.6091 31.5C90.4625 31.9667 91.1358 32.6333 91.6291 33.5C92.1225 34.3667 92.3691 35.36 92.3691 36.48C92.3691 37.6 92.1158 38.5933 91.6091 39.46C91.1025 40.3267 90.4091 41 89.5291 41.48C88.6625 41.9467 87.7025 42.18 86.6491 42.18ZM86.6491 40.2C87.2358 40.2 87.7825 40.06 88.2891 39.78C88.8091 39.5 89.2291 39.08 89.5491 38.52C89.8691 37.96 90.0291 37.28 90.0291 36.48C90.0291 35.68 89.8758 35.0067 89.5691 34.46C89.2625 33.9 88.8558 33.48 88.3491 33.2C87.8425 32.92 87.2958 32.78 86.7091 32.78C86.1225 32.78 85.5758 32.92 85.0691 33.2C84.5758 33.48 84.1825 33.9 83.8891 34.46C83.5958 35.0067 83.4491 35.68 83.4491 36.48C83.4491 37.6667 83.7491 38.5867 84.3491 39.24C84.9625 39.88 85.7291 40.2 86.6491 40.2ZM99.403 42.18C98.363 42.18 97.423 41.9467 96.583 41.48C95.743 41 95.083 40.3333 94.603 39.48C94.123 38.6133 93.883 37.6133 93.883 36.48C93.883 35.36 94.1297 34.3667 94.623 33.5C95.1164 32.6333 95.7897 31.9667 96.643 31.5C97.4964 31.0333 98.4497 30.8 99.503 30.8C100.556 30.8 101.51 31.0333 102.363 31.5C103.216 31.9667 103.89 32.6333 104.383 33.5C104.876 34.3667 105.123 35.36 105.123 36.48C105.123 37.6 104.87 38.5933 104.363 39.46C103.856 40.3267 103.163 41 102.283 41.48C101.416 41.9467 100.456 42.18 99.403 42.18ZM99.403 40.2C99.9897 40.2 100.536 40.06 101.043 39.78C101.563 39.5 101.983 39.08 102.303 38.52C102.623 37.96 102.783 37.28 102.783 36.48C102.783 35.68 102.63 35.0067 102.323 34.46C102.016 33.9 101.61 33.48 101.103 33.2C100.596 32.92 100.05 32.78 99.463 32.78C98.8764 32.78 98.3297 32.92 97.823 33.2C97.3297 33.48 96.9364 33.9 96.643 34.46C96.3497 35.0067 96.203 35.68 96.203 36.48C96.203 37.6667 96.503 38.5867 97.103 39.24C97.7164 39.88 98.483 40.2 99.403 40.2ZM111.817 30.8C112.67 30.8 113.424 30.9733 114.077 31.32C114.744 31.6533 115.264 32.0733 115.637 32.58V30.98H117.937V42.18C117.937 43.1933 117.724 44.0933 117.297 44.88C116.87 45.68 116.25 46.3067 115.437 46.76C114.637 47.2133 113.677 47.44 112.557 47.44C111.064 47.44 109.824 47.0867 108.837 46.38C107.85 45.6867 107.29 44.74 107.157 43.54H109.417C109.59 44.1133 109.957 44.5733 110.517 44.92C111.09 45.28 111.77 45.46 112.557 45.46C113.477 45.46 114.217 45.18 114.777 44.62C115.35 44.06 115.637 43.2467 115.637 42.18V40.34C115.25 40.86 114.724 41.3 114.057 41.66C113.404 42.0067 112.657 42.18 111.817 42.18C110.857 42.18 109.977 41.94 109.177 41.46C108.39 40.9667 107.764 40.2867 107.297 39.42C106.844 38.54 106.617 37.5467 106.617 36.44C106.617 35.3333 106.844 34.3533 107.297 33.5C107.764 32.6467 108.39 31.9867 109.177 31.52C109.977 31.04 110.857 30.8 111.817 30.8ZM115.637 36.48C115.637 35.72 115.477 35.06 115.157 34.5C114.85 33.94 114.444 33.5133 113.937 33.22C113.43 32.9267 112.884 32.78 112.297 32.78C111.71 32.78 111.164 32.9267 110.657 33.22C110.15 33.5 109.737 33.92 109.417 34.48C109.11 35.0267 108.957 35.68 108.957 36.44C108.957 37.2 109.11 37.8667 109.417 38.44C109.737 39.0133 110.15 39.4533 110.657 39.76C111.177 40.0533 111.724 40.2 112.297 40.2C112.884 40.2 113.43 40.0533 113.937 39.76C114.444 39.4667 114.85 39.04 115.157 38.48C115.477 37.9067 115.637 37.24 115.637 36.48ZM123.212 27.2V42H120.932V27.2H123.212ZM136.305 36.22C136.305 36.6333 136.278 37.0067 136.225 37.34H127.805C127.872 38.22 128.198 38.9267 128.785 39.46C129.372 39.9933 130.092 40.26 130.945 40.26C132.172 40.26 133.038 39.7467 133.545 38.72H136.005C135.672 39.7333 135.065 40.5667 134.185 41.22C133.318 41.86 132.238 42.18 130.945 42.18C129.892 42.18 128.945 41.9467 128.105 41.48C127.278 41 126.625 40.3333 126.145 39.48C125.678 38.6133 125.445 37.6133 125.445 36.48C125.445 35.3467 125.672 34.3533 126.125 33.5C126.592 32.6333 127.238 31.9667 128.065 31.5C128.905 31.0333 129.865 30.8 130.945 30.8C131.985 30.8 132.912 31.0267 133.725 31.48C134.538 31.9333 135.172 32.5733 135.625 33.4C136.078 34.2133 136.305 35.1533 136.305 36.22ZM133.925 35.5C133.912 34.66 133.612 33.9867 133.025 33.48C132.438 32.9733 131.712 32.72 130.845 32.72C130.058 32.72 129.385 32.9733 128.825 33.48C128.265 33.9733 127.932 34.6467 127.825 35.5H133.925ZM153.464 32.24C153.464 32.9467 153.297 33.6133 152.964 34.24C152.631 34.8667 152.097 35.38 151.364 35.78C150.631 36.1667 149.691 36.36 148.544 36.36H146.024V42H143.744V28.1H148.544C149.611 28.1 150.511 28.2867 151.244 28.66C151.991 29.02 152.544 29.5133 152.904 30.14C153.277 30.7667 153.464 31.4667 153.464 32.24ZM148.544 34.5C149.411 34.5 150.057 34.3067 150.484 33.92C150.911 33.52 151.124 32.96 151.124 32.24C151.124 30.72 150.264 29.96 148.544 29.96H146.024V34.5H148.544ZM157.919 27.2V42H155.639V27.2H157.919ZM160.152 36.44C160.152 35.3333 160.379 34.3533 160.832 33.5C161.299 32.6467 161.925 31.9867 162.712 31.52C163.512 31.04 164.392 30.8 165.352 30.8C166.219 30.8 166.972 30.9733 167.612 31.32C168.265 31.6533 168.785 32.0733 169.172 32.58V30.98H171.472V42H169.172V40.36C168.785 40.88 168.259 41.3133 167.592 41.66C166.925 42.0067 166.165 42.18 165.312 42.18C164.365 42.18 163.499 41.94 162.712 41.46C161.925 40.9667 161.299 40.2867 160.832 39.42C160.379 38.54 160.152 37.5467 160.152 36.44ZM169.172 36.48C169.172 35.72 169.012 35.06 168.692 34.5C168.385 33.94 167.979 33.5133 167.472 33.22C166.965 32.9267 166.419 32.78 165.832 32.78C165.245 32.78 164.699 32.9267 164.192 33.22C163.685 33.5 163.272 33.92 162.952 34.48C162.645 35.0267 162.492 35.68 162.492 36.44C162.492 37.2 162.645 37.8667 162.952 38.44C163.272 39.0133 163.685 39.4533 164.192 39.76C164.712 40.0533 165.259 40.2 165.832 40.2C166.419 40.2 166.965 40.0533 167.472 39.76C167.979 39.4667 168.385 39.04 168.692 38.48C169.012 37.9067 169.172 37.24 169.172 36.48ZM184.387 30.98L177.627 47.18H175.267L177.507 41.82L173.167 30.98H175.707L178.807 39.38L182.027 30.98H184.387Z" fill="black"/>
<path d="M36.2878 29.8028L23.3899 42.7007C22.7733 42.1175 22.44 41.3176 22.44 40.4511V20.221C22.44 19.3378 22.7899 18.5379 23.4232 17.938L36.2878 29.8028Z" fill="#2196F3"/>
<path d="M47.4363 30.3355C47.4363 31.502 46.8031 32.5351 45.7532 33.1184L42.0872 35.1514L37.5379 30.952L36.2881 29.8022L41.104 24.9863L45.7532 27.5526C46.8031 28.1358 47.4363 29.169 47.4363 30.3355Z" fill="#FFC107"/>
<path d="M36.2879 29.8025L23.4233 17.9377C23.5899 17.771 23.8066 17.6211 24.0232 17.4878C25.073 16.8545 26.3395 16.8379 27.4226 17.4378L41.1038 24.9866L36.2879 29.8025Z" fill="#4CAF50"/>
<path d="M42.0866 35.1514L27.4223 43.2334C26.9057 43.5334 26.3225 43.6667 25.7559 43.6667C25.156 43.6667 24.5561 43.5167 24.0228 43.1835C23.7895 43.0501 23.5729 42.8835 23.3896 42.7002L36.2875 29.8022L37.5373 30.9521L42.0866 35.1514Z" fill="#F44336"/>
</svg>
