<svg width="237" height="70" viewBox="0 0 237 70" fill="none" xmlns="http://www.w3.org/2000/svg">
<rect width="237" height="70" rx="10" fill="black"/>
<path d="M75.092 19.07C74.84 18.5847 74.49 18.2207 74.042 17.978C73.594 17.726 73.076 17.6 72.488 17.6C71.844 17.6 71.27 17.7447 70.766 18.034C70.262 18.3233 69.8653 18.734 69.576 19.266C69.296 19.798 69.156 20.414 69.156 21.114C69.156 21.814 69.296 22.4347 69.576 22.976C69.8653 23.508 70.262 23.9187 70.766 24.208C71.27 24.4973 71.844 24.642 72.488 24.642C73.356 24.642 74.0607 24.3993 74.602 23.914C75.1433 23.4287 75.4747 22.7707 75.596 21.94H71.942V20.666H77.304V21.912C77.2013 22.668 76.9307 23.3633 76.492 23.998C76.0627 24.6327 75.498 25.1413 74.798 25.524C74.1073 25.8973 73.3373 26.084 72.488 26.084C71.5733 26.084 70.738 25.874 69.982 25.454C69.226 25.0247 68.624 24.432 68.176 23.676C67.7373 22.92 67.518 22.066 67.518 21.114C67.518 20.162 67.7373 19.308 68.176 18.552C68.624 17.796 69.226 17.208 69.982 16.788C70.7473 16.3587 71.5827 16.144 72.488 16.144C73.524 16.144 74.4433 16.4007 75.246 16.914C76.058 17.418 76.646 18.1367 77.01 19.07H75.092ZM85.9481 21.954C85.9481 22.2433 85.9295 22.5047 85.8921 22.738H79.9981C80.0448 23.354 80.2735 23.8487 80.6841 24.222C81.0948 24.5953 81.5988 24.782 82.1961 24.782C83.0548 24.782 83.6615 24.4227 84.0161 23.704H85.7381C85.5048 24.4133 85.0801 24.9967 84.4641 25.454C83.8575 25.902 83.1015 26.126 82.1961 26.126C81.4588 26.126 80.7961 25.9627 80.2081 25.636C79.6295 25.3 79.1721 24.8333 78.8361 24.236C78.5095 23.6293 78.3461 22.9293 78.3461 22.136C78.3461 21.3427 78.5048 20.6473 78.8221 20.05C79.1488 19.4433 79.6015 18.9767 80.1801 18.65C80.7681 18.3233 81.4401 18.16 82.1961 18.16C82.9241 18.16 83.5728 18.3187 84.1421 18.636C84.7115 18.9533 85.1548 19.4013 85.4721 19.98C85.7895 20.5493 85.9481 21.2073 85.9481 21.954ZM84.2821 21.45C84.2728 20.862 84.0628 20.3907 83.6521 20.036C83.2415 19.6813 82.7328 19.504 82.1261 19.504C81.5755 19.504 81.1041 19.6813 80.7121 20.036C80.3201 20.3813 80.0868 20.8527 80.0121 21.45H84.2821ZM89.3808 19.588V23.858C89.3808 24.1473 89.4461 24.3573 89.5768 24.488C89.7168 24.6093 89.9501 24.67 90.2768 24.67H91.2568V26H89.9968C89.2781 26 88.7274 25.832 88.3448 25.496C87.9621 25.16 87.7708 24.614 87.7708 23.858V19.588H86.8608V18.286H87.7708V16.368H89.3808V18.286H91.2568V19.588H89.3808ZM97.1765 17.264C96.8871 17.264 96.6445 17.166 96.4485 16.97C96.2525 16.774 96.1545 16.5313 96.1545 16.242C96.1545 15.9527 96.2525 15.71 96.4485 15.514C96.6445 15.318 96.8871 15.22 97.1765 15.22C97.4565 15.22 97.6945 15.318 97.8905 15.514C98.0865 15.71 98.1845 15.9527 98.1845 16.242C98.1845 16.5313 98.0865 16.774 97.8905 16.97C97.6945 17.166 97.4565 17.264 97.1765 17.264ZM97.9605 18.286V26H96.3645V18.286H97.9605ZM101.918 19.588V23.858C101.918 24.1473 101.983 24.3573 102.114 24.488C102.254 24.6093 102.487 24.67 102.814 24.67H103.794V26H102.534C101.815 26 101.265 25.832 100.882 25.496C100.499 25.16 100.308 24.614 100.308 23.858V19.588H99.3979V18.286H100.308V16.368H101.918V18.286H103.794V19.588H101.918ZM112.248 26.126C111.52 26.126 110.862 25.9627 110.274 25.636C109.686 25.3 109.224 24.8333 108.888 24.236C108.552 23.6293 108.384 22.9293 108.384 22.136C108.384 21.352 108.556 20.6567 108.902 20.05C109.247 19.4433 109.718 18.9767 110.316 18.65C110.913 18.3233 111.58 18.16 112.318 18.16C113.055 18.16 113.722 18.3233 114.32 18.65C114.917 18.9767 115.388 19.4433 115.734 20.05C116.079 20.6567 116.252 21.352 116.252 22.136C116.252 22.92 116.074 23.6153 115.72 24.222C115.365 24.8287 114.88 25.3 114.264 25.636C113.657 25.9627 112.985 26.126 112.248 26.126ZM112.248 24.74C112.658 24.74 113.041 24.642 113.396 24.446C113.76 24.25 114.054 23.956 114.278 23.564C114.502 23.172 114.614 22.696 114.614 22.136C114.614 21.576 114.506 21.1047 114.292 20.722C114.077 20.33 113.792 20.036 113.438 19.84C113.083 19.644 112.7 19.546 112.29 19.546C111.879 19.546 111.496 19.644 111.142 19.84C110.796 20.036 110.521 20.33 110.316 20.722C110.11 21.1047 110.008 21.576 110.008 22.136C110.008 22.9667 110.218 23.6107 110.638 24.068C111.067 24.516 111.604 24.74 112.248 24.74ZM121.721 18.16C122.328 18.16 122.869 18.286 123.345 18.538C123.831 18.79 124.209 19.1633 124.479 19.658C124.75 20.1527 124.885 20.75 124.885 21.45V26H123.303V21.688C123.303 20.9973 123.131 20.47 122.785 20.106C122.44 19.7327 121.969 19.546 121.371 19.546C120.774 19.546 120.298 19.7327 119.943 20.106C119.598 20.47 119.425 20.9973 119.425 21.688V26H117.829V18.286H119.425V19.168C119.687 18.8507 120.018 18.6033 120.419 18.426C120.83 18.2487 121.264 18.16 121.721 18.16Z" fill="white"/>
<path d="M82.028 39.13C81.56 38.2287 80.91 37.5527 80.078 37.102C79.246 36.634 78.284 36.4 77.192 36.4C75.996 36.4 74.93 36.6687 73.994 37.206C73.058 37.7433 72.3213 38.506 71.784 39.494C71.264 40.482 71.004 41.626 71.004 42.926C71.004 44.226 71.264 45.3787 71.784 46.384C72.3213 47.372 73.058 48.1347 73.994 48.672C74.93 49.2093 75.996 49.478 77.192 49.478C78.804 49.478 80.1127 49.0273 81.118 48.126C82.1233 47.2247 82.7387 46.0027 82.964 44.46H76.178V42.094H86.136V44.408C85.9453 45.812 85.4427 47.1033 84.628 48.282C83.8307 49.4607 82.782 50.4053 81.482 51.116C80.1993 51.8093 78.7693 52.156 77.192 52.156C75.4933 52.156 73.942 51.766 72.538 50.986C71.134 50.1887 70.016 49.088 69.184 47.684C68.3693 46.28 67.962 44.694 67.962 42.926C67.962 41.158 68.3693 39.572 69.184 38.168C70.016 36.764 71.134 35.672 72.538 34.892C73.9593 34.0947 75.5107 33.696 77.192 33.696C79.116 33.696 80.8233 34.1727 82.314 35.126C83.822 36.062 84.914 37.3967 85.59 39.13H82.028ZM95.2734 52.234C93.9214 52.234 92.6994 51.9307 91.6074 51.324C90.5154 50.7 89.6574 49.8333 89.0334 48.724C88.4094 47.5973 88.0974 46.2973 88.0974 44.824C88.0974 43.368 88.418 42.0767 89.0594 40.95C89.7007 39.8233 90.576 38.9567 91.6854 38.35C92.7947 37.7433 94.034 37.44 95.4034 37.44C96.7727 37.44 98.012 37.7433 99.1214 38.35C100.231 38.9567 101.106 39.8233 101.747 40.95C102.389 42.0767 102.709 43.368 102.709 44.824C102.709 46.28 102.38 47.5713 101.721 48.698C101.063 49.8247 100.161 50.7 99.0174 51.324C97.8907 51.9307 96.6427 52.234 95.2734 52.234ZM95.2734 49.66C96.036 49.66 96.7467 49.478 97.4054 49.114C98.0814 48.75 98.6274 48.204 99.0434 47.476C99.4594 46.748 99.6674 45.864 99.6674 44.824C99.6674 43.784 99.468 42.9087 99.0694 42.198C98.6707 41.47 98.142 40.924 97.4834 40.56C96.8247 40.196 96.114 40.014 95.3514 40.014C94.5887 40.014 93.878 40.196 93.2194 40.56C92.578 40.924 92.0667 41.47 91.6854 42.198C91.304 42.9087 91.1134 43.784 91.1134 44.824C91.1134 46.3667 91.5034 47.5627 92.2834 48.412C93.0807 49.244 94.0774 49.66 95.2734 49.66ZM111.853 52.234C110.501 52.234 109.279 51.9307 108.187 51.324C107.095 50.7 106.237 49.8333 105.613 48.724C104.989 47.5973 104.677 46.2973 104.677 44.824C104.677 43.368 104.998 42.0767 105.639 40.95C106.281 39.8233 107.156 38.9567 108.265 38.35C109.375 37.7433 110.614 37.44 111.983 37.44C113.353 37.44 114.592 37.7433 115.701 38.35C116.811 38.9567 117.686 39.8233 118.327 40.95C118.969 42.0767 119.289 43.368 119.289 44.824C119.289 46.28 118.96 47.5713 118.301 48.698C117.643 49.8247 116.741 50.7 115.597 51.324C114.471 51.9307 113.223 52.234 111.853 52.234ZM111.853 49.66C112.616 49.66 113.327 49.478 113.985 49.114C114.661 48.75 115.207 48.204 115.623 47.476C116.039 46.748 116.247 45.864 116.247 44.824C116.247 43.784 116.048 42.9087 115.649 42.198C115.251 41.47 114.722 40.924 114.063 40.56C113.405 40.196 112.694 40.014 111.931 40.014C111.169 40.014 110.458 40.196 109.799 40.56C109.158 40.924 108.647 41.47 108.265 42.198C107.884 42.9087 107.693 43.784 107.693 44.824C107.693 46.3667 108.083 47.5627 108.863 48.412C109.661 49.244 110.657 49.66 111.853 49.66ZM127.992 37.44C129.101 37.44 130.08 37.6653 130.93 38.116C131.796 38.5493 132.472 39.0953 132.958 39.754V37.674H135.948V52.234C135.948 53.5513 135.67 54.7213 135.116 55.744C134.561 56.784 133.755 57.5987 132.698 58.188C131.658 58.7773 130.41 59.072 128.954 59.072C127.012 59.072 125.4 58.6127 124.118 57.694C122.835 56.7927 122.107 55.562 121.934 54.002H124.872C125.097 54.7473 125.574 55.3453 126.302 55.796C127.047 56.264 127.931 56.498 128.954 56.498C130.15 56.498 131.112 56.134 131.84 55.406C132.585 54.678 132.958 53.6207 132.958 52.234V49.842C132.455 50.518 131.77 51.09 130.904 51.558C130.054 52.0087 129.084 52.234 127.992 52.234C126.744 52.234 125.6 51.922 124.56 51.298C123.537 50.6567 122.722 49.7727 122.116 48.646C121.526 47.502 121.232 46.2107 121.232 44.772C121.232 43.3333 121.526 42.0593 122.116 40.95C122.722 39.8407 123.537 38.9827 124.56 38.376C125.6 37.752 126.744 37.44 127.992 37.44ZM132.958 44.824C132.958 43.836 132.75 42.978 132.334 42.25C131.935 41.522 131.406 40.9673 130.748 40.586C130.089 40.2047 129.378 40.014 128.616 40.014C127.853 40.014 127.142 40.2047 126.484 40.586C125.825 40.95 125.288 41.496 124.872 42.224C124.473 42.9347 124.274 43.784 124.274 44.772C124.274 45.76 124.473 46.6267 124.872 47.372C125.288 48.1173 125.825 48.6893 126.484 49.088C127.16 49.4693 127.87 49.66 128.616 49.66C129.378 49.66 130.089 49.4693 130.748 49.088C131.406 48.7067 131.935 48.152 132.334 47.424C132.75 46.6787 132.958 45.812 132.958 44.824ZM142.805 32.76V52H139.841V32.76H142.805ZM159.826 44.486C159.826 45.0233 159.791 45.5087 159.722 45.942H148.776C148.863 47.086 149.287 48.0047 150.05 48.698C150.813 49.3913 151.749 49.738 152.858 49.738C154.453 49.738 155.579 49.0707 156.238 47.736H159.436C159.003 49.0533 158.214 50.1367 157.07 50.986C155.943 51.818 154.539 52.234 152.858 52.234C151.489 52.234 150.258 51.9307 149.166 51.324C148.091 50.7 147.242 49.8333 146.618 48.724C146.011 47.5973 145.708 46.2973 145.708 44.824C145.708 43.3507 146.003 42.0593 146.592 40.95C147.199 39.8233 148.039 38.9567 149.114 38.35C150.206 37.7433 151.454 37.44 152.858 37.44C154.21 37.44 155.415 37.7347 156.472 38.324C157.529 38.9133 158.353 39.7453 158.942 40.82C159.531 41.8773 159.826 43.0993 159.826 44.486ZM156.732 43.55C156.715 42.458 156.325 41.5827 155.562 40.924C154.799 40.2653 153.855 39.936 152.728 39.936C151.705 39.936 150.83 40.2653 150.102 40.924C149.374 41.5653 148.941 42.4407 148.802 43.55H156.732ZM182.133 39.312C182.133 40.2307 181.916 41.0973 181.483 41.912C181.05 42.7267 180.356 43.394 179.403 43.914C178.45 44.4167 177.228 44.668 175.737 44.668H172.461V52H169.497V33.93H175.737C177.124 33.93 178.294 34.1727 179.247 34.658C180.218 35.126 180.937 35.7673 181.405 36.582C181.89 37.3967 182.133 38.3067 182.133 39.312ZM175.737 42.25C176.864 42.25 177.704 41.9987 178.259 41.496C178.814 40.976 179.091 40.248 179.091 39.312C179.091 37.336 177.973 36.348 175.737 36.348H172.461V42.25H175.737ZM187.924 32.76V52H184.96V32.76H187.924ZM190.827 44.772C190.827 43.3333 191.122 42.0593 191.711 40.95C192.318 39.8407 193.133 38.9827 194.155 38.376C195.195 37.752 196.339 37.44 197.587 37.44C198.714 37.44 199.693 37.6653 200.525 38.116C201.375 38.5493 202.051 39.0953 202.553 39.754V37.674H205.543V52H202.553V49.868C202.051 50.544 201.366 51.1073 200.499 51.558C199.633 52.0087 198.645 52.234 197.535 52.234C196.305 52.234 195.178 51.922 194.155 51.298C193.133 50.6567 192.318 49.7727 191.711 48.646C191.122 47.502 190.827 46.2107 190.827 44.772ZM202.553 44.824C202.553 43.836 202.345 42.978 201.929 42.25C201.531 41.522 201.002 40.9673 200.343 40.586C199.685 40.2047 198.974 40.014 198.211 40.014C197.449 40.014 196.738 40.2047 196.079 40.586C195.421 40.95 194.883 41.496 194.467 42.224C194.069 42.9347 193.869 43.784 193.869 44.772C193.869 45.76 194.069 46.6267 194.467 47.372C194.883 48.1173 195.421 48.6893 196.079 49.088C196.755 49.4693 197.466 49.66 198.211 49.66C198.974 49.66 199.685 49.4693 200.343 49.088C201.002 48.7067 201.531 48.152 201.929 47.424C202.345 46.6787 202.553 45.812 202.553 44.824ZM222.332 37.674L213.544 58.734H210.476L213.388 51.766L207.746 37.674H211.048L215.078 48.594L219.264 37.674H222.332Z" fill="white"/>
<path d="M40.1819 33.2039L20.8349 52.5508C19.9101 51.676 19.4102 50.4762 19.4102 49.1764V18.8312C19.4102 17.5064 19.9351 16.3066 20.8849 15.4067L40.1819 33.2039Z" fill="#2196F3"/>
<path d="M56.9044 34.0035C56.9044 35.7532 55.9545 37.3029 54.3798 38.1778L48.8807 41.2273L42.0567 34.9283L40.182 33.2036L47.4059 25.9797L54.3798 29.8291C55.9545 30.704 56.9044 32.2537 56.9044 34.0035Z" fill="#FFC107"/>
<path d="M40.1819 33.2037L20.885 15.4065C21.135 15.1566 21.4599 14.9316 21.7849 14.7316C23.3596 13.7818 25.2593 13.7568 26.8841 14.6567L47.4058 25.9799L40.1819 33.2037Z" fill="#4CAF50"/>
<path d="M48.8802 41.2271L26.8837 53.3502C26.1088 53.8001 25.234 54.0001 24.3841 54.0001C23.4842 54.0001 22.5844 53.7751 21.7845 53.2752C21.4346 53.0752 21.1096 52.8253 20.8347 52.5503L40.1816 33.2034L42.0563 34.9281L48.8802 41.2271Z" fill="#F44336"/>
</svg>
