<svg width="258" height="188" viewBox="0 0 258 188" fill="none" xmlns="http://www.w3.org/2000/svg">
<g clip-path="url(#clip0_2162_560)">
<path d="M128.628 188C171.973 188 207.111 181.562 207.111 173.621C207.111 165.68 171.973 159.243 128.628 159.243C85.2833 159.243 50.1452 165.68 50.1452 173.621C50.1452 181.562 85.2833 188 128.628 188Z" fill="#87DDFF" fill-opacity="0.13"/>
<path d="M189.752 53.6201C189.512 49.9057 187.116 46.6106 183.761 44.993C166.926 37.0248 159.677 27.499 159.677 27.499C158.478 28.218 157.28 29.0567 156.142 29.8955C158.718 31.5131 161.714 33.1306 165.009 34.7482C168.364 36.3658 170.94 39.601 171 43.3754C171.419 67.3996 128.583 79.9809 128.583 79.9809C128.104 82.3773 127.924 83.7553 127.924 83.7553C182.742 78.0638 190.351 62.6667 189.752 53.6201Z" fill="#FFC000"/>
<path d="M189.737 53.6201C189.497 49.9057 187.101 46.6106 183.746 44.993C166.911 37.0248 159.662 27.499 159.662 27.499C158.464 28.218 157.266 29.0567 156.127 29.8955C158.703 31.513 161.699 33.1306 164.994 34.7482C168.349 36.3658 170.925 39.601 170.985 43.3754C171.045 46.311 170.446 49.0669 169.367 51.6431C173.082 51.8827 176.137 53.74 177.695 57.6941C179.193 61.4085 178.474 65.3027 176.018 68.478C173.142 72.3123 168.708 75.0682 163.976 77.0453C186.382 69.856 190.156 60.0905 189.737 53.6201Z" fill="#F0B400"/>
<path d="M183.746 44.993C183.387 44.8132 183.087 44.6934 182.788 44.5137C182.608 44.4538 182.428 44.334 182.248 44.2741C181.709 44.0344 181.23 43.7349 180.691 43.4952C180.691 43.4952 180.631 43.4952 180.631 43.4353C180.151 43.1957 179.672 42.956 179.193 42.6565C179.013 42.5965 178.893 42.4767 178.714 42.4168C178.414 42.2371 178.055 42.0574 177.755 41.8776C177.575 41.7578 177.396 41.638 177.216 41.5781C176.916 41.3983 176.677 41.2785 176.377 41.0988C176.197 40.979 176.018 40.8591 175.838 40.7393C175.598 40.5596 175.359 40.4398 175.059 40.26C174.879 40.1402 174.7 40.0204 174.52 39.9006C174.28 39.7807 174.041 39.601 173.801 39.4812C173.621 39.3614 173.441 39.2415 173.262 39.1217C173.022 39.0019 172.842 38.8222 172.603 38.7023C172.423 38.5825 172.243 38.4627 172.064 38.3429C171.824 38.2231 171.644 38.0433 171.464 37.9235C171.285 37.8037 171.105 37.6839 170.985 37.564C170.805 37.4442 170.566 37.2645 170.386 37.1447C170.206 37.0248 170.086 36.905 169.907 36.7852C169.727 36.6654 169.547 36.4856 169.308 36.3658C169.188 36.246 169.008 36.1262 168.888 36.0663C168.709 35.9465 168.529 35.7667 168.349 35.6469C168.229 35.5271 168.05 35.4672 167.93 35.3473C167.75 35.2275 167.57 35.0478 167.39 34.928C167.271 34.8081 167.151 34.7482 167.031 34.6284C166.851 34.5086 166.672 34.3289 166.492 34.209C166.372 34.1491 166.252 34.0293 166.192 33.9694C166.013 33.7897 165.833 33.6698 165.653 33.4901C165.593 33.4302 165.473 33.3703 165.413 33.2505C164.934 32.8311 164.455 32.4117 163.976 31.9923C163.916 31.9324 163.856 31.8725 163.736 31.7527C163.616 31.6329 163.436 31.5131 163.317 31.3932C163.257 31.3333 163.137 31.2135 163.077 31.1536C162.957 31.0338 162.837 30.9139 162.717 30.854C162.658 30.7941 162.538 30.6743 162.478 30.6144C162.358 30.4946 162.298 30.4347 162.178 30.3148C162.118 30.2549 162.058 30.195 161.939 30.0752C161.819 29.9554 161.759 29.8955 161.699 29.7756C161.639 29.7157 161.579 29.6558 161.519 29.5959C161.459 29.536 161.34 29.4162 161.28 29.3563C161.22 29.2963 161.16 29.2364 161.1 29.1765C161.04 29.1166 160.98 29.0567 160.92 28.9369C160.86 28.877 160.8 28.8171 160.74 28.7572C160.68 28.6972 160.621 28.6373 160.561 28.5774C160.501 28.5175 160.501 28.4576 160.441 28.4576C160.381 28.3977 160.321 28.3378 160.321 28.2779C160.261 28.218 160.261 28.218 160.201 28.158C160.141 28.0981 160.141 28.0382 160.081 28.0382C160.021 27.9783 160.021 27.9783 159.962 27.9184C159.902 27.8585 159.902 27.8585 159.842 27.7986L159.782 27.7387C159.722 27.6788 159.722 27.6788 159.722 27.6188C159.722 27.6188 159.722 27.5589 159.662 27.5589L159.602 27.499C133.481 43.3754 127.849 83.7553 127.849 83.7553C157.625 44.993 179.612 45.2326 185.723 46.311C185.124 45.7718 184.465 45.3524 183.746 44.993Z" fill="#FFCF3C"/>
<path d="M151.454 33.8496C148.219 36.9649 145.343 40.4397 142.947 44.0943C143.247 44.3939 154.03 54.1593 155.948 55.7769C158.104 54.2791 160.141 53.021 162.118 51.9426C161.459 50.7444 152.712 35.6469 151.454 33.8496Z" fill="#FFD657"/>
<path d="M148.579 36.8451C147.081 38.5226 145.643 40.26 144.385 42.0573C146.482 44.0943 156.127 52.0624 158.883 53.8598C159.063 53.7399 159.243 53.6201 159.422 53.5003C155.348 48.2282 151.394 42.8961 148.579 36.8451Z" fill="#FFDD73"/>
<path d="M78.9055 58.5927C79.0853 55.4774 81.0623 52.7215 83.8781 51.4034C97.9571 44.7533 103.948 36.7852 103.948 36.7852C104.967 37.3843 105.925 38.0433 106.884 38.7623C104.727 40.1402 102.271 41.4582 99.4549 42.7763C96.6391 44.0943 94.5422 46.8502 94.4823 49.9656C94.1229 70.0357 129.89 80.52 129.89 80.52C130.309 82.4971 130.489 83.6953 130.489 83.6953C84.7169 79.0223 78.3663 66.2014 78.9055 58.5927Z" fill="#FFC000"/>
<path d="M78.9024 58.5927C79.0821 55.4774 81.0592 52.7215 83.875 51.4034C97.954 44.7533 103.945 36.7852 103.945 36.7852C104.964 37.3843 105.922 38.0433 106.881 38.7623C104.724 40.1402 102.268 41.4582 99.4518 42.7763C96.6359 44.0943 94.5391 46.8502 94.4792 49.9656C94.4193 52.4219 94.8985 54.6985 95.7972 56.8553C92.7417 57.035 90.1656 58.6526 88.8476 61.8878C87.6493 65.0032 88.1885 68.2384 90.2255 70.8744C92.6219 74.0497 96.3364 76.3862 100.231 78.0038C81.6583 72.1326 78.483 64.0446 78.9024 58.5927Z" fill="#F0B400"/>
<path d="M83.875 51.4633C84.1746 51.3435 84.4142 51.2237 84.7138 51.0439C84.8336 50.984 85.0133 50.9241 85.1331 50.8642C85.5525 50.6246 86.0318 50.4448 86.4512 50.2052H86.5111C86.9305 49.9655 87.2899 49.7858 87.7093 49.5462C87.8291 49.4863 87.9489 49.4263 88.1287 49.3065C88.3683 49.1867 88.6679 49.007 88.9075 48.8871C89.0872 48.8272 89.2071 48.7074 89.3868 48.6475C89.6264 48.5277 89.8661 48.4079 90.0458 48.2281C90.2255 48.1083 90.3454 48.0484 90.5251 47.9286C90.7647 47.8088 90.9445 47.6889 91.1242 47.5691C91.3039 47.4493 91.4238 47.3894 91.6035 47.2696C91.7832 47.1497 92.0229 47.0299 92.2026 46.9101C92.3823 46.7903 92.5022 46.7304 92.6819 46.6105C92.8616 46.4907 93.0414 46.3709 93.2211 46.2511C93.3409 46.1313 93.5206 46.0713 93.6405 45.9515C93.8202 45.8317 93.9999 45.7119 94.1797 45.5921C94.2995 45.4722 94.4792 45.4123 94.599 45.2925C94.7788 45.1727 94.9585 45.0529 95.0783 44.933C95.1981 44.8132 95.318 44.7533 95.4378 44.6335C95.6175 44.5137 95.7373 44.3938 95.9171 44.274C96.0369 44.1542 96.1567 44.0943 96.2765 43.9745C96.4563 43.8546 96.5761 43.7348 96.7558 43.615C96.8756 43.5551 96.9955 43.4353 97.1153 43.3754C97.295 43.2555 97.4148 43.1357 97.5347 43.0159C97.6545 42.956 97.7144 42.8362 97.8342 42.7763C97.954 42.6564 98.1338 42.5366 98.2536 42.4168C98.3734 42.3569 98.4333 42.2371 98.5531 42.1771C98.7329 42.0573 98.8527 41.9375 99.0324 41.8177C99.0923 41.7578 99.1522 41.6979 99.2122 41.6379C99.6315 41.2785 100.051 40.919 100.41 40.5596C100.47 40.4996 100.53 40.4397 100.59 40.3798C100.71 40.26 100.83 40.1402 100.95 40.0803C101.009 40.0204 101.069 39.9604 101.129 39.9005C101.249 39.7807 101.309 39.7208 101.429 39.601C101.489 39.5411 101.549 39.4812 101.609 39.4213C101.668 39.3613 101.788 39.2415 101.848 39.1816C101.908 39.1217 101.968 39.0618 102.028 39.0019C102.088 38.942 102.208 38.8221 102.268 38.7622C102.328 38.7023 102.387 38.6424 102.447 38.5825C102.507 38.5226 102.567 38.4627 102.627 38.4028C102.687 38.3429 102.747 38.2829 102.747 38.223C102.807 38.1631 102.867 38.1032 102.927 38.0433C102.987 37.9834 102.987 37.9235 103.046 37.9235C103.106 37.8636 103.166 37.8037 103.166 37.7438C103.226 37.6838 103.226 37.6838 103.286 37.6239C103.346 37.564 103.346 37.5041 103.406 37.5041C103.466 37.4442 103.466 37.4442 103.526 37.3843C103.586 37.3244 103.586 37.3244 103.646 37.2645C103.646 37.2046 103.705 37.2046 103.705 37.2046C103.765 37.1446 103.765 37.1446 103.765 37.0847L103.825 37.0248C103.825 36.9649 103.885 36.9649 103.885 36.9649C103.885 36.9649 103.885 36.9649 103.885 36.905L103.945 36.8451C125.753 50.0854 130.426 83.7552 130.426 83.7552C105.623 51.4034 87.2899 51.643 82.1975 52.4818C82.6768 52.0624 83.2759 51.703 83.875 51.4633Z" fill="#FFCF3C"/>
<path d="M110.775 42.1173C113.471 44.6934 115.867 47.5691 117.904 50.6246C117.665 50.8642 108.618 59.0121 107.06 60.39C105.263 59.1319 103.526 58.1134 101.908 57.2148C102.447 56.2562 109.756 43.615 110.775 42.1173Z" fill="#FFD657"/>
<path d="M113.171 44.6335C114.429 46.0115 115.628 47.4493 116.706 48.9471C114.909 50.6845 106.941 57.2747 104.604 58.7725C104.424 58.6526 104.305 58.5927 104.125 58.4729C107.54 54.0994 110.895 49.666 113.171 44.6335Z" fill="#FFDD73"/>
<path d="M128.628 182.069V100.65L192.193 113.531L183.267 172.124L128.628 182.069Z" fill="#FF0000"/>
<path d="M128.628 182.069V100.65L65.1229 113.531L74.0496 172.124L128.628 182.069Z" fill="#FF3030"/>
<path d="M191.235 120.001L192.193 113.531L128.628 100.65V109.577L191.235 120.001Z" fill="#C20000"/>
<path d="M128.628 100.65L65.1229 113.531L65.9018 118.623L128.628 109.577V100.65Z" fill="#D11B1B"/>
<path d="M128.628 100.65V78.7826L58.1733 96.636L61.2886 114.31L128.628 100.65Z" fill="#FF3030"/>
<path d="M128.628 100.65V78.7826L199.143 96.636L196.028 114.31L128.628 100.65Z" fill="#FF0000"/>
<path d="M115.568 158.584L100.291 164.215L87.4097 154.091L72.1325 159.722L72.9113 164.695L86.5111 159.722L99.3919 169.787L114.729 164.215L128.628 174.64V168.409L115.568 158.584Z" fill="white"/>
<path d="M128.628 156.727L115.568 146.901L100.291 152.533L87.4097 142.408L70.455 148.639L71.2338 153.611L86.511 148.04L99.3918 158.105L114.729 152.473L128.628 162.957V156.667V156.727Z" fill="white"/>
<path d="M141.749 158.584L157.026 164.215L169.907 154.091L185.184 159.722L184.405 164.695L170.805 159.722L157.925 169.787L142.528 164.215L128.628 174.64V168.409H128.688L141.749 158.584Z" fill="#E6E6E6"/>
<path d="M128.688 156.727L141.749 146.901L157.026 152.533L169.907 142.408L186.862 148.639L186.083 153.611L170.805 148.04L157.925 158.105L142.528 152.473L128.628 162.957V156.667L128.688 156.727Z" fill="#E6E6E6"/>
<path d="M149.073 148.159L151.769 141.33L160.217 144.085C156.442 139.952 153.986 134.739 153.447 129.108C152.728 121.918 155.843 115.448 157.401 108.618C157.64 107.48 157.88 106.342 158.06 105.203C159.857 92.9216 150.631 81.6584 138.229 81.0593C138.17 81.0593 138.11 81.0593 138.05 81.0593L138.11 81.1192C142.902 85.1931 145.299 91.7833 145.958 97.8942C146.737 105.083 144.939 111.734 142.902 118.563C141.225 124.255 140.386 129.946 141.884 135.818C143.022 140.491 145.598 144.744 149.073 148.159Z" fill="#FFC000"/>
<path d="M144.325 121.559C145.943 115.029 147.86 109.157 148.219 102.388C148.998 88.4882 140.61 81.1791 138.094 81.0593C138.034 81.0593 137.974 81.0593 137.914 81.0593L137.974 81.1192C142.767 85.1931 145.164 91.7833 145.823 97.8942C146.602 105.084 144.804 111.734 142.767 118.563C141.09 124.255 140.251 129.947 141.749 135.818C143.007 140.551 145.523 144.804 148.998 148.219C149.058 148.159 140.251 138.214 144.325 121.559Z" fill="#F0B400"/>
<path d="M79.2619 121.799L80.5799 115.987L73.6302 114.01C78.0636 112.992 82.0777 110.535 85.0732 107.001C88.8476 102.507 89.6863 96.696 91.7233 91.4239C92.0827 90.5252 92.4422 89.6864 92.8616 88.7878C97.295 79.6813 108.618 76.3263 117.305 81.5985C117.365 81.6584 117.365 81.6584 117.365 81.6584C112.273 82.2575 107.66 85.5526 104.424 89.3869C100.59 93.8802 98.7927 99.1524 97.0553 104.724C95.6175 109.337 93.5805 113.591 89.866 116.826C86.8705 119.402 83.216 121.08 79.2619 121.799Z" fill="#FFC000"/>
<path d="M94.8985 106.581C97.4148 101.728 97.8941 96.037 100.71 91.304C106.521 81.5985 115.508 80.5201 117.245 81.5386C117.305 81.5386 117.365 81.6584 117.305 81.5985C112.153 82.9764 107.6 85.4927 104.364 89.327C100.53 93.8203 98.7328 99.0924 96.9954 104.664C95.5575 109.277 93.5206 113.531 89.8061 116.766C86.8106 119.402 83.156 121.08 79.2618 121.799C79.2618 121.799 87.6493 120.54 94.8985 106.581Z" fill="#F0B400"/>
<path d="M128.688 14.2587L128.928 15.8164C129.227 17.8534 130.785 19.4111 132.822 19.7106L134.38 19.9503L132.822 20.1899C130.785 20.4895 129.227 22.0471 128.928 24.0841L128.688 25.6418L128.448 24.0841C128.149 22.0471 126.591 20.4895 124.554 20.1899L122.997 19.9503L124.554 19.7106C126.591 19.4111 128.149 17.8534 128.448 15.8164L128.688 14.2587Z" fill="#FFCF3C"/>
<path d="M98.3134 25.522L98.4333 26.2409C98.5531 27.1995 99.3319 27.9184 100.29 28.0982L101.009 28.218L100.29 28.3378C99.3319 28.4576 98.613 29.2365 98.4333 30.195L98.3134 30.914L98.1936 30.195C98.0738 29.2365 97.295 28.5175 96.3364 28.3378L95.6175 28.218L96.3364 28.0982C97.295 27.9784 98.0139 27.1995 98.1936 26.2409L98.3134 25.522Z" fill="white"/>
<path d="M199.143 2.63608L199.263 3.35501C199.383 4.31359 200.162 5.03252 201.12 5.21225L201.839 5.33207L201.12 5.45189C200.162 5.57171 199.443 6.35055 199.263 7.30913L199.143 8.02806L199.023 7.30913C198.904 6.35055 198.125 5.63162 197.166 5.45189L196.507 5.33207L197.226 5.21225C198.185 5.09243 198.904 4.31359 199.083 3.35501L199.143 2.63608Z" fill="white"/>
<path d="M189.737 34.1491L189.857 34.8681C189.977 35.8266 190.756 36.5456 191.714 36.7253L192.433 36.8451L191.714 36.9649C190.756 37.0848 190.037 37.8636 189.857 38.8222L189.737 39.5411L189.617 38.8222C189.498 37.8636 188.719 37.1447 187.76 36.9649L187.041 36.8451L187.76 36.7253C188.719 36.6055 189.438 35.8266 189.617 34.8681L189.737 34.1491Z" fill="#FFCF3C"/>
<path d="M128.628 38.283L128.748 39.0019C128.868 39.9605 129.647 40.6794 130.605 40.8591L131.324 40.979L130.605 41.0988C129.647 41.2186 128.928 41.9974 128.748 42.956L128.628 43.6749L128.508 42.956C128.389 41.9974 127.61 41.2785 126.651 41.0988L125.932 40.979L126.651 40.8591C127.61 40.7393 128.329 39.9605 128.508 39.0019L128.628 38.283Z" fill="white"/>
<path d="M58.1733 7.96814L58.2931 8.68707C58.4129 9.64564 59.1918 10.3646 60.1503 10.5443L60.8693 10.6641L60.1503 10.7839C59.1918 10.9038 58.4728 11.6826 58.2931 12.6412L58.1733 13.3601L58.0535 12.5813C57.9336 11.6227 57.1548 10.9038 56.1962 10.724L55.4773 10.6042L56.1962 10.4844C57.1548 10.3646 57.8737 9.58573 58.0535 8.62716L58.1733 7.96814Z" fill="white"/>
<path d="M180.092 14.2587L180.331 15.8164C180.631 17.8534 182.188 19.4111 184.225 19.7106L185.783 19.9503L184.225 20.1899C182.188 20.4895 180.631 22.0471 180.331 24.0841L180.092 25.6418L179.852 24.0841C179.552 22.0471 177.995 20.4895 175.958 20.1899L174.4 19.9503L175.958 19.7106C177.995 19.4111 179.552 17.8534 179.852 15.8164L180.092 14.2587Z" fill="#FFCF3C"/>
<path d="M69.6163 28.158L69.8559 29.7157C70.1555 31.7527 71.7132 33.3103 73.7501 33.6099L75.3078 33.8495L73.7501 34.0892C71.7132 34.3887 70.1555 35.9464 69.8559 37.9834L69.6163 39.5411L69.3766 37.9834C69.0771 35.9464 67.5194 34.3887 65.4824 34.0892L63.9247 33.8495L65.4824 33.6099C67.5194 33.3103 69.0771 31.7527 69.3766 29.7157L69.6163 28.158Z" fill="#FFCF3C"/>
<path d="M156.846 0L157.385 3.65456C157.505 4.4334 158.104 5.0325 158.883 5.15233L162.538 5.69152L158.883 6.23072C158.104 6.35054 157.505 6.94965 157.385 7.72849L156.846 11.383L156.307 7.72849C156.187 6.94965 155.588 6.35054 154.809 6.23072L151.155 5.69152L154.809 5.15233C155.588 5.0325 156.187 4.4334 156.307 3.65456L156.846 0Z" fill="#FFCF3C"/>
<path d="M89.866 2.63608L90.4052 6.29064C90.5251 7.06948 91.1242 7.66859 91.903 7.78841L95.5575 8.32761L91.903 8.8668C91.1242 8.98662 90.5251 9.58573 90.4052 10.3646L89.866 14.0191L89.3269 10.3646C89.207 9.58573 88.6079 8.98662 87.8291 8.8668L84.1746 8.32761L87.8291 7.78841C88.6079 7.66859 89.207 7.06948 89.3269 6.29064L89.866 2.63608Z" fill="#FFCF3C"/>
<path d="M58.8921 78.6029C43.9744 63.8049 14.4384 33.6099 14.3185 33.7298C14.1987 33.8496 43.0757 64.8234 57.9336 79.6214C58.2331 79.9209 59.1917 78.8425 58.8921 78.6029Z" fill="white"/>
<path d="M49.9655 89.2671C32.172 78.1236 1.91712 58.5328 1.85721 58.6526C1.7973 58.7724 31.513 79.3219 49.3065 90.4653C49.606 90.7049 50.325 89.5067 49.9655 89.2671Z" fill="white"/>
<path d="M43.6748 101.728C23.8444 94.7789 0.059842 86.3315 -6.87159e-05 86.4513C-0.0599794 86.5711 23.425 96.1568 43.2555 103.047C43.6149 103.166 44.0343 101.848 43.6748 101.728Z" fill="white"/>
<path d="M198.424 78.6029C213.342 63.8049 242.878 33.6099 242.998 33.7298C243.118 33.8496 214.241 64.8234 199.383 79.6214C199.083 79.9209 198.125 78.8425 198.424 78.6029Z" fill="white"/>
<path d="M207.351 89.2671C225.144 78.1236 255.399 58.5328 255.519 58.6526C255.579 58.7724 225.863 79.3219 208.07 90.4653C207.71 90.7049 206.991 89.5067 207.351 89.2671Z" fill="white"/>
<path d="M213.641 101.728C233.472 94.7789 257.256 86.3315 257.316 86.4513C257.376 86.5711 233.891 96.1568 214.061 103.047C213.701 103.166 213.282 101.848 213.641 101.728Z" fill="white"/>
</g>
<defs>
<clipPath id="clip0_2162_560">
<rect width="257.317" height="188" fill="white"/>
</clipPath>
</defs>
</svg>
