<svg width="670" height="471" viewBox="0 0 670 471" fill="none" xmlns="http://www.w3.org/2000/svg">
<g clip-path="url(#clip0)">
<path d="M206.121 92.3486C74.7777 111.808 9.78618 222.445 1.43552 300.511C-8.76665 395.806 35.4805 446.175 118.042 439.638C207.557 432.534 310.523 422.861 421.613 439.638C532.741 456.415 615.87 471.794 656.679 369.659C697.488 267.524 643.832 72.9645 493.482 38.7684C382.732 13.5652 342.906 72.0955 206.121 92.3486Z" fill="#FEEFE1"/>
<path d="M329.907 42.4334C284.979 49.915 279.652 80.1059 280.483 118.647C281.314 157.189 257.887 182.279 241.941 182.279C241.941 182.279 262.875 189.798 278.783 182.279C294.69 174.759 310.598 195.693 351.633 185.642C392.669 175.591 429.51 145.778 411.94 94.0866C394.369 42.4334 360.06 37.4079 329.907 42.4334Z" fill="#C04634"/>
<path d="M322.199 94.691C321.897 94.691 321.557 94.691 321.255 94.6533C315.36 94.2754 311.695 89.6655 311.884 82.8263C312.148 74.5512 318.496 62.9888 328.283 62.9888C329.832 62.9888 331.381 63.2911 332.893 63.8578C339.014 66.2383 342.075 71.7929 340.828 78.3298C339.354 86.227 331.495 94.691 322.199 94.691ZM328.283 70.5459C323.786 70.5459 319.592 77.5363 319.403 83.0908C319.29 87.0205 321.028 87.0961 321.708 87.1339C327.3 87.474 332.477 81.9194 333.422 76.9695C334.253 72.5108 331.155 71.3016 330.172 70.9238C329.492 70.6593 328.887 70.5459 328.283 70.5459Z" fill="white"/>
<path d="M363.801 72.3597C361.08 70.7349 350.085 89.5522 336.104 111.544C322.123 133.535 308.52 157.113 308.407 159.758C308.331 162.403 315.851 168.071 319.629 167.429C323.408 166.786 340.185 138.674 350.954 121.67C361.723 104.629 373.209 85.887 373.738 81.7683C374.267 77.6497 363.801 72.3597 363.801 72.3597Z" fill="white"/>
<path d="M353.788 174.268C350.728 174.268 347.969 173.059 345.74 170.754C342.604 167.504 342.415 161.572 345.287 154.808C347.932 148.536 353.6 141.243 360.817 141.243C362.782 141.243 364.633 141.81 366.409 142.868C374.835 148.082 372.681 154.884 369.545 161.988C366.296 169.242 359.834 174.268 353.788 174.268ZM360.817 148.8C358.134 148.8 354.355 152.73 352.239 157.793C350.388 162.177 350.728 165.086 351.181 165.539C351.975 166.371 352.806 166.749 353.826 166.749C356.849 166.749 360.741 163.31 362.668 158.965C365.993 151.521 365.162 150.992 362.441 149.329C361.875 148.951 361.346 148.8 360.817 148.8Z" fill="white"/>
<path d="M436.955 412.244C436.955 412.244 434.801 442.246 439.827 448.669C444.814 455.093 533.536 453.657 536.672 448.669C539.808 443.681 536.672 412.244 536.672 412.244H436.955Z" fill="#361F39"/>
<path d="M482.751 237.447C482.751 237.447 478.746 265.824 477.65 267.713C476.592 269.602 471.491 264.199 471.491 264.199C471.491 264.199 470.169 287.021 482.751 288.873C495.334 290.762 501.455 274.136 507.917 271.983C507.917 271.983 500.171 270.358 499.642 267.146C499.113 263.934 504.592 222.483 504.592 222.483L482.751 237.447Z" fill="#FA9E84"/>
<path d="M498.507 232.572C492.311 236.313 486.794 238.542 482.373 239.864C481.995 242.358 481.39 246.515 480.748 250.822C498.243 250.558 498.507 232.572 498.507 232.572Z" fill="#FF8B6A"/>
<path d="M493.18 192.972C474.06 189.345 467.75 194.597 465.861 215.757C463.971 236.917 468.014 242.547 478.179 244.437C488.343 246.288 500.964 233.176 506.291 218.364C509.692 208.994 508.71 195.92 493.18 192.972Z" fill="#FA9E84"/>
<path d="M537.994 369.394C537.994 369.394 541.583 411.903 542.264 422.597C542.981 433.328 542.604 435.104 530.474 435.444C518.345 435.784 519.403 439.714 500.85 437.938C482.298 436.162 494.427 433.29 471.453 428.642C448.479 423.995 433.365 428.302 432.307 417.911C431.249 407.558 433.025 380.428 431.249 353.638C429.473 326.847 434.839 300.435 428.377 296.846C421.954 293.256 419.46 273.645 413.036 269.338C406.613 265.03 403.741 251.465 403.741 244.021C403.741 236.577 400.378 217.382 400.869 211.79C402.116 198.225 427.282 190.97 437.295 202.268C438.957 204.157 437.635 222.71 441.942 228.718C446.212 234.726 449.424 234.726 451.956 241.678C454.449 248.631 465.71 248.895 471.491 264.123C477.31 279.351 507.916 271.945 507.916 271.945C507.916 271.945 535.16 264.35 544.077 279.351C552.995 294.352 559.418 291.48 561.95 304.365C564.444 317.212 570.074 351.937 570.074 355.527C570.074 362.517 559.796 368.336 537.994 369.394Z" fill="#2F80ED"/>
<path d="M500.737 198.338C500.737 198.338 499.603 203.439 493.18 200.492C486.756 197.545 483.809 195.391 480.068 195.391C476.327 195.391 475.231 200.794 470.697 197.696C466.163 194.597 469.526 191.386 465.445 189.761C461.326 188.136 459.739 184.66 461.326 179.596C462.951 174.495 467.41 173.966 471.453 175.024C475.496 176.082 477.121 170.754 483.544 170.452C489.968 170.188 490.761 177.669 493.18 179.03C495.598 180.352 499.074 176.347 503.08 180.352C507.085 184.357 505.082 191.612 506.896 192.935C508.71 194.257 511.392 191.612 514.34 195.089C517.287 198.565 514.075 203.137 514.34 205.253C514.604 207.407 519.97 206.046 519.705 213.301C519.441 220.518 511.392 224.561 509.805 228.038C508.181 231.514 507.009 235.67 503.155 233.592L503.306 222.483C503.306 222.483 500.17 220.481 498.545 216.362C496.958 212.243 502.739 201.928 500.737 198.338Z" fill="black"/>
<path d="M485.055 209.069C483.96 208.805 482.902 209.485 482.637 210.581C482.373 211.677 483.053 212.735 484.149 212.999C485.244 213.264 486.302 212.583 486.567 211.488C486.794 210.392 486.114 209.334 485.055 209.069Z" fill="#361F39"/>
<path d="M492.5 204.837C492.387 206.915 490.875 204.648 487.815 203.741C485.888 203.175 483.318 203.893 483.016 202.608C482.638 200.945 485.358 200.038 487.852 200.643C490.346 201.248 492.613 203.326 492.5 204.837Z" fill="black"/>
<path d="M470.358 203.25C470.207 205.291 471.265 203.439 473.041 203.175C474.137 203.024 475.459 204.27 475.762 203.099C476.139 201.588 474.741 200.076 473.305 200.114C471.907 200.19 470.471 201.739 470.358 203.25Z" fill="black"/>
<path d="M471.302 206.235C470.32 205.744 469.111 206.122 468.582 207.104C468.091 208.087 468.468 209.296 469.451 209.825C470.433 210.316 471.642 209.938 472.171 208.956C472.663 207.935 472.285 206.726 471.302 206.235Z" fill="#361F39"/>
<path d="M501.379 222.936C501.379 222.936 510.599 209.938 511.543 216.551C512.488 223.163 500.736 227.735 500.736 227.735L501.379 222.936Z" fill="#FA9E84"/>
<path d="M500.736 214.662C500.736 214.662 497.676 224.637 490.194 231.023C490.194 231.023 488.305 220.821 482.561 219.989C476.818 219.196 467.9 218.629 466.653 221.312C465.407 223.995 463.102 241.943 468.24 245.419C473.379 248.896 487.549 248.102 493.708 241.679C499.867 235.255 502.814 218.251 502.814 218.251L500.736 214.662Z" fill="black"/>
<path d="M468.355 225.581C468.355 225.581 475.648 223.012 484.981 223.579C484.981 223.579 486.077 231.892 479.313 233.743C472.588 235.632 468.355 225.581 468.355 225.581Z" fill="#361F39"/>
<path d="M479.35 223.579C478.481 224.825 477.234 225.883 475.307 226.412C473.116 227.017 471.189 226.375 469.602 225.203C471.302 224.712 474.854 223.881 479.35 223.579Z" fill="white"/>
<path d="M484.603 228.226C483.998 230.456 482.563 232.836 479.313 233.743C477.613 234.234 476.063 233.932 474.703 233.252C477.31 227.849 481.278 227.357 484.603 228.226Z" fill="#CA6851"/>
<path d="M540.298 393.313C551.861 393.313 562.025 382.355 558.285 357.416L534.971 366.749L540.298 393.313Z" fill="#FA9E84"/>
<path d="M431.25 142.642C432.535 141.735 440.696 138.334 440.583 132.062C440.432 125.751 443.303 119.177 442.586 116.003C441.83 112.829 436.389 119.517 436.389 119.517C436.389 119.517 437.56 103.873 436.162 100.473C434.764 97.072 432.421 102.249 432.421 102.249C432.421 102.249 430.57 100.851 428.567 101.946C426.564 103.042 424.184 107.274 424.184 107.274C424.184 107.274 425.091 106.065 422.219 108.03C419.385 109.995 413.755 125.26 414.095 129.606C414.435 133.951 419.007 141.508 419.272 143.397C419.536 145.287 404.535 203.477 406.953 211.903C409.334 220.329 416.664 228.567 429.398 219.8C442.057 210.958 424.864 147.214 431.25 142.642Z" fill="#FA9E84"/>
<path d="M535.386 370.944L534.857 370.49C532.288 367.883 521.897 309.239 524.504 292.727L526.734 293.067C524.504 307.388 532.25 353.864 535.538 366.107C535.613 361.497 534.744 351.862 532.552 340.224L531.835 336.521C528.812 320.991 523.219 292.122 531.079 279.389L533.006 280.598C525.6 292.538 531.079 320.877 534.064 336.105L534.782 339.808C536.709 350.086 539.052 367.392 537.049 370.188C536.709 370.679 536.255 370.83 535.991 370.868L535.386 370.944Z" fill="#0D548C"/>
<path d="M432.798 298.886C432.685 298.886 432.534 298.886 432.42 298.848C431.929 298.735 431.022 298.357 430.758 296.883C429.586 290.875 441.149 261.629 453.996 253.316L455.243 255.206C445.116 261.743 435.292 283.243 433.327 292.765C432.836 295.107 432.949 296.128 433.025 296.506C434.461 295.523 438.05 287.815 440.96 281.58C446.59 269.564 452.938 255.924 458.682 254.677L459.173 256.906C454.525 257.888 447.875 272.134 443.038 282.563C437.484 294.389 435.179 298.886 432.798 298.886Z" fill="#0D548C"/>
<path d="M530.929 378.387C530.664 378.387 504.252 378.123 483.13 355.225C475.799 347.252 469.262 341.66 464.048 337.125C454.261 328.699 447.8 323.145 447.082 311.696L449.349 311.544C450.029 322.011 455.848 327.074 465.522 335.387C470.812 339.959 477.386 345.627 484.792 353.676C505.234 375.856 530.664 376.12 530.929 376.12V378.387V378.387Z" fill="#0D548C"/>
<path d="M507.576 400.303C501.492 398.376 494.615 397.091 488.003 395.882C474.513 393.388 460.533 390.819 451.729 382.355L453.278 380.73C461.591 388.703 475.231 391.235 488.418 393.653C495.106 394.9 502.059 396.147 508.294 398.149L507.576 400.303Z" fill="#0D548C"/>
<path d="M474.628 297.903C470.093 297.903 469.564 302.589 469.564 307.917C469.564 315.058 468.998 342.151 469.564 345.816C470.131 349.481 470.698 350.463 476.026 350.463C481.354 350.463 489.364 350.463 493.143 350.463C496.921 350.463 497.639 349.481 497.639 345.967C497.639 342.453 498.622 312.451 498.622 307.237C498.622 302.06 498.244 299.302 494.541 298.395C489.893 297.261 476.593 297.903 474.628 297.903Z" fill="#361F39"/>
<path d="M480.9 302.816C480.9 301.909 479.956 301.795 478.86 301.795C477.424 301.795 474.061 301.682 473.343 301.795C472.587 301.909 472.398 302.022 472.398 303.118C472.398 304.214 472.398 304.214 472.398 304.969C472.398 305.725 472.587 305.876 473.305 305.876C474.023 305.876 477.953 306.065 479.011 306.065C480.069 306.065 480.636 305.99 480.787 305.234C481.014 304.289 480.9 303.194 480.9 302.816Z" fill="#513D51"/>
<path d="M555.337 379.408C554.543 368.979 535.953 370.981 518.911 358.512C511.657 353.184 505.157 347.781 502.852 342.604C502.399 340.866 505.535 335.274 505.157 329.568C504.817 323.863 501.417 319.366 501.417 314.529C501.417 309.731 496.769 314.189 496.769 318.497C496.769 322.767 497.676 326.696 497.676 328.321C497.676 332.44 466.843 315.436 465.104 315.587C462.346 315.814 466.314 320.575 466.314 320.575C466.314 320.575 464.16 321.255 464.689 323.258C465.218 325.261 466.956 326.999 466.956 326.999C466.956 326.999 464.689 327.377 464.953 329.077C465.218 330.74 466.276 333.838 469.374 336.521C469.374 336.521 468.959 341.093 476.327 346.156C483.695 351.257 491.479 352.731 493.746 354.204C496.013 355.678 517.324 386.889 531.796 391.688C546.268 396.487 556.13 389.836 555.337 379.408Z" fill="#FA9E84"/>
<path d="M547.366 315.852C545.741 313.774 546.157 310.449 544.645 305.688C543.171 300.927 541.584 300.511 540.526 296.846C539.468 293.181 540.602 285.888 537.126 287.475C534.367 288.76 531.873 291.858 535.199 299.869C535.199 299.869 516.835 275.988 516.23 280.938C515.663 285.888 527.075 299.831 527.075 299.831C527.075 299.831 511.507 279.427 509.202 281.958C506.897 284.452 521.785 303.345 521.785 303.345C521.785 303.345 507.464 289.175 506.255 292.009C505.046 294.881 519.669 309.089 519.669 309.089C519.669 309.089 506.368 300.813 507.124 305.272C507.917 309.731 520.311 314.038 521.142 314.719C521.936 315.399 526.621 322.2 530.4 323.372C534.141 324.505 537.73 325.903 538.637 326.508C539.582 327.15 568.45 371.624 574.761 376.423C581.109 381.259 587.268 378.463 591.5 376.801C595.732 375.138 593.351 362.329 586.399 352.731C579.522 343.096 549.368 318.459 547.366 315.852Z" fill="#FA9E84"/>
<path d="M604.422 272.814C627.736 270.434 647.46 271.794 644.777 317.288C642.094 362.782 645.306 368.148 646.931 386.36C648.556 404.573 657.926 452.259 656.831 455.471C655.735 458.682 642.359 471.001 611.828 471.001C581.297 471.001 566.825 464.577 564.142 460.836C561.459 457.095 576.763 358.248 576.196 349.255C575.667 340.3 570.226 326.357 571.321 320.462C572.455 314.567 574.269 296.619 581.146 284.83C583.602 280.711 593.539 273.948 604.422 272.814Z" fill="#ED2F73"/>
<path d="M585.869 255.659C585.869 255.659 591.235 265.257 593.351 278.142C595.505 290.989 590.139 307.652 593.351 306.557C596.563 305.461 616.4 281.882 615.304 271.718C614.246 261.554 600.606 239.033 600.606 239.033L585.869 255.659Z" fill="#FA9E84"/>
<path d="M600.606 250.898C606.387 244.172 600.303 264.161 592.142 272.361C590.63 266.315 588.628 261.441 587.268 258.531C591.991 257.133 597.281 254.79 600.606 250.898Z" fill="#FF8B6A"/>
<path d="M572.984 210.808C593.124 199.85 606.198 212.659 605.14 235.746C604.082 258.833 589.081 268.469 579.975 264.728C570.868 260.987 551.031 222.786 572.984 210.808Z" fill="#FA9E84"/>
<path d="M568.867 213.83C568.867 213.83 574.875 226.375 584.132 225.997C593.39 225.619 587.231 237.371 602.307 241.905C606.199 243.077 595.506 286.455 612.66 293.823C629.815 301.191 643.191 279.653 642.133 268.998C641.075 258.342 633.556 258.153 630.344 249.425C627.132 240.658 628.19 227.282 622.863 219.498C617.497 211.714 613.341 219.196 605.254 207.142C597.168 195.126 584.85 186.02 576.273 196.751C567.695 207.445 550.012 205.329 550.012 219.498C550.012 233.706 563.69 235.784 563.69 235.784C563.69 235.784 560.5 225.997 568.867 213.83Z" fill="black"/>
<path d="M580.768 235.179C579.71 235.481 579.067 236.577 579.37 237.635C579.672 238.693 580.768 239.336 581.826 239.033C582.884 238.731 583.527 237.635 583.224 236.577C582.922 235.519 581.826 234.915 580.768 235.179Z" fill="#361F39"/>
<path d="M585.302 227.924C586.171 229.814 583.79 228.529 580.654 229.209C578.689 229.625 576.762 231.476 575.893 230.494C574.76 229.209 576.725 227.131 579.218 226.451C581.675 225.77 584.66 226.564 585.302 227.924Z" fill="#361F39"/>
<path d="M565.088 237.068C565.957 238.958 565.957 236.804 567.393 235.746C568.3 235.066 570.076 235.557 569.735 234.386C569.32 232.874 567.393 232.232 566.184 232.95C564.974 233.63 564.445 235.708 565.088 237.068Z" fill="#361F39"/>
<path d="M567.316 239.26C566.22 239.298 565.313 240.205 565.351 241.3C565.389 242.396 566.295 243.303 567.391 243.265C568.487 243.228 569.394 242.321 569.356 241.225C569.318 240.091 568.411 239.222 567.316 239.26Z" fill="#361F39"/>
<path d="M576.084 254.337C576.084 254.337 581.752 249.047 590.48 245.835C590.48 245.835 594.826 252.976 589.384 257.435C583.981 261.856 576.084 254.337 576.084 254.337Z" fill="#361F39"/>
<path d="M585.34 248.102C585.038 249.576 584.32 251.049 582.771 252.334C580.995 253.77 578.992 253.959 577.027 253.543C578.425 252.372 581.335 250.18 585.34 248.102Z" fill="white"/>
<path d="M592.03 250.256C592.37 252.561 592.03 255.319 589.423 257.435C588.063 258.569 586.513 258.909 585.002 258.833C585.153 252.825 588.63 250.785 592.03 250.256Z" fill="#CA6851"/>
<path d="M556.018 290.082C551.824 290.082 551.333 294.427 551.333 299.34C551.333 305.952 550.804 331.042 551.333 334.443C551.862 337.806 552.391 338.75 557.303 338.75C562.253 338.75 569.659 338.75 573.173 338.75C576.687 338.75 577.329 337.843 577.329 334.594C577.329 331.344 578.236 303.534 578.236 298.735C578.236 293.936 577.858 291.367 574.458 290.536C570.188 289.478 557.832 290.082 556.018 290.082Z" fill="#361F39"/>
<path d="M561.837 294.616C561.837 293.785 560.968 293.671 559.947 293.671C558.625 293.671 555.489 293.558 554.809 293.671C554.128 293.785 553.939 293.898 553.939 294.881C553.939 295.863 553.939 295.901 553.939 296.619C553.939 297.337 554.128 297.45 554.771 297.45C555.413 297.45 559.078 297.639 560.061 297.639C561.043 297.639 561.534 297.563 561.723 296.883C561.95 296.014 561.837 294.994 561.837 294.616Z" fill="#513D51"/>
<path d="M630.797 365.578C630.041 355.905 612.849 357.756 597.054 346.232C590.328 341.319 584.32 336.294 582.167 331.495C581.713 329.87 584.66 324.694 584.32 319.404C583.98 314.114 580.844 309.919 580.844 305.499C580.844 301.04 576.537 305.196 576.537 309.164C576.537 313.131 577.368 316.759 577.368 318.27C577.368 322.086 548.802 306.33 547.177 306.481C544.608 306.708 548.311 311.129 548.311 311.129C548.311 311.129 546.308 311.733 546.837 313.622C547.328 315.474 548.953 317.099 548.953 317.099C548.953 317.099 546.837 317.477 547.101 319.026C547.366 320.575 548.348 323.447 551.182 325.903C551.182 325.903 550.804 330.135 557.644 334.82C564.483 339.543 571.662 340.904 573.778 342.264C575.894 343.624 595.618 372.53 609.032 376.989C622.371 381.448 631.553 375.251 630.797 365.578Z" fill="#FA9E84"/>
<path d="M639.601 285.926C626.187 271.114 615.758 291.707 615.343 313.812C614.927 335.916 600.531 386.134 623.24 377.443C642.171 370.226 648.519 295.826 639.601 285.926Z" fill="#FA9E84"/>
<path d="M623.089 399.245C612.358 398.263 605.443 392.104 598.717 386.134C595.354 383.148 591.878 380.05 587.986 377.669C575.819 370.263 575.895 362.215 575.932 361.875L578.199 361.951C578.199 362.026 578.237 369.092 589.195 375.742C593.276 378.236 596.828 381.41 600.266 384.471C606.992 390.441 613.303 396.109 623.316 397.016L623.089 399.245Z" fill="white"/>
<path d="M603.439 429.625C587.342 429.625 578.992 423.617 578.576 423.315L579.936 421.501C580.05 421.577 590.554 429.058 610.354 427.018L610.581 429.285C608.087 429.511 605.706 429.625 603.439 429.625Z" fill="white"/>
<path d="M24.3717 271.869C11.6001 280.031 63.9335 397.091 79.01 413.339C94.0865 429.587 203.363 456.301 231.627 458.266C259.891 460.231 356.358 430.683 356.509 421.425C356.66 412.168 260.495 385.642 256.754 385.34C252.976 385 207.142 276.252 193.312 271.907C179.52 267.524 45.0783 258.606 24.3717 271.869Z" fill="#361F39"/>
<path d="M31.2858 280.295C40.0898 267.864 185.716 279.351 193.954 280.295C202.229 281.24 247.345 383.753 246.098 385.302C244.851 386.851 90.345 405.064 84.0347 403.817C77.7623 402.532 24.7866 289.439 31.2858 280.295Z" fill="#C7E5F8"/>
<path d="M236.803 451.427C229.774 451.427 197.657 444.059 169.582 436.766C111.958 421.841 111.694 418.742 111.618 417.722C111.58 417.458 111.656 417.042 111.996 416.626C116.946 410.883 255.431 391.423 256.716 391.348H256.98C265.293 391.348 337.729 414.435 342.792 420.065C343.207 420.518 343.396 420.972 343.321 421.463C343.207 422.483 342.943 425.204 294.35 438.315C270.81 444.663 243.642 451.2 237.143 451.427H236.803ZM114.414 417.684C124.201 423.617 222.86 449.122 236.803 449.122H237.029C249.839 448.669 333.308 426.111 340.751 421.236C334.517 416.362 265.898 393.615 256.98 393.615C248.252 394.144 125.939 412.545 114.414 417.684Z" fill="white"/>
<path d="M127.564 425.506L127.148 423.276C128.055 423.087 217.948 405.933 271.679 394.748L272.133 396.977C218.401 408.124 128.471 425.317 127.564 425.506Z" fill="white"/>
<path d="M152.73 432.157L152.238 429.965C153.107 429.776 239.372 409.976 290.383 400.303L290.799 402.533C239.826 412.168 153.599 431.93 152.73 432.157Z" fill="white"/>
<path d="M175.627 438.202L175.098 436.011C175.891 435.822 254.523 417.231 304.212 404.837L304.779 407.029C255.09 419.423 176.42 438.013 175.627 438.202Z" fill="white"/>
<path d="M199.923 444.134L199.318 441.943C200.036 441.754 273.114 421.5 318.344 409.636L318.91 411.827C273.719 423.692 200.679 443.945 199.923 444.134Z" fill="white"/>
<path d="M249.785 428.313L248.998 430.439L279.933 441.889L280.72 439.763L249.785 428.313Z" fill="white"/>
<path d="M288.079 417.981L287.191 420.067L315.491 432.112L316.379 430.026L288.079 417.981Z" fill="white"/>
<path d="M220.932 438.164C193.273 430.078 132.702 413.452 132.098 413.301L132.702 411.109C133.307 411.261 193.915 427.924 221.574 436.01L220.932 438.164Z" fill="white"/>
<path d="M236.236 433.857C213.149 423.277 163.536 407.86 163.045 407.709L163.725 405.555C164.216 405.706 213.98 421.161 237.181 431.816L236.236 433.857Z" fill="white"/>
<path d="M254.865 428.718C233.213 416.929 189.571 403.628 189.117 403.477L189.76 401.323C190.213 401.474 234.082 414.813 255.923 426.715L254.865 428.718Z" fill="white"/>
<path d="M278.367 422.445C257.963 414.17 213.754 399.925 213.338 399.774L214.018 397.62C214.471 397.771 258.756 412.054 279.199 420.367L278.367 422.445Z" fill="white"/>
<path d="M299.49 416.74C281.013 408.238 240.015 396.033 239.6 395.92L240.242 393.728C240.658 393.841 281.806 406.122 300.435 414.699L299.49 416.74Z" fill="white"/>
<path d="M98.8468 402.91C132.627 399.85 213.565 390.328 238.579 386.625C237.861 380.995 236.954 374.458 237.445 367.769C238.541 352.693 103.532 359.381 103.532 359.381C103.532 359.381 96.164 394.975 98.6579 402.495C98.6957 402.684 98.7712 402.797 98.8468 402.91Z" fill="#435791"/>
<path d="M207.444 224.183C197.468 218.704 176.535 207.029 161.043 208.276C145.551 209.523 127.111 228.793 116.645 231.741C106.178 234.688 66.8051 232.156 64.7269 251.843C62.6487 271.529 63.0643 283.243 88.6075 280.333C114.151 277.386 122.539 277.386 124.202 278.671C125.864 279.918 120.007 302.136 114.982 308.408C109.956 314.605 94.4643 363.197 100.321 369.886C106.178 376.574 158.096 381.599 181.561 382.015C205.026 382.43 232.156 381.599 237.408 376.989C242.66 372.379 240.998 354.393 241.829 351.446C242.66 348.499 248.517 342.642 247.686 332.591C246.854 322.54 253.543 301.191 256.905 298.659C260.268 296.165 283.28 304.932 292.5 308.71C301.719 312.489 315.096 327.981 329.341 316.683C343.586 305.385 336.445 289.44 319.29 275.421C302.135 261.402 279.804 242.132 270.244 239.222C260.722 236.313 231.702 237.522 207.444 224.183Z" fill="#EF7F1B"/>
<path d="M210.882 275.27C205.63 272.663 179.482 249.311 174.872 237.182C170.262 225.053 171.094 220.027 174.872 214.17C178.651 208.314 181.56 212.923 186.586 209.56C191.611 206.198 197.959 203.704 208.804 209.56C219.648 215.417 229.284 217.533 230.984 226.3C232.647 235.104 238.503 229.663 237.257 238.429C236.01 247.195 216.928 278.255 210.882 275.27Z" fill="#C04634"/>
<path d="M209.975 180.087C209.975 180.087 197.921 215.379 196.221 220.82C194.558 226.262 208.766 263.518 212.128 263.103C215.491 262.687 225.958 225.015 225.958 225.015L234.46 199.887C234.46 199.887 225.807 181.674 209.975 180.087Z" fill="#FA9E84"/>
<path d="M212.923 187.758C211.79 190.479 215.795 208.162 230.003 213.074L234.461 199.887C234.461 199.887 234.31 199.547 234.008 198.98C232.572 198.565 231.287 198.073 230.154 197.507C221.992 193.388 214.17 184.811 212.923 187.758Z" fill="#FF8B6A"/>
<path d="M216.324 148.801C230.078 138.296 252.334 142.528 258.191 155.904C264.048 169.318 255.697 203.212 243.946 204.459C232.232 205.706 214.208 193.993 210.883 183.526C207.52 173.097 207.52 155.489 216.324 148.801Z" fill="#FA9E84"/>
<path d="M307.615 291.177C301.833 296.43 303.005 322.993 313.471 325.94C323.938 328.888 339.846 320.084 343.625 310.448C347.403 300.813 344.04 295.787 333.989 284.074C323.938 272.322 313.66 285.661 307.615 291.177Z" fill="#C04634"/>
<path d="M83.1654 237.144C71.7541 236.69 58.8691 249.311 58.8691 263.103C58.8691 276.932 72.6988 294.503 88.1909 289.477C103.683 284.452 101.189 269.375 100.32 258.077C99.4889 246.779 104.514 238.013 83.1654 237.144Z" fill="#C04634"/>
<path d="M205.782 192.33C205.782 192.33 199.661 192.292 200.643 183.564C201.626 174.835 189.496 176.044 192.028 163.462C194.522 150.917 207.974 148.801 208.805 147.138C209.636 145.476 209.636 135.425 220.103 130.815C230.57 126.205 235.179 131.23 241.868 129.152C248.556 127.074 259.022 118.685 267.411 130.815C275.799 142.944 263.632 154.695 258.191 155.942C258.191 155.942 248.556 136.823 223.617 144.833C223.617 144.833 220.67 178.349 209.069 174.684L209.939 180.087L205.782 192.33Z" fill="black"/>
<path d="M132.779 165.653C128.321 169.545 123.522 177.442 120.234 182.808C116.947 188.174 109.239 219.045 106.405 232.572C103.571 246.137 104.402 263.141 96.6939 271C81.0128 286.983 66.5786 272.549 66.9565 254.261C67.3343 236.539 107.803 167.731 109.768 164.217C111.77 160.703 102.929 147.214 105.611 144.644C108.294 142.075 119.97 133.46 123.068 132.704C126.167 131.911 152.655 148.234 132.779 165.653Z" fill="#FA9E84"/>
<path d="M152.011 136.974C152.011 136.974 138.975 150.803 131.947 158.096C124.919 165.351 120.498 172.303 117.626 172.681C114.754 173.059 101.227 164.709 99.5646 163.197C97.902 161.686 95.6349 155.224 97.3352 152.995C99.0356 150.803 128.962 122.086 131.342 121.028C133.685 119.895 154.581 134.556 152.011 136.974Z" fill="#361F39"/>
<path d="M187.985 119.365C187.985 119.365 194.559 125.335 194.03 129.643C193.501 133.951 186.624 143.019 182.581 145.967C178.501 148.914 175.515 149.443 173.815 148.687C172.115 147.931 165.162 143.208 165.162 143.208L187.985 119.365Z" fill="#361F39"/>
<path d="M134.706 9.37109C136.369 12.6962 148.423 52.4847 162.781 75.3073C177.14 98.1299 193.35 117.325 192.632 120.046C191.914 122.804 191.838 128.359 184.697 136.974C177.555 145.589 168.336 145.967 164.482 144.871C160.627 143.775 128.245 118.723 98.9988 105.989C69.7904 93.2556 55.6585 86.5675 51.7665 83.0912C47.8746 79.6149 51.5398 52.3335 77.1586 28.3773C102.74 4.42114 131.835 3.66543 134.706 9.37109Z" fill="white"/>
<path d="M77.1586 28.42C102.777 4.46379 131.835 3.67029 134.706 9.37594C136.86 15.195 125.449 40.8137 101.833 61.5959C78.2166 82.3781 58.1145 87.1013 51.7665 83.1338C47.8746 79.6575 51.5398 52.3762 77.1586 28.42Z" fill="#BCBEC0"/>
<path d="M120.385 144.569C126.469 138.07 135.311 128.434 135.424 128.359L134.593 127.603C134.517 127.716 125.638 137.314 119.592 143.813L120.385 144.569Z" fill="white"/>
<path d="M103.306 161.572C105.536 160.061 115.7 149.216 116.116 148.725L115.285 147.969C115.171 148.083 104.78 159.229 102.664 160.627L103.306 161.572Z" fill="white"/>
<path d="M97.9039 49.6885C102.023 45.1542 108.257 45.9477 113.585 49.8018C110.071 53.8071 106.179 57.7746 101.834 61.591C100.473 62.8001 99.113 63.9337 97.7527 65.0673C95.1833 60.0796 93.4074 54.6384 97.9039 49.6885Z" fill="#C04634"/>
<path d="M162.743 75.345C162.743 75.345 166.03 74.1359 168.411 75.9496C170.754 77.7633 183.374 95.5226 184.13 99.4146C184.885 103.307 181.598 111.166 171.623 122.275C161.647 133.346 153.939 140.563 149.405 139.43C144.87 138.296 127.98 127.565 127.564 125.373C127.149 123.182 127.338 121.104 127.338 121.104C127.338 121.104 130.965 121.859 133.648 119.932C136.331 118.005 146.684 107.652 154.506 98.1676C162.327 88.6834 166.068 80.5217 165.577 79.766C165.086 79.0102 162.743 75.345 162.743 75.345Z" fill="#C04634"/>
<path d="M176.876 104.591L177.783 103.911C177.442 103.458 169.772 93.1422 166.938 90.3838L166.145 91.1773C168.941 93.8601 176.8 104.478 176.876 104.591Z" fill="#361F39"/>
<path d="M170.49 116.607L171.321 115.851C170.943 115.436 162.177 105.611 158.852 103.042L158.172 103.911C161.421 106.405 170.414 116.494 170.49 116.607Z" fill="#361F39"/>
<path d="M149.727 112.537L149.033 113.434L162.274 123.675L162.967 122.778L149.727 112.537Z" fill="#361F39"/>
<path d="M141.355 123.371C144 125.411 154.014 131.797 154.429 132.099L155.034 131.154C154.921 131.079 144.643 124.504 142.036 122.501L141.355 123.371Z" fill="#361F39"/>
<path d="M125.864 128.85C128.433 130.701 122.954 137.692 120.838 135.349C118.76 132.969 123.861 127.414 125.864 128.85Z" fill="#C04634"/>
<path d="M65.3698 88.6078C65.5965 88.6078 86.4543 87.3231 109.655 65.7852C132.817 44.2851 137.314 24.0319 137.352 23.8429L136.256 23.6162C136.218 23.8051 131.797 43.756 108.899 64.9917C86.0387 86.1895 65.521 87.512 65.332 87.512L65.3698 88.6078Z" fill="#BCBEC0"/>
<path d="M116.626 19.4175L115.492 19.4336L115.682 32.7706L116.815 32.7545L116.626 19.4175Z" fill="white"/>
<path d="M91.9568 23.656L90.9492 24.1753L98.4789 38.786L99.4865 38.2667L91.9568 23.656Z" fill="white"/>
<path d="M75.6165 44.2759L75.0449 45.2549L87.9997 52.8184L88.5713 51.8394L75.6165 44.2759Z" fill="white"/>
<path d="M70.0626 63.2363L69.9023 64.3584L82.5823 66.1696L82.7426 65.0475L70.0626 63.2363Z" fill="white"/>
<path d="M132.779 165.653C138.031 159.91 143.283 154.506 143.094 148.725C142.943 142.944 132.401 133.951 129.114 131.419C125.826 128.888 130.096 142.113 131.607 144.984C133.119 147.856 127.111 147.894 123.37 155.602C119.705 163.348 125.335 173.815 132.779 165.653Z" fill="#FA9E84"/>
<path d="M119.402 126.96C125.41 123.56 128.282 140.866 124.579 144.946C120.838 148.99 110.409 156.433 105.535 151.899C100.661 147.327 109.805 132.364 119.402 126.96Z" fill="#FA9E84"/>
<path d="M281.541 254.488C279.728 254.299 269.412 255.584 265.898 249.084C262.384 242.585 255.658 237.484 254.562 233.857C253.467 230.192 262.913 233.857 262.913 233.857C262.913 233.857 252.673 218.553 252.144 214.284C251.615 209.976 256.981 213.944 256.981 213.944C256.981 213.944 258.076 211.45 260.759 211.412C263.442 211.374 268.316 214.321 268.316 214.321C268.316 214.321 266.692 213.604 270.735 213.981C274.778 214.359 289.325 226.677 291.479 231.287C293.633 235.897 293.368 246.25 294.162 248.366C294.955 250.445 333.761 283.885 336.218 293.86C338.636 303.836 335.953 316.494 317.891 314.869C299.83 313.169 290.648 255.432 281.541 254.488Z" fill="#FA9E84"/>
<path d="M124.656 280.22C124.581 280.22 124.543 280.22 124.467 280.22C123.787 280.106 123.296 279.615 123.107 278.897C122.087 274.854 142.642 224.183 151.446 215.833L152.995 217.495C144.72 225.355 126.923 270.017 125.412 277.537C127.906 275.421 134.292 266.881 140.375 256.717C143.322 251.767 145.287 245.532 147.214 239.486C149.292 232.912 151.408 226.148 154.847 221.009L156.736 222.256C153.487 227.13 151.484 233.478 149.368 240.167C147.441 246.326 145.438 252.711 142.34 257.85C140.942 260.155 128.813 280.22 124.656 280.22Z" fill="white"/>
<path d="M258.417 300.209L256.679 299.793C256.377 299.718 248.857 297.79 244.55 282.676C241.489 271.945 242.623 263.708 243.605 256.415C244.021 253.468 244.399 250.672 244.512 247.838L246.779 247.913C246.666 250.86 246.288 253.694 245.872 256.717C244.852 264.123 243.832 271.794 246.741 282.072C249.349 291.216 253.127 295.07 255.357 296.619C254.034 290.195 250.293 272.247 249.198 267.108C247.837 260.723 249.122 245.495 249.16 244.853L251.427 245.041C251.427 245.193 250.142 260.571 251.389 266.617C252.712 272.89 258.002 298.433 258.002 298.433L258.417 300.209Z" fill="white"/>
<path d="M137.842 354.809C135.839 354.809 134.404 354.469 133.572 353.675C133.043 353.184 132.439 352.315 132.741 350.842C134.63 341.32 176.648 329.795 197.884 329.417C220.744 329.001 234.687 322.427 238.39 316.154L240.355 317.288C235.443 325.639 218.817 331.269 197.959 331.684C174.683 332.138 136.444 344.04 134.97 351.295C134.857 351.786 135.008 351.937 135.084 352.013C137.653 354.356 154.695 349.255 165.993 345.854C172.038 344.04 177.744 342.34 181.371 341.584C193.803 339.09 222.974 334.14 223.276 334.102L223.654 336.332C223.351 336.37 194.219 341.32 181.825 343.813C178.273 344.531 172.643 346.232 166.673 348.008C153.448 351.975 143.472 354.809 137.842 354.809Z" fill="white"/>
<path d="M243.227 159.872C244.474 160.212 245.229 161.497 244.889 162.744C244.549 163.991 243.265 164.746 242.018 164.406C240.771 164.066 240.015 162.782 240.355 161.535C240.657 160.288 241.942 159.57 243.227 159.872Z" fill="#361F39"/>
<path d="M237.823 151.408C236.803 153.637 239.599 152.126 243.302 152.844C245.607 153.297 247.874 155.489 248.895 154.317C250.217 152.806 247.874 150.35 244.965 149.594C242.055 148.838 238.579 149.783 237.823 151.408Z" fill="#361F39"/>
<path d="M261.591 161.95C260.608 164.142 260.57 161.61 258.87 160.401C257.812 159.645 255.734 160.212 256.112 158.814C256.565 157.038 258.832 156.282 260.268 157.076C261.704 157.945 262.346 160.325 261.591 161.95Z" fill="#361F39"/>
<path d="M255.318 183.261C255.318 183.261 246.212 178.198 233.742 176.875C233.742 176.875 230.455 187.644 238.957 191.612C247.459 195.617 255.318 183.261 255.318 183.261Z" fill="#361F39"/>
<path d="M241.225 178.16C242.094 179.974 243.53 181.674 245.948 182.808C248.706 184.093 251.427 183.677 253.807 182.468C251.616 181.448 247.081 179.52 241.225 178.16Z" fill="white"/>
<path d="M233.215 183.148C233.517 186.246 234.877 189.723 238.958 191.65C241.112 192.67 243.228 192.632 245.155 191.99C242.964 184.244 237.825 182.695 233.215 183.148Z" fill="#CA6851"/>
<path d="M259.022 164.52C260.307 164.557 261.365 165.615 261.327 166.9C261.289 168.185 260.231 169.243 258.947 169.205C257.662 169.167 256.604 168.109 256.642 166.824C256.642 165.54 257.737 164.482 259.022 164.52Z" fill="#361F39"/>
<path d="M214.246 178.122C214.246 178.122 202.532 158.852 200.832 168.487C199.169 178.122 210.883 183.564 210.883 183.564L214.246 178.122Z" fill="#FA9E84"/>
</g>
<defs>
<clipPath id="clip0">
<rect width="669.904" height="471" fill="white"/>
</clipPath>
</defs>
</svg>
