<?xml version="1.0" encoding="utf-8"?>
<!-- Generator: Adobe Illustrator 24.0.0, SVG Export Plug-In . SVG Version: 6.00 Build 0)  -->
<svg version="1.1" id="Layer_1" xmlns="http://www.w3.org/2000/svg" xmlns:xlink="http://www.w3.org/1999/xlink" x="0px" y="0px"
	 viewBox="0 0 50 50" style="enable-background:new 0 0 50 50;" xml:space="preserve">
<style type="text/css">
	.st0{fill:#3463FF;}
	.st1{fill:#FFFFFF;}
</style>
<path class="st0" d="M25,49c13.2,0,24-10.8,24-24S38.2,1,25,1S1,11.8,1,25S11.8,49,25,49z"/>
<path class="st1" d="M25.2,17.8c-0.3,0.2-0.5,0.5-0.5,0.8V24H14c-0.5,0-1,0.4-1,1c0,0.5,0.4,1,1,1h10.7v5.4c0,0.3,0.2,0.7,0.5,0.8
	c0.3,0.2,0.7,0.2,1,0l10.4-6.4c0.3-0.2,0.5-0.5,0.5-0.8s-0.2-0.6-0.5-0.8l-10.4-6.4c-0.2-0.1-0.3-0.1-0.5-0.1
	C25.5,17.7,25.3,17.7,25.2,17.8z"/>
</svg>
