<svg width="21" height="20" viewBox="0 0 21 20" fill="none" xmlns="http://www.w3.org/2000/svg">
<g clip-path="url(#clip0_1306_6719)">
<path d="M4.93242 12.086L4.23625 14.6849L1.69176 14.7388C0.931328 13.3283 0.5 11.7146 0.5 9.99979C0.5 8.34154 0.903281 6.77779 1.61812 5.40088H1.61867L3.88398 5.81619L4.87633 8.06791C4.66863 8.67342 4.55543 9.32342 4.55543 9.99979C4.55551 10.7338 4.68848 11.4372 4.93242 12.086Z" fill="#FBBB00"/>
<path d="M20.3252 8.13184C20.4401 8.73676 20.4999 9.36148 20.4999 9.99996C20.4999 10.7159 20.4247 11.4143 20.2813 12.0879C19.7945 14.3802 18.5225 16.3818 16.7604 17.7983L16.7599 17.7978L13.9066 17.6522L13.5027 15.1313C14.672 14.4456 15.5857 13.3725 16.067 12.0879H10.7198V8.13184H16.1451H20.3252Z" fill="#518EF8"/>
<path d="M16.7599 17.7975L16.7605 17.798C15.0467 19.1755 12.8698 19.9997 10.5 19.9997C6.69178 19.9997 3.3808 17.8711 1.69178 14.7387L4.93244 12.0859C5.77694 14.3398 7.95112 15.9442 10.5 15.9442C11.5956 15.9442 12.622 15.648 13.5028 15.131L16.7599 17.7975Z" fill="#28B446"/>
<path d="M16.8831 2.30219L13.6435 4.95437C12.732 4.38461 11.6545 4.05547 10.5001 4.05547C7.89354 4.05547 5.67869 5.73348 4.87651 8.06812L1.61881 5.40109H1.61826C3.28256 2.1923 6.6353 0 10.5001 0C12.9265 0 15.1512 0.864297 16.8831 2.30219Z" fill="#F14336"/>
</g>
<defs>
<clipPath id="clip0_1306_6719">
<rect width="20" height="20" fill="white" transform="translate(0.5)"/>
</clipPath>
</defs>
</svg>
