<svg width="17" height="22" viewBox="0 0 17 22" fill="none" xmlns="http://www.w3.org/2000/svg">
<path d="M8.5 9.625C8.5 8.86677 7.88323 8.25 7.125 8.25H5.75V11H7.125C7.88323 11 8.5 10.3832 8.5 9.625Z" fill="white"/>
<path d="M16.6152 4.71707L12.0329 0.134836C11.95 0.0516055 11.8353 0 11.7083 0H2.08335C1.07221 0 0.25 0.822207 0.25 1.83335V20.1667C0.25 21.1778 1.07221 22 2.08335 22H14.9167C15.9278 22 16.75 21.1778 16.75 20.1667V5.04165C16.75 4.91472 16.6984 4.80004 16.6152 4.71707ZM12.0812 17.6087C12.2284 17.8146 12.1806 18.101 11.9747 18.2478C11.8941 18.3056 11.801 18.3333 11.7088 18.3333C11.5656 18.3333 11.425 18.2667 11.3355 18.1413L9.95827 16.2133L8.39971 18.1615C8.30883 18.2743 8.17593 18.3333 8.04118 18.3333C7.94093 18.3333 7.83974 18.3007 7.75518 18.2331C7.55778 18.0746 7.52555 17.7864 7.68355 17.5886L9.40428 15.4377L6.88927 11.9167H5.75V14.2083C5.75 14.4617 5.545 14.6667 5.29165 14.6667C5.03831 14.6667 4.8333 14.4617 4.8333 14.2083V7.79165C4.8333 7.53831 5.03831 7.3333 5.29165 7.3333H7.125C8.38854 7.3333 9.41665 8.36142 9.41665 9.62496C9.41665 10.6116 8.78639 11.447 7.91013 11.7692L9.99927 14.6939L11.3502 13.0051C11.5091 12.8082 11.7969 12.776 11.9948 12.9335C12.1922 13.092 12.2244 13.3802 12.0664 13.578L10.5533 15.4695L12.0812 17.6087ZM13.0833 4.58335C12.578 4.58335 12.1667 4.17201 12.1667 3.6667V1.56479L15.1853 4.58335H13.0833Z" fill="white"/>
</svg>
